<?xml version="1.0" encoding="utf-8" standalone="no"?>
<!DOCTYPE svg PUBLIC "-//W3C//DTD SVG 1.1//EN"
  "http://www.w3.org/Graphics/SVG/1.1/DTD/svg11.dtd">
<svg xmlns:xlink="http://www.w3.org/1999/xlink" width="432pt" height="288pt" viewBox="0 0 432 288" xmlns="http://www.w3.org/2000/svg" version="1.1">
 <metadata>
  <rdf:RDF xmlns:dc="http://purl.org/dc/elements/1.1/" xmlns:cc="http://creativecommons.org/ns#" xmlns:rdf="http://www.w3.org/1999/02/22-rdf-syntax-ns#">
   <cc:Work>
    <dc:type rdf:resource="http://purl.org/dc/dcmitype/StillImage"/>
    <dc:date>2022-07-28T14:36:57.319885</dc:date>
    <dc:format>image/svg+xml</dc:format>
    <dc:creator>
     <cc:Agent>
      <dc:title>Matplotlib v3.5.2, https://matplotlib.org/</dc:title>
     </cc:Agent>
    </dc:creator>
   </cc:Work>
  </rdf:RDF>
 </metadata>
 <defs>
  <style type="text/css">*{stroke-linejoin: round; stroke-linecap: butt}</style>
 </defs>
 <g id="figure_1">
  <g id="patch_1">
   <path d="M 0 288 
L 432 288 
L 432 0 
L 0 0 
L 0 288 
z
" style="fill: none"/>
  </g>
  <g id="axes_1">
   <g id="patch_2">
    <path d="M 54 252 
L 388.8 252 
L 388.8 34.56 
L 54 34.56 
z
" style="fill: #ffffff"/>
   </g>
   <g id="matplotlib.axis_1">
    <g id="xtick_1">
     <g id="line2d_1">
      <defs>
       <path id="m2d841f34b0" d="M 0 0 
L 0 3.5 
" style="stroke: #000000; stroke-width: 0.8"/>
      </defs>
      <g>
       <use xlink:href="#m2d841f34b0" x="69.218182" y="252" style="stroke: #000000; stroke-width: 0.8"/>
      </g>
     </g>
     <g id="text_1">
      <!-- 0 -->
      <g transform="translate(66.036932 266.598437)scale(0.1 -0.1)">
       <defs>
        <path id="DejaVuSans-30" d="M 2034 4250 
Q 1547 4250 1301 3770 
Q 1056 3291 1056 2328 
Q 1056 1369 1301 889 
Q 1547 409 2034 409 
Q 2525 409 2770 889 
Q 3016 1369 3016 2328 
Q 3016 3291 2770 3770 
Q 2525 4250 2034 4250 
z
M 2034 4750 
Q 2819 4750 3233 4129 
Q 3647 3509 3647 2328 
Q 3647 1150 3233 529 
Q 2819 -91 2034 -91 
Q 1250 -91 836 529 
Q 422 1150 422 2328 
Q 422 3509 836 4129 
Q 1250 4750 2034 4750 
z
" transform="scale(0.015625)"/>
       </defs>
       <use xlink:href="#DejaVuSans-30"/>
      </g>
     </g>
    </g>
    <g id="xtick_2">
     <g id="line2d_2">
      <g>
       <use xlink:href="#m2d841f34b0" x="130.705785" y="252" style="stroke: #000000; stroke-width: 0.8"/>
      </g>
     </g>
     <g id="text_2">
      <!-- 20 -->
      <g transform="translate(124.343285 266.598437)scale(0.1 -0.1)">
       <defs>
        <path id="DejaVuSans-32" d="M 1228 531 
L 3431 531 
L 3431 0 
L 469 0 
L 469 531 
Q 828 903 1448 1529 
Q 2069 2156 2228 2338 
Q 2531 2678 2651 2914 
Q 2772 3150 2772 3378 
Q 2772 3750 2511 3984 
Q 2250 4219 1831 4219 
Q 1534 4219 1204 4116 
Q 875 4013 500 3803 
L 500 4441 
Q 881 4594 1212 4672 
Q 1544 4750 1819 4750 
Q 2544 4750 2975 4387 
Q 3406 4025 3406 3419 
Q 3406 3131 3298 2873 
Q 3191 2616 2906 2266 
Q 2828 2175 2409 1742 
Q 1991 1309 1228 531 
z
" transform="scale(0.015625)"/>
       </defs>
       <use xlink:href="#DejaVuSans-32"/>
       <use xlink:href="#DejaVuSans-30" x="63.623047"/>
      </g>
     </g>
    </g>
    <g id="xtick_3">
     <g id="line2d_3">
      <g>
       <use xlink:href="#m2d841f34b0" x="192.193388" y="252" style="stroke: #000000; stroke-width: 0.8"/>
      </g>
     </g>
     <g id="text_3">
      <!-- 40 -->
      <g transform="translate(185.830888 266.598437)scale(0.1 -0.1)">
       <defs>
        <path id="DejaVuSans-34" d="M 2419 4116 
L 825 1625 
L 2419 1625 
L 2419 4116 
z
M 2253 4666 
L 3047 4666 
L 3047 1625 
L 3713 1625 
L 3713 1100 
L 3047 1100 
L 3047 0 
L 2419 0 
L 2419 1100 
L 313 1100 
L 313 1709 
L 2253 4666 
z
" transform="scale(0.015625)"/>
       </defs>
       <use xlink:href="#DejaVuSans-34"/>
       <use xlink:href="#DejaVuSans-30" x="63.623047"/>
      </g>
     </g>
    </g>
    <g id="xtick_4">
     <g id="line2d_4">
      <g>
       <use xlink:href="#m2d841f34b0" x="253.680992" y="252" style="stroke: #000000; stroke-width: 0.8"/>
      </g>
     </g>
     <g id="text_4">
      <!-- 60 -->
      <g transform="translate(247.318492 266.598437)scale(0.1 -0.1)">
       <defs>
        <path id="DejaVuSans-36" d="M 2113 2584 
Q 1688 2584 1439 2293 
Q 1191 2003 1191 1497 
Q 1191 994 1439 701 
Q 1688 409 2113 409 
Q 2538 409 2786 701 
Q 3034 994 3034 1497 
Q 3034 2003 2786 2293 
Q 2538 2584 2113 2584 
z
M 3366 4563 
L 3366 3988 
Q 3128 4100 2886 4159 
Q 2644 4219 2406 4219 
Q 1781 4219 1451 3797 
Q 1122 3375 1075 2522 
Q 1259 2794 1537 2939 
Q 1816 3084 2150 3084 
Q 2853 3084 3261 2657 
Q 3669 2231 3669 1497 
Q 3669 778 3244 343 
Q 2819 -91 2113 -91 
Q 1303 -91 875 529 
Q 447 1150 447 2328 
Q 447 3434 972 4092 
Q 1497 4750 2381 4750 
Q 2619 4750 2861 4703 
Q 3103 4656 3366 4563 
z
" transform="scale(0.015625)"/>
       </defs>
       <use xlink:href="#DejaVuSans-36"/>
       <use xlink:href="#DejaVuSans-30" x="63.623047"/>
      </g>
     </g>
    </g>
    <g id="xtick_5">
     <g id="line2d_5">
      <g>
       <use xlink:href="#m2d841f34b0" x="315.168595" y="252" style="stroke: #000000; stroke-width: 0.8"/>
      </g>
     </g>
     <g id="text_5">
      <!-- 80 -->
      <g transform="translate(308.806095 266.598437)scale(0.1 -0.1)">
       <defs>
        <path id="DejaVuSans-38" d="M 2034 2216 
Q 1584 2216 1326 1975 
Q 1069 1734 1069 1313 
Q 1069 891 1326 650 
Q 1584 409 2034 409 
Q 2484 409 2743 651 
Q 3003 894 3003 1313 
Q 3003 1734 2745 1975 
Q 2488 2216 2034 2216 
z
M 1403 2484 
Q 997 2584 770 2862 
Q 544 3141 544 3541 
Q 544 4100 942 4425 
Q 1341 4750 2034 4750 
Q 2731 4750 3128 4425 
Q 3525 4100 3525 3541 
Q 3525 3141 3298 2862 
Q 3072 2584 2669 2484 
Q 3125 2378 3379 2068 
Q 3634 1759 3634 1313 
Q 3634 634 3220 271 
Q 2806 -91 2034 -91 
Q 1263 -91 848 271 
Q 434 634 434 1313 
Q 434 1759 690 2068 
Q 947 2378 1403 2484 
z
M 1172 3481 
Q 1172 3119 1398 2916 
Q 1625 2713 2034 2713 
Q 2441 2713 2670 2916 
Q 2900 3119 2900 3481 
Q 2900 3844 2670 4047 
Q 2441 4250 2034 4250 
Q 1625 4250 1398 4047 
Q 1172 3844 1172 3481 
z
" transform="scale(0.015625)"/>
       </defs>
       <use xlink:href="#DejaVuSans-38"/>
       <use xlink:href="#DejaVuSans-30" x="63.623047"/>
      </g>
     </g>
    </g>
    <g id="xtick_6">
     <g id="line2d_6">
      <g>
       <use xlink:href="#m2d841f34b0" x="376.656198" y="252" style="stroke: #000000; stroke-width: 0.8"/>
      </g>
     </g>
     <g id="text_6">
      <!-- 100 -->
      <g transform="translate(367.112448 266.598437)scale(0.1 -0.1)">
       <defs>
        <path id="DejaVuSans-31" d="M 794 531 
L 1825 531 
L 1825 4091 
L 703 3866 
L 703 4441 
L 1819 4666 
L 2450 4666 
L 2450 531 
L 3481 531 
L 3481 0 
L 794 0 
L 794 531 
z
" transform="scale(0.015625)"/>
       </defs>
       <use xlink:href="#DejaVuSans-31"/>
       <use xlink:href="#DejaVuSans-30" x="63.623047"/>
       <use xlink:href="#DejaVuSans-30" x="127.246094"/>
      </g>
     </g>
    </g>
   </g>
   <g id="matplotlib.axis_2">
    <g id="ytick_1">
     <g id="line2d_7">
      <defs>
       <path id="m38513a925e" d="M 0 0 
L -3.5 0 
" style="stroke: #000000; stroke-width: 0.8"/>
      </defs>
      <g>
       <use xlink:href="#m38513a925e" x="54" y="242.116364" style="stroke: #000000; stroke-width: 0.8"/>
      </g>
     </g>
     <g id="text_7">
      <!-- 0.0 -->
      <g transform="translate(31.096875 245.915582)scale(0.1 -0.1)">
       <defs>
        <path id="DejaVuSans-2e" d="M 684 794 
L 1344 794 
L 1344 0 
L 684 0 
L 684 794 
z
" transform="scale(0.015625)"/>
       </defs>
       <use xlink:href="#DejaVuSans-30"/>
       <use xlink:href="#DejaVuSans-2e" x="63.623047"/>
       <use xlink:href="#DejaVuSans-30" x="95.410156"/>
      </g>
     </g>
    </g>
    <g id="ytick_2">
     <g id="line2d_8">
      <g>
       <use xlink:href="#m38513a925e" x="54" y="194.995331" style="stroke: #000000; stroke-width: 0.8"/>
      </g>
     </g>
     <g id="text_8">
      <!-- 0.1 -->
      <g transform="translate(31.096875 198.79455)scale(0.1 -0.1)">
       <use xlink:href="#DejaVuSans-30"/>
       <use xlink:href="#DejaVuSans-2e" x="63.623047"/>
       <use xlink:href="#DejaVuSans-31" x="95.410156"/>
      </g>
     </g>
    </g>
    <g id="ytick_3">
     <g id="line2d_9">
      <g>
       <use xlink:href="#m38513a925e" x="54" y="147.874299" style="stroke: #000000; stroke-width: 0.8"/>
      </g>
     </g>
     <g id="text_9">
      <!-- 0.2 -->
      <g transform="translate(31.096875 151.673518)scale(0.1 -0.1)">
       <use xlink:href="#DejaVuSans-30"/>
       <use xlink:href="#DejaVuSans-2e" x="63.623047"/>
       <use xlink:href="#DejaVuSans-32" x="95.410156"/>
      </g>
     </g>
    </g>
    <g id="ytick_4">
     <g id="line2d_10">
      <g>
       <use xlink:href="#m38513a925e" x="54" y="100.753267" style="stroke: #000000; stroke-width: 0.8"/>
      </g>
     </g>
     <g id="text_10">
      <!-- 0.3 -->
      <g transform="translate(31.096875 104.552486)scale(0.1 -0.1)">
       <defs>
        <path id="DejaVuSans-33" d="M 2597 2516 
Q 3050 2419 3304 2112 
Q 3559 1806 3559 1356 
Q 3559 666 3084 287 
Q 2609 -91 1734 -91 
Q 1441 -91 1130 -33 
Q 819 25 488 141 
L 488 750 
Q 750 597 1062 519 
Q 1375 441 1716 441 
Q 2309 441 2620 675 
Q 2931 909 2931 1356 
Q 2931 1769 2642 2001 
Q 2353 2234 1838 2234 
L 1294 2234 
L 1294 2753 
L 1863 2753 
Q 2328 2753 2575 2939 
Q 2822 3125 2822 3475 
Q 2822 3834 2567 4026 
Q 2313 4219 1838 4219 
Q 1578 4219 1281 4162 
Q 984 4106 628 3988 
L 628 4550 
Q 988 4650 1302 4700 
Q 1616 4750 1894 4750 
Q 2613 4750 3031 4423 
Q 3450 4097 3450 3541 
Q 3450 3153 3228 2886 
Q 3006 2619 2597 2516 
z
" transform="scale(0.015625)"/>
       </defs>
       <use xlink:href="#DejaVuSans-30"/>
       <use xlink:href="#DejaVuSans-2e" x="63.623047"/>
       <use xlink:href="#DejaVuSans-33" x="95.410156"/>
      </g>
     </g>
    </g>
    <g id="ytick_5">
     <g id="line2d_11">
      <g>
       <use xlink:href="#m38513a925e" x="54" y="53.632235" style="stroke: #000000; stroke-width: 0.8"/>
      </g>
     </g>
     <g id="text_11">
      <!-- 0.4 -->
      <g transform="translate(31.096875 57.431453)scale(0.1 -0.1)">
       <use xlink:href="#DejaVuSans-30"/>
       <use xlink:href="#DejaVuSans-2e" x="63.623047"/>
       <use xlink:href="#DejaVuSans-34" x="95.410156"/>
      </g>
     </g>
    </g>
   </g>
   <g id="line2d_12">
    <defs>
     <path id="m0d52050422" d="M 0 3 
C 0.795609 3 1.55874 2.683901 2.12132 2.12132 
C 2.683901 1.55874 3 0.795609 3 0 
C 3 -0.795609 2.683901 -1.55874 2.12132 -2.12132 
C 1.55874 -2.683901 0.795609 -3 0 -3 
C -0.795609 -3 -1.55874 -2.683901 -2.12132 -2.12132 
C -2.683901 -1.55874 -3 -0.795609 -3 0 
C -3 0.795609 -2.683901 1.55874 -2.12132 2.12132 
C -1.55874 2.683901 -0.795609 3 0 3 
z
" style="stroke: #0000ff"/>
    </defs>
    <g clip-path="url(#p98aeb85b7a)">
     <use xlink:href="#m0d52050422" x="69.218182" y="242.116364" style="fill: #0000ff; stroke: #0000ff"/>
     <use xlink:href="#m0d52050422" x="72.292562" y="242.116364" style="fill: #0000ff; stroke: #0000ff"/>
     <use xlink:href="#m0d52050422" x="75.366942" y="242.116364" style="fill: #0000ff; stroke: #0000ff"/>
     <use xlink:href="#m0d52050422" x="78.441322" y="242.116364" style="fill: #0000ff; stroke: #0000ff"/>
     <use xlink:href="#m0d52050422" x="81.515702" y="242.116364" style="fill: #0000ff; stroke: #0000ff"/>
     <use xlink:href="#m0d52050422" x="84.590083" y="242.116364" style="fill: #0000ff; stroke: #0000ff"/>
     <use xlink:href="#m0d52050422" x="87.664463" y="241.762956" style="fill: #0000ff; stroke: #0000ff"/>
     <use xlink:href="#m0d52050422" x="90.738843" y="241.409548" style="fill: #0000ff; stroke: #0000ff"/>
     <use xlink:href="#m0d52050422" x="93.813223" y="241.527351" style="fill: #0000ff; stroke: #0000ff"/>
     <use xlink:href="#m0d52050422" x="96.887603" y="240.467127" style="fill: #0000ff; stroke: #0000ff"/>
     <use xlink:href="#m0d52050422" x="99.961983" y="239.819213" style="fill: #0000ff; stroke: #0000ff"/>
     <use xlink:href="#m0d52050422" x="103.036364" y="238.111076" style="fill: #0000ff; stroke: #0000ff"/>
     <use xlink:href="#m0d52050422" x="106.110744" y="238.052175" style="fill: #0000ff; stroke: #0000ff"/>
     <use xlink:href="#m0d52050422" x="109.185124" y="237.993273" style="fill: #0000ff; stroke: #0000ff"/>
     <use xlink:href="#m0d52050422" x="112.259504" y="234.459196" style="fill: #0000ff; stroke: #0000ff"/>
     <use xlink:href="#m0d52050422" x="115.333884" y="233.222269" style="fill: #0000ff; stroke: #0000ff"/>
     <use xlink:href="#m0d52050422" x="118.408264" y="231.45523" style="fill: #0000ff; stroke: #0000ff"/>
     <use xlink:href="#m0d52050422" x="121.482645" y="225.270594" style="fill: #0000ff; stroke: #0000ff"/>
     <use xlink:href="#m0d52050422" x="124.557025" y="224.269272" style="fill: #0000ff; stroke: #0000ff"/>
     <use xlink:href="#m0d52050422" x="127.631405" y="218.67365" style="fill: #0000ff; stroke: #0000ff"/>
     <use xlink:href="#m0d52050422" x="130.705785" y="217.26002" style="fill: #0000ff; stroke: #0000ff"/>
     <use xlink:href="#m0d52050422" x="133.780165" y="214.079349" style="fill: #0000ff; stroke: #0000ff"/>
     <use xlink:href="#m0d52050422" x="136.854545" y="211.605495" style="fill: #0000ff; stroke: #0000ff"/>
     <use xlink:href="#m0d52050422" x="139.928926" y="210.486371" style="fill: #0000ff; stroke: #0000ff"/>
     <use xlink:href="#m0d52050422" x="143.003306" y="206.657787" style="fill: #0000ff; stroke: #0000ff"/>
     <use xlink:href="#m0d52050422" x="146.077686" y="206.009874" style="fill: #0000ff; stroke: #0000ff"/>
     <use xlink:href="#m0d52050422" x="149.152066" y="194.641924" style="fill: #0000ff; stroke: #0000ff"/>
     <use xlink:href="#m0d52050422" x="152.226446" y="200.178644" style="fill: #0000ff; stroke: #0000ff"/>
     <use xlink:href="#m0d52050422" x="155.300826" y="196.997977" style="fill: #0000ff; stroke: #0000ff"/>
     <use xlink:href="#m0d52050422" x="158.375207" y="187.102558" style="fill: #0000ff; stroke: #0000ff"/>
     <use xlink:href="#m0d52050422" x="161.449587" y="183.332874" style="fill: #0000ff; stroke: #0000ff"/>
     <use xlink:href="#m0d52050422" x="164.523967" y="179.975505" style="fill: #0000ff; stroke: #0000ff"/>
     <use xlink:href="#m0d52050422" x="167.598347" y="178.149564" style="fill: #0000ff; stroke: #0000ff"/>
     <use xlink:href="#m0d52050422" x="170.672727" y="180.093306" style="fill: #0000ff; stroke: #0000ff"/>
     <use xlink:href="#m0d52050422" x="173.747107" y="183.92189" style="fill: #0000ff; stroke: #0000ff"/>
     <use xlink:href="#m0d52050422" x="176.821488" y="180.152203" style="fill: #0000ff; stroke: #0000ff"/>
     <use xlink:href="#m0d52050422" x="179.895868" y="176.677033" style="fill: #0000ff; stroke: #0000ff"/>
     <use xlink:href="#m0d52050422" x="182.970248" y="169.432173" style="fill: #0000ff; stroke: #0000ff"/>
     <use xlink:href="#m0d52050422" x="186.044628" y="168.254149" style="fill: #0000ff; stroke: #0000ff"/>
     <use xlink:href="#m0d52050422" x="189.119008" y="158.123124" style="fill: #0000ff; stroke: #0000ff"/>
     <use xlink:href="#m0d52050422" x="192.193388" y="161.303795" style="fill: #0000ff; stroke: #0000ff"/>
     <use xlink:href="#m0d52050422" x="195.267769" y="155.119158" style="fill: #0000ff; stroke: #0000ff"/>
     <use xlink:href="#m0d52050422" x="198.342149" y="156.06158" style="fill: #0000ff; stroke: #0000ff"/>
     <use xlink:href="#m0d52050422" x="201.416529" y="147.933202" style="fill: #0000ff; stroke: #0000ff"/>
     <use xlink:href="#m0d52050422" x="204.490909" y="138.980201" style="fill: #0000ff; stroke: #0000ff"/>
     <use xlink:href="#m0d52050422" x="207.565289" y="140.21713" style="fill: #0000ff; stroke: #0000ff"/>
     <use xlink:href="#m0d52050422" x="210.639669" y="150.289251" style="fill: #0000ff; stroke: #0000ff"/>
     <use xlink:href="#m0d52050422" x="213.71405" y="151.231674" style="fill: #0000ff; stroke: #0000ff"/>
     <use xlink:href="#m0d52050422" x="216.78843" y="146.225062" style="fill: #0000ff; stroke: #0000ff"/>
     <use xlink:href="#m0d52050422" x="219.86281" y="140.511636" style="fill: #0000ff; stroke: #0000ff"/>
     <use xlink:href="#m0d52050422" x="222.93719" y="135.917339" style="fill: #0000ff; stroke: #0000ff"/>
     <use xlink:href="#m0d52050422" x="226.01157" y="141.21845" style="fill: #0000ff; stroke: #0000ff"/>
     <use xlink:href="#m0d52050422" x="229.08595" y="129.850503" style="fill: #0000ff; stroke: #0000ff"/>
     <use xlink:href="#m0d52050422" x="232.160331" y="123.194655" style="fill: #0000ff; stroke: #0000ff"/>
     <use xlink:href="#m0d52050422" x="235.234711" y="122.841245" style="fill: #0000ff; stroke: #0000ff"/>
     <use xlink:href="#m0d52050422" x="238.309091" y="124.195975" style="fill: #0000ff; stroke: #0000ff"/>
     <use xlink:href="#m0d52050422" x="241.383471" y="124.254886" style="fill: #0000ff; stroke: #0000ff"/>
     <use xlink:href="#m0d52050422" x="244.457851" y="117.540134" style="fill: #0000ff; stroke: #0000ff"/>
     <use xlink:href="#m0d52050422" x="247.532231" y="121.781028" style="fill: #0000ff; stroke: #0000ff"/>
     <use xlink:href="#m0d52050422" x="250.606612" y="127.847857" style="fill: #0000ff; stroke: #0000ff"/>
     <use xlink:href="#m0d52050422" x="253.680992" y="122.252233" style="fill: #0000ff; stroke: #0000ff"/>
     <use xlink:href="#m0d52050422" x="256.755372" y="119.542773" style="fill: #0000ff; stroke: #0000ff"/>
     <use xlink:href="#m0d52050422" x="259.829752" y="109.058345" style="fill: #0000ff; stroke: #0000ff"/>
     <use xlink:href="#m0d52050422" x="262.904132" y="115.831994" style="fill: #0000ff; stroke: #0000ff"/>
     <use xlink:href="#m0d52050422" x="265.978512" y="115.066277" style="fill: #0000ff; stroke: #0000ff"/>
     <use xlink:href="#m0d52050422" x="269.052893" y="115.478584" style="fill: #0000ff; stroke: #0000ff"/>
     <use xlink:href="#m0d52050422" x="272.127273" y="111.885613" style="fill: #0000ff; stroke: #0000ff"/>
     <use xlink:href="#m0d52050422" x="275.201653" y="107.585821" style="fill: #0000ff; stroke: #0000ff"/>
     <use xlink:href="#m0d52050422" x="278.276033" y="104.464054" style="fill: #0000ff; stroke: #0000ff"/>
     <use xlink:href="#m0d52050422" x="281.350413" y="112.239023" style="fill: #0000ff; stroke: #0000ff"/>
     <use xlink:href="#m0d52050422" x="284.424793" y="109.58846" style="fill: #0000ff; stroke: #0000ff"/>
     <use xlink:href="#m0d52050422" x="287.499174" y="109.470652" style="fill: #0000ff; stroke: #0000ff"/>
     <use xlink:href="#m0d52050422" x="290.573554" y="95.746663" style="fill: #0000ff; stroke: #0000ff"/>
     <use xlink:href="#m0d52050422" x="293.647934" y="109.941871" style="fill: #0000ff; stroke: #0000ff"/>
     <use xlink:href="#m0d52050422" x="296.722314" y="103.992836" style="fill: #0000ff; stroke: #0000ff"/>
     <use xlink:href="#m0d52050422" x="299.796694" y="95.45215" style="fill: #0000ff; stroke: #0000ff"/>
     <use xlink:href="#m0d52050422" x="302.871074" y="93.037204" style="fill: #0000ff; stroke: #0000ff"/>
     <use xlink:href="#m0d52050422" x="305.945455" y="98.043802" style="fill: #0000ff; stroke: #0000ff"/>
     <use xlink:href="#m0d52050422" x="309.019835" y="96.80688" style="fill: #0000ff; stroke: #0000ff"/>
     <use xlink:href="#m0d52050422" x="312.094215" y="100.282057" style="fill: #0000ff; stroke: #0000ff"/>
     <use xlink:href="#m0d52050422" x="315.168595" y="97.042482" style="fill: #0000ff; stroke: #0000ff"/>
     <use xlink:href="#m0d52050422" x="318.242975" y="94.333022" style="fill: #0000ff; stroke: #0000ff"/>
     <use xlink:href="#m0d52050422" x="321.317355" y="91.623563" style="fill: #0000ff; stroke: #0000ff"/>
     <use xlink:href="#m0d52050422" x="324.391736" y="86.44026" style="fill: #0000ff; stroke: #0000ff"/>
     <use xlink:href="#m0d52050422" x="327.466116" y="83.37739" style="fill: #0000ff; stroke: #0000ff"/>
     <use xlink:href="#m0d52050422" x="330.540496" y="84.084196" style="fill: #0000ff; stroke: #0000ff"/>
     <use xlink:href="#m0d52050422" x="333.614876" y="91.446858" style="fill: #0000ff; stroke: #0000ff"/>
     <use xlink:href="#m0d52050422" x="336.689256" y="80.903533" style="fill: #0000ff; stroke: #0000ff"/>
     <use xlink:href="#m0d52050422" x="339.763636" y="82.199365" style="fill: #0000ff; stroke: #0000ff"/>
     <use xlink:href="#m0d52050422" x="342.838017" y="96.041162" style="fill: #0000ff; stroke: #0000ff"/>
     <use xlink:href="#m0d52050422" x="345.912397" y="86.204644" style="fill: #0000ff; stroke: #0000ff"/>
     <use xlink:href="#m0d52050422" x="348.986777" y="86.675862" style="fill: #0000ff; stroke: #0000ff"/>
     <use xlink:href="#m0d52050422" x="352.061157" y="79.018688" style="fill: #0000ff; stroke: #0000ff"/>
     <use xlink:href="#m0d52050422" x="355.135537" y="80.255623" style="fill: #0000ff; stroke: #0000ff"/>
     <use xlink:href="#m0d52050422" x="358.209917" y="72.186142" style="fill: #0000ff; stroke: #0000ff"/>
     <use xlink:href="#m0d52050422" x="361.284298" y="71.773834" style="fill: #0000ff; stroke: #0000ff"/>
     <use xlink:href="#m0d52050422" x="364.358678" y="84.555415" style="fill: #0000ff; stroke: #0000ff"/>
     <use xlink:href="#m0d52050422" x="367.433058" y="85.144427" style="fill: #0000ff; stroke: #0000ff"/>
     <use xlink:href="#m0d52050422" x="370.507438" y="73.776473" style="fill: #0000ff; stroke: #0000ff"/>
     <use xlink:href="#m0d52050422" x="373.581818" y="77.25165" style="fill: #0000ff; stroke: #0000ff"/>
    </g>
   </g>
   <g id="line2d_13">
    <path d="M 69.218182 242.116364 
L 72.292562 242.116364 
L 75.366942 242.116364 
L 78.441322 242.116364 
L 81.515702 242.116364 
L 84.590083 242.116364 
L 87.664463 242.116364 
L 90.738843 242.116364 
L 93.813223 241.409548 
L 96.887603 242.116364 
L 99.961983 239.760312 
L 103.036364 241.173943 
L 106.110744 239.995917 
L 109.185124 240.467127 
L 112.259504 228.451265 
L 115.333884 226.566423 
L 118.408264 234.341393 
L 121.482645 238.346681 
L 124.557025 220.205083 
L 127.631405 194.288517 
L 130.705785 216.671006 
L 133.780165 209.602852 
L 136.854545 235.519419 
L 139.928926 219.027058 
L 143.003306 201.121067 
L 146.077686 222.089925 
L 149.152066 193.5817 
L 152.226446 214.314954 
L 155.300826 210.780877 
L 158.375207 204.183933 
L 161.449587 211.016482 
L 164.523967 184.628704 
L 167.598347 200.178644 
L 170.672727 209.367247 
L 173.747107 156.591689 
L 176.821488 197.115778 
L 179.895868 181.565837 
L 182.970248 152.822006 
L 186.044628 152.350794 
L 189.119008 134.444808 
L 192.193388 164.131055 
L 195.267769 156.356087 
L 198.342149 160.361372 
L 201.416529 144.811435 
L 204.490909 134.209199 
L 207.565289 151.17277 
L 210.639669 176.38252 
L 213.71405 170.492397 
L 216.78843 152.822006 
L 219.86281 132.088751 
L 222.93719 143.162199 
L 226.01157 147.403086 
L 229.08595 137.272068 
L 232.160331 141.512963 
L 235.234711 132.795572 
L 238.309091 100.517659 
L 241.383471 153.293217 
L 244.457851 143.869012 
L 247.532231 133.502385 
L 250.606612 110.177473 
L 253.680992 127.376653 
L 256.755372 104.758554 
L 259.829752 91.093462 
L 262.904132 116.538814 
L 265.978512 116.067596 
L 269.052893 98.86843 
L 272.127273 96.276765 
L 275.201653 106.17218 
L 278.276033 96.983585 
L 281.350413 78.135176 
L 284.424793 101.460082 
L 287.499174 117.716839 
L 290.573554 102.402504 
L 293.647934 116.067596 
L 296.722314 97.690405 
L 299.796694 78.60638 
L 302.871074 114.653969 
L 305.945455 84.496504 
L 309.019835 134.209199 
L 312.094215 104.758554 
L 315.168595 149.523534 
L 318.242975 128.79028 
L 321.317355 62.820841 
L 324.391736 91.329064 
L 327.466116 44.443636 
L 330.540496 46.564084 
L 333.614876 84.967722 
L 336.689256 77.663958 
L 339.763636 45.150443 
L 342.838017 89.208616 
L 345.912397 55.045859 
L 348.986777 82.140454 
L 352.061157 73.894282 
L 355.135537 79.784405 
L 358.209917 52.925425 
L 361.284298 101.224479 
L 364.358678 108.763846 
L 367.433058 72.009436 
L 370.507438 56.695101 
L 373.581818 93.213895 
" clip-path="url(#p98aeb85b7a)" style="fill: none; stroke: #0000ff; stroke-width: 1.5; stroke-linecap: square"/>
   </g>
   <g id="patch_3">
    <path d="M 54 252 
L 54 34.56 
" style="fill: none; stroke: #000000; stroke-width: 0.8; stroke-linejoin: miter; stroke-linecap: square"/>
   </g>
   <g id="patch_4">
    <path d="M 388.8 252 
L 388.8 34.56 
" style="fill: none; stroke: #000000; stroke-width: 0.8; stroke-linejoin: miter; stroke-linecap: square"/>
   </g>
   <g id="patch_5">
    <path d="M 54 252 
L 388.8 252 
" style="fill: none; stroke: #000000; stroke-width: 0.8; stroke-linejoin: miter; stroke-linecap: square"/>
   </g>
   <g id="patch_6">
    <path d="M 54 34.56 
L 388.8 34.56 
" style="fill: none; stroke: #000000; stroke-width: 0.8; stroke-linejoin: miter; stroke-linecap: square"/>
   </g>
   <g id="text_12">
    <!-- Training and validation accuracy -->
    <g transform="translate(124.108125 28.56)scale(0.12 -0.12)">
     <defs>
      <path id="DejaVuSans-54" d="M -19 4666 
L 3928 4666 
L 3928 4134 
L 2272 4134 
L 2272 0 
L 1638 0 
L 1638 4134 
L -19 4134 
L -19 4666 
z
" transform="scale(0.015625)"/>
      <path id="DejaVuSans-72" d="M 2631 2963 
Q 2534 3019 2420 3045 
Q 2306 3072 2169 3072 
Q 1681 3072 1420 2755 
Q 1159 2438 1159 1844 
L 1159 0 
L 581 0 
L 581 3500 
L 1159 3500 
L 1159 2956 
Q 1341 3275 1631 3429 
Q 1922 3584 2338 3584 
Q 2397 3584 2469 3576 
Q 2541 3569 2628 3553 
L 2631 2963 
z
" transform="scale(0.015625)"/>
      <path id="DejaVuSans-61" d="M 2194 1759 
Q 1497 1759 1228 1600 
Q 959 1441 959 1056 
Q 959 750 1161 570 
Q 1363 391 1709 391 
Q 2188 391 2477 730 
Q 2766 1069 2766 1631 
L 2766 1759 
L 2194 1759 
z
M 3341 1997 
L 3341 0 
L 2766 0 
L 2766 531 
Q 2569 213 2275 61 
Q 1981 -91 1556 -91 
Q 1019 -91 701 211 
Q 384 513 384 1019 
Q 384 1609 779 1909 
Q 1175 2209 1959 2209 
L 2766 2209 
L 2766 2266 
Q 2766 2663 2505 2880 
Q 2244 3097 1772 3097 
Q 1472 3097 1187 3025 
Q 903 2953 641 2809 
L 641 3341 
Q 956 3463 1253 3523 
Q 1550 3584 1831 3584 
Q 2591 3584 2966 3190 
Q 3341 2797 3341 1997 
z
" transform="scale(0.015625)"/>
      <path id="DejaVuSans-69" d="M 603 3500 
L 1178 3500 
L 1178 0 
L 603 0 
L 603 3500 
z
M 603 4863 
L 1178 4863 
L 1178 4134 
L 603 4134 
L 603 4863 
z
" transform="scale(0.015625)"/>
      <path id="DejaVuSans-6e" d="M 3513 2113 
L 3513 0 
L 2938 0 
L 2938 2094 
Q 2938 2591 2744 2837 
Q 2550 3084 2163 3084 
Q 1697 3084 1428 2787 
Q 1159 2491 1159 1978 
L 1159 0 
L 581 0 
L 581 3500 
L 1159 3500 
L 1159 2956 
Q 1366 3272 1645 3428 
Q 1925 3584 2291 3584 
Q 2894 3584 3203 3211 
Q 3513 2838 3513 2113 
z
" transform="scale(0.015625)"/>
      <path id="DejaVuSans-67" d="M 2906 1791 
Q 2906 2416 2648 2759 
Q 2391 3103 1925 3103 
Q 1463 3103 1205 2759 
Q 947 2416 947 1791 
Q 947 1169 1205 825 
Q 1463 481 1925 481 
Q 2391 481 2648 825 
Q 2906 1169 2906 1791 
z
M 3481 434 
Q 3481 -459 3084 -895 
Q 2688 -1331 1869 -1331 
Q 1566 -1331 1297 -1286 
Q 1028 -1241 775 -1147 
L 775 -588 
Q 1028 -725 1275 -790 
Q 1522 -856 1778 -856 
Q 2344 -856 2625 -561 
Q 2906 -266 2906 331 
L 2906 616 
Q 2728 306 2450 153 
Q 2172 0 1784 0 
Q 1141 0 747 490 
Q 353 981 353 1791 
Q 353 2603 747 3093 
Q 1141 3584 1784 3584 
Q 2172 3584 2450 3431 
Q 2728 3278 2906 2969 
L 2906 3500 
L 3481 3500 
L 3481 434 
z
" transform="scale(0.015625)"/>
      <path id="DejaVuSans-20" transform="scale(0.015625)"/>
      <path id="DejaVuSans-64" d="M 2906 2969 
L 2906 4863 
L 3481 4863 
L 3481 0 
L 2906 0 
L 2906 525 
Q 2725 213 2448 61 
Q 2172 -91 1784 -91 
Q 1150 -91 751 415 
Q 353 922 353 1747 
Q 353 2572 751 3078 
Q 1150 3584 1784 3584 
Q 2172 3584 2448 3432 
Q 2725 3281 2906 2969 
z
M 947 1747 
Q 947 1113 1208 752 
Q 1469 391 1925 391 
Q 2381 391 2643 752 
Q 2906 1113 2906 1747 
Q 2906 2381 2643 2742 
Q 2381 3103 1925 3103 
Q 1469 3103 1208 2742 
Q 947 2381 947 1747 
z
" transform="scale(0.015625)"/>
      <path id="DejaVuSans-76" d="M 191 3500 
L 800 3500 
L 1894 563 
L 2988 3500 
L 3597 3500 
L 2284 0 
L 1503 0 
L 191 3500 
z
" transform="scale(0.015625)"/>
      <path id="DejaVuSans-6c" d="M 603 4863 
L 1178 4863 
L 1178 0 
L 603 0 
L 603 4863 
z
" transform="scale(0.015625)"/>
      <path id="DejaVuSans-74" d="M 1172 4494 
L 1172 3500 
L 2356 3500 
L 2356 3053 
L 1172 3053 
L 1172 1153 
Q 1172 725 1289 603 
Q 1406 481 1766 481 
L 2356 481 
L 2356 0 
L 1766 0 
Q 1100 0 847 248 
Q 594 497 594 1153 
L 594 3053 
L 172 3053 
L 172 3500 
L 594 3500 
L 594 4494 
L 1172 4494 
z
" transform="scale(0.015625)"/>
      <path id="DejaVuSans-6f" d="M 1959 3097 
Q 1497 3097 1228 2736 
Q 959 2375 959 1747 
Q 959 1119 1226 758 
Q 1494 397 1959 397 
Q 2419 397 2687 759 
Q 2956 1122 2956 1747 
Q 2956 2369 2687 2733 
Q 2419 3097 1959 3097 
z
M 1959 3584 
Q 2709 3584 3137 3096 
Q 3566 2609 3566 1747 
Q 3566 888 3137 398 
Q 2709 -91 1959 -91 
Q 1206 -91 779 398 
Q 353 888 353 1747 
Q 353 2609 779 3096 
Q 1206 3584 1959 3584 
z
" transform="scale(0.015625)"/>
      <path id="DejaVuSans-63" d="M 3122 3366 
L 3122 2828 
Q 2878 2963 2633 3030 
Q 2388 3097 2138 3097 
Q 1578 3097 1268 2742 
Q 959 2388 959 1747 
Q 959 1106 1268 751 
Q 1578 397 2138 397 
Q 2388 397 2633 464 
Q 2878 531 3122 666 
L 3122 134 
Q 2881 22 2623 -34 
Q 2366 -91 2075 -91 
Q 1284 -91 818 406 
Q 353 903 353 1747 
Q 353 2603 823 3093 
Q 1294 3584 2113 3584 
Q 2378 3584 2631 3529 
Q 2884 3475 3122 3366 
z
" transform="scale(0.015625)"/>
      <path id="DejaVuSans-75" d="M 544 1381 
L 544 3500 
L 1119 3500 
L 1119 1403 
Q 1119 906 1312 657 
Q 1506 409 1894 409 
Q 2359 409 2629 706 
Q 2900 1003 2900 1516 
L 2900 3500 
L 3475 3500 
L 3475 0 
L 2900 0 
L 2900 538 
Q 2691 219 2414 64 
Q 2138 -91 1772 -91 
Q 1169 -91 856 284 
Q 544 659 544 1381 
z
M 1991 3584 
L 1991 3584 
z
" transform="scale(0.015625)"/>
      <path id="DejaVuSans-79" d="M 2059 -325 
Q 1816 -950 1584 -1140 
Q 1353 -1331 966 -1331 
L 506 -1331 
L 506 -850 
L 844 -850 
Q 1081 -850 1212 -737 
Q 1344 -625 1503 -206 
L 1606 56 
L 191 3500 
L 800 3500 
L 1894 763 
L 2988 3500 
L 3597 3500 
L 2059 -325 
z
" transform="scale(0.015625)"/>
     </defs>
     <use xlink:href="#DejaVuSans-54"/>
     <use xlink:href="#DejaVuSans-72" x="46.333984"/>
     <use xlink:href="#DejaVuSans-61" x="87.447266"/>
     <use xlink:href="#DejaVuSans-69" x="148.726562"/>
     <use xlink:href="#DejaVuSans-6e" x="176.509766"/>
     <use xlink:href="#DejaVuSans-69" x="239.888672"/>
     <use xlink:href="#DejaVuSans-6e" x="267.671875"/>
     <use xlink:href="#DejaVuSans-67" x="331.050781"/>
     <use xlink:href="#DejaVuSans-20" x="394.527344"/>
     <use xlink:href="#DejaVuSans-61" x="426.314453"/>
     <use xlink:href="#DejaVuSans-6e" x="487.59375"/>
     <use xlink:href="#DejaVuSans-64" x="550.972656"/>
     <use xlink:href="#DejaVuSans-20" x="614.449219"/>
     <use xlink:href="#DejaVuSans-76" x="646.236328"/>
     <use xlink:href="#DejaVuSans-61" x="705.416016"/>
     <use xlink:href="#DejaVuSans-6c" x="766.695312"/>
     <use xlink:href="#DejaVuSans-69" x="794.478516"/>
     <use xlink:href="#DejaVuSans-64" x="822.261719"/>
     <use xlink:href="#DejaVuSans-61" x="885.738281"/>
     <use xlink:href="#DejaVuSans-74" x="947.017578"/>
     <use xlink:href="#DejaVuSans-69" x="986.226562"/>
     <use xlink:href="#DejaVuSans-6f" x="1014.009766"/>
     <use xlink:href="#DejaVuSans-6e" x="1075.191406"/>
     <use xlink:href="#DejaVuSans-20" x="1138.570312"/>
     <use xlink:href="#DejaVuSans-61" x="1170.357422"/>
     <use xlink:href="#DejaVuSans-63" x="1231.636719"/>
     <use xlink:href="#DejaVuSans-63" x="1286.617188"/>
     <use xlink:href="#DejaVuSans-75" x="1341.597656"/>
     <use xlink:href="#DejaVuSans-72" x="1404.976562"/>
     <use xlink:href="#DejaVuSans-61" x="1446.089844"/>
     <use xlink:href="#DejaVuSans-63" x="1507.369141"/>
     <use xlink:href="#DejaVuSans-79" x="1562.349609"/>
    </g>
   </g>
  </g>
 </g>
 <defs>
  <clipPath id="p98aeb85b7a">
   <rect x="54" y="34.56" width="334.8" height="217.44"/>
  </clipPath>
 </defs>
</svg>
