<?xml version="1.0" encoding="utf-8" standalone="no"?>
<!DOCTYPE svg PUBLIC "-//W3C//DTD SVG 1.1//EN"
  "http://www.w3.org/Graphics/SVG/1.1/DTD/svg11.dtd">
<svg xmlns:xlink="http://www.w3.org/1999/xlink" width="432pt" height="288pt" viewBox="0 0 432 288" xmlns="http://www.w3.org/2000/svg" version="1.1">
 <metadata>
  <rdf:RDF xmlns:dc="http://purl.org/dc/elements/1.1/" xmlns:cc="http://creativecommons.org/ns#" xmlns:rdf="http://www.w3.org/1999/02/22-rdf-syntax-ns#">
   <cc:Work>
    <dc:type rdf:resource="http://purl.org/dc/dcmitype/StillImage"/>
    <dc:date>2022-07-28T14:36:57.548499</dc:date>
    <dc:format>image/svg+xml</dc:format>
    <dc:creator>
     <cc:Agent>
      <dc:title>Matplotlib v3.5.2, https://matplotlib.org/</dc:title>
     </cc:Agent>
    </dc:creator>
   </cc:Work>
  </rdf:RDF>
 </metadata>
 <defs>
  <style type="text/css">*{stroke-linejoin: round; stroke-linecap: butt}</style>
 </defs>
 <g id="figure_1">
  <g id="patch_1">
   <path d="M 0 288 
L 432 288 
L 432 0 
L 0 0 
L 0 288 
z
" style="fill: none"/>
  </g>
  <g id="axes_1">
   <g id="patch_2">
    <path d="M 54 252 
L 388.8 252 
L 388.8 34.56 
L 54 34.56 
z
" style="fill: #ffffff"/>
   </g>
   <g id="matplotlib.axis_1">
    <g id="xtick_1">
     <g id="line2d_1">
      <defs>
       <path id="m51c5b2c097" d="M 0 0 
L 0 3.5 
" style="stroke: #000000; stroke-width: 0.8"/>
      </defs>
      <g>
       <use xlink:href="#m51c5b2c097" x="69.218182" y="252" style="stroke: #000000; stroke-width: 0.8"/>
      </g>
     </g>
     <g id="text_1">
      <!-- 0 -->
      <g transform="translate(66.036932 266.598437)scale(0.1 -0.1)">
       <defs>
        <path id="DejaVuSans-30" d="M 2034 4250 
Q 1547 4250 1301 3770 
Q 1056 3291 1056 2328 
Q 1056 1369 1301 889 
Q 1547 409 2034 409 
Q 2525 409 2770 889 
Q 3016 1369 3016 2328 
Q 3016 3291 2770 3770 
Q 2525 4250 2034 4250 
z
M 2034 4750 
Q 2819 4750 3233 4129 
Q 3647 3509 3647 2328 
Q 3647 1150 3233 529 
Q 2819 -91 2034 -91 
Q 1250 -91 836 529 
Q 422 1150 422 2328 
Q 422 3509 836 4129 
Q 1250 4750 2034 4750 
z
" transform="scale(0.015625)"/>
       </defs>
       <use xlink:href="#DejaVuSans-30"/>
      </g>
     </g>
    </g>
    <g id="xtick_2">
     <g id="line2d_2">
      <g>
       <use xlink:href="#m51c5b2c097" x="130.705785" y="252" style="stroke: #000000; stroke-width: 0.8"/>
      </g>
     </g>
     <g id="text_2">
      <!-- 20 -->
      <g transform="translate(124.343285 266.598437)scale(0.1 -0.1)">
       <defs>
        <path id="DejaVuSans-32" d="M 1228 531 
L 3431 531 
L 3431 0 
L 469 0 
L 469 531 
Q 828 903 1448 1529 
Q 2069 2156 2228 2338 
Q 2531 2678 2651 2914 
Q 2772 3150 2772 3378 
Q 2772 3750 2511 3984 
Q 2250 4219 1831 4219 
Q 1534 4219 1204 4116 
Q 875 4013 500 3803 
L 500 4441 
Q 881 4594 1212 4672 
Q 1544 4750 1819 4750 
Q 2544 4750 2975 4387 
Q 3406 4025 3406 3419 
Q 3406 3131 3298 2873 
Q 3191 2616 2906 2266 
Q 2828 2175 2409 1742 
Q 1991 1309 1228 531 
z
" transform="scale(0.015625)"/>
       </defs>
       <use xlink:href="#DejaVuSans-32"/>
       <use xlink:href="#DejaVuSans-30" x="63.623047"/>
      </g>
     </g>
    </g>
    <g id="xtick_3">
     <g id="line2d_3">
      <g>
       <use xlink:href="#m51c5b2c097" x="192.193388" y="252" style="stroke: #000000; stroke-width: 0.8"/>
      </g>
     </g>
     <g id="text_3">
      <!-- 40 -->
      <g transform="translate(185.830888 266.598437)scale(0.1 -0.1)">
       <defs>
        <path id="DejaVuSans-34" d="M 2419 4116 
L 825 1625 
L 2419 1625 
L 2419 4116 
z
M 2253 4666 
L 3047 4666 
L 3047 1625 
L 3713 1625 
L 3713 1100 
L 3047 1100 
L 3047 0 
L 2419 0 
L 2419 1100 
L 313 1100 
L 313 1709 
L 2253 4666 
z
" transform="scale(0.015625)"/>
       </defs>
       <use xlink:href="#DejaVuSans-34"/>
       <use xlink:href="#DejaVuSans-30" x="63.623047"/>
      </g>
     </g>
    </g>
    <g id="xtick_4">
     <g id="line2d_4">
      <g>
       <use xlink:href="#m51c5b2c097" x="253.680992" y="252" style="stroke: #000000; stroke-width: 0.8"/>
      </g>
     </g>
     <g id="text_4">
      <!-- 60 -->
      <g transform="translate(247.318492 266.598437)scale(0.1 -0.1)">
       <defs>
        <path id="DejaVuSans-36" d="M 2113 2584 
Q 1688 2584 1439 2293 
Q 1191 2003 1191 1497 
Q 1191 994 1439 701 
Q 1688 409 2113 409 
Q 2538 409 2786 701 
Q 3034 994 3034 1497 
Q 3034 2003 2786 2293 
Q 2538 2584 2113 2584 
z
M 3366 4563 
L 3366 3988 
Q 3128 4100 2886 4159 
Q 2644 4219 2406 4219 
Q 1781 4219 1451 3797 
Q 1122 3375 1075 2522 
Q 1259 2794 1537 2939 
Q 1816 3084 2150 3084 
Q 2853 3084 3261 2657 
Q 3669 2231 3669 1497 
Q 3669 778 3244 343 
Q 2819 -91 2113 -91 
Q 1303 -91 875 529 
Q 447 1150 447 2328 
Q 447 3434 972 4092 
Q 1497 4750 2381 4750 
Q 2619 4750 2861 4703 
Q 3103 4656 3366 4563 
z
" transform="scale(0.015625)"/>
       </defs>
       <use xlink:href="#DejaVuSans-36"/>
       <use xlink:href="#DejaVuSans-30" x="63.623047"/>
      </g>
     </g>
    </g>
    <g id="xtick_5">
     <g id="line2d_5">
      <g>
       <use xlink:href="#m51c5b2c097" x="315.168595" y="252" style="stroke: #000000; stroke-width: 0.8"/>
      </g>
     </g>
     <g id="text_5">
      <!-- 80 -->
      <g transform="translate(308.806095 266.598437)scale(0.1 -0.1)">
       <defs>
        <path id="DejaVuSans-38" d="M 2034 2216 
Q 1584 2216 1326 1975 
Q 1069 1734 1069 1313 
Q 1069 891 1326 650 
Q 1584 409 2034 409 
Q 2484 409 2743 651 
Q 3003 894 3003 1313 
Q 3003 1734 2745 1975 
Q 2488 2216 2034 2216 
z
M 1403 2484 
Q 997 2584 770 2862 
Q 544 3141 544 3541 
Q 544 4100 942 4425 
Q 1341 4750 2034 4750 
Q 2731 4750 3128 4425 
Q 3525 4100 3525 3541 
Q 3525 3141 3298 2862 
Q 3072 2584 2669 2484 
Q 3125 2378 3379 2068 
Q 3634 1759 3634 1313 
Q 3634 634 3220 271 
Q 2806 -91 2034 -91 
Q 1263 -91 848 271 
Q 434 634 434 1313 
Q 434 1759 690 2068 
Q 947 2378 1403 2484 
z
M 1172 3481 
Q 1172 3119 1398 2916 
Q 1625 2713 2034 2713 
Q 2441 2713 2670 2916 
Q 2900 3119 2900 3481 
Q 2900 3844 2670 4047 
Q 2441 4250 2034 4250 
Q 1625 4250 1398 4047 
Q 1172 3844 1172 3481 
z
" transform="scale(0.015625)"/>
       </defs>
       <use xlink:href="#DejaVuSans-38"/>
       <use xlink:href="#DejaVuSans-30" x="63.623047"/>
      </g>
     </g>
    </g>
    <g id="xtick_6">
     <g id="line2d_6">
      <g>
       <use xlink:href="#m51c5b2c097" x="376.656198" y="252" style="stroke: #000000; stroke-width: 0.8"/>
      </g>
     </g>
     <g id="text_6">
      <!-- 100 -->
      <g transform="translate(367.112448 266.598437)scale(0.1 -0.1)">
       <defs>
        <path id="DejaVuSans-31" d="M 794 531 
L 1825 531 
L 1825 4091 
L 703 3866 
L 703 4441 
L 1819 4666 
L 2450 4666 
L 2450 531 
L 3481 531 
L 3481 0 
L 794 0 
L 794 531 
z
" transform="scale(0.015625)"/>
       </defs>
       <use xlink:href="#DejaVuSans-31"/>
       <use xlink:href="#DejaVuSans-30" x="63.623047"/>
       <use xlink:href="#DejaVuSans-30" x="127.246094"/>
      </g>
     </g>
    </g>
   </g>
   <g id="matplotlib.axis_2">
    <g id="ytick_1">
     <g id="line2d_7">
      <defs>
       <path id="m904e98bc9d" d="M 0 0 
L -3.5 0 
" style="stroke: #000000; stroke-width: 0.8"/>
      </defs>
      <g>
       <use xlink:href="#m904e98bc9d" x="54" y="242.50555" style="stroke: #000000; stroke-width: 0.8"/>
      </g>
     </g>
     <g id="text_7">
      <!-- 0.00 -->
      <g transform="translate(24.734375 246.304769)scale(0.1 -0.1)">
       <defs>
        <path id="DejaVuSans-2e" d="M 684 794 
L 1344 794 
L 1344 0 
L 684 0 
L 684 794 
z
" transform="scale(0.015625)"/>
       </defs>
       <use xlink:href="#DejaVuSans-30"/>
       <use xlink:href="#DejaVuSans-2e" x="63.623047"/>
       <use xlink:href="#DejaVuSans-30" x="95.410156"/>
       <use xlink:href="#DejaVuSans-30" x="159.033203"/>
      </g>
     </g>
    </g>
    <g id="ytick_2">
     <g id="line2d_8">
      <g>
       <use xlink:href="#m904e98bc9d" x="54" y="202.673344" style="stroke: #000000; stroke-width: 0.8"/>
      </g>
     </g>
     <g id="text_8">
      <!-- 0.05 -->
      <g transform="translate(24.734375 206.472563)scale(0.1 -0.1)">
       <defs>
        <path id="DejaVuSans-35" d="M 691 4666 
L 3169 4666 
L 3169 4134 
L 1269 4134 
L 1269 2991 
Q 1406 3038 1543 3061 
Q 1681 3084 1819 3084 
Q 2600 3084 3056 2656 
Q 3513 2228 3513 1497 
Q 3513 744 3044 326 
Q 2575 -91 1722 -91 
Q 1428 -91 1123 -41 
Q 819 9 494 109 
L 494 744 
Q 775 591 1075 516 
Q 1375 441 1709 441 
Q 2250 441 2565 725 
Q 2881 1009 2881 1497 
Q 2881 1984 2565 2268 
Q 2250 2553 1709 2553 
Q 1456 2553 1204 2497 
Q 953 2441 691 2322 
L 691 4666 
z
" transform="scale(0.015625)"/>
       </defs>
       <use xlink:href="#DejaVuSans-30"/>
       <use xlink:href="#DejaVuSans-2e" x="63.623047"/>
       <use xlink:href="#DejaVuSans-30" x="95.410156"/>
       <use xlink:href="#DejaVuSans-35" x="159.033203"/>
      </g>
     </g>
    </g>
    <g id="ytick_3">
     <g id="line2d_9">
      <g>
       <use xlink:href="#m904e98bc9d" x="54" y="162.841138" style="stroke: #000000; stroke-width: 0.8"/>
      </g>
     </g>
     <g id="text_9">
      <!-- 0.10 -->
      <g transform="translate(24.734375 166.640357)scale(0.1 -0.1)">
       <use xlink:href="#DejaVuSans-30"/>
       <use xlink:href="#DejaVuSans-2e" x="63.623047"/>
       <use xlink:href="#DejaVuSans-31" x="95.410156"/>
       <use xlink:href="#DejaVuSans-30" x="159.033203"/>
      </g>
     </g>
    </g>
    <g id="ytick_4">
     <g id="line2d_10">
      <g>
       <use xlink:href="#m904e98bc9d" x="54" y="123.008932" style="stroke: #000000; stroke-width: 0.8"/>
      </g>
     </g>
     <g id="text_10">
      <!-- 0.15 -->
      <g transform="translate(24.734375 126.808151)scale(0.1 -0.1)">
       <use xlink:href="#DejaVuSans-30"/>
       <use xlink:href="#DejaVuSans-2e" x="63.623047"/>
       <use xlink:href="#DejaVuSans-31" x="95.410156"/>
       <use xlink:href="#DejaVuSans-35" x="159.033203"/>
      </g>
     </g>
    </g>
    <g id="ytick_5">
     <g id="line2d_11">
      <g>
       <use xlink:href="#m904e98bc9d" x="54" y="83.176726" style="stroke: #000000; stroke-width: 0.8"/>
      </g>
     </g>
     <g id="text_11">
      <!-- 0.20 -->
      <g transform="translate(24.734375 86.975944)scale(0.1 -0.1)">
       <use xlink:href="#DejaVuSans-30"/>
       <use xlink:href="#DejaVuSans-2e" x="63.623047"/>
       <use xlink:href="#DejaVuSans-32" x="95.410156"/>
       <use xlink:href="#DejaVuSans-30" x="159.033203"/>
      </g>
     </g>
    </g>
    <g id="ytick_6">
     <g id="line2d_12">
      <g>
       <use xlink:href="#m904e98bc9d" x="54" y="43.34452" style="stroke: #000000; stroke-width: 0.8"/>
      </g>
     </g>
     <g id="text_12">
      <!-- 0.25 -->
      <g transform="translate(24.734375 47.143738)scale(0.1 -0.1)">
       <use xlink:href="#DejaVuSans-30"/>
       <use xlink:href="#DejaVuSans-2e" x="63.623047"/>
       <use xlink:href="#DejaVuSans-32" x="95.410156"/>
       <use xlink:href="#DejaVuSans-35" x="159.033203"/>
      </g>
     </g>
    </g>
   </g>
   <g id="line2d_13">
    <defs>
     <path id="m7d7d1a8af4" d="M 0 3 
C 0.795609 3 1.55874 2.683901 2.12132 2.12132 
C 2.683901 1.55874 3 0.795609 3 0 
C 3 -0.795609 2.683901 -1.55874 2.12132 -2.12132 
C 1.55874 -2.683901 0.795609 -3 0 -3 
C -0.795609 -3 -1.55874 -2.683901 -2.12132 -2.12132 
C -2.683901 -1.55874 -3 -0.795609 -3 0 
C -3 0.795609 -2.683901 1.55874 -2.12132 2.12132 
C -1.55874 2.683901 -0.795609 3 0 3 
z
" style="stroke: #0000ff"/>
    </defs>
    <g clip-path="url(#ped6b626d8a)">
     <use xlink:href="#m7d7d1a8af4" x="69.218182" y="44.443636" style="fill: #0000ff; stroke: #0000ff"/>
     <use xlink:href="#m7d7d1a8af4" x="72.292562" y="148.820794" style="fill: #0000ff; stroke: #0000ff"/>
     <use xlink:href="#m7d7d1a8af4" x="75.366942" y="174.456021" style="fill: #0000ff; stroke: #0000ff"/>
     <use xlink:href="#m7d7d1a8af4" x="78.441322" y="185.595149" style="fill: #0000ff; stroke: #0000ff"/>
     <use xlink:href="#m7d7d1a8af4" x="81.515702" y="194.588281" style="fill: #0000ff; stroke: #0000ff"/>
     <use xlink:href="#m7d7d1a8af4" x="84.590083" y="202.226641" style="fill: #0000ff; stroke: #0000ff"/>
     <use xlink:href="#m7d7d1a8af4" x="87.664463" y="208.292819" style="fill: #0000ff; stroke: #0000ff"/>
     <use xlink:href="#m7d7d1a8af4" x="90.738843" y="211.744907" style="fill: #0000ff; stroke: #0000ff"/>
     <use xlink:href="#m7d7d1a8af4" x="93.813223" y="213.11934" style="fill: #0000ff; stroke: #0000ff"/>
     <use xlink:href="#m7d7d1a8af4" x="96.887603" y="220.327805" style="fill: #0000ff; stroke: #0000ff"/>
     <use xlink:href="#m7d7d1a8af4" x="99.961983" y="217.452075" style="fill: #0000ff; stroke: #0000ff"/>
     <use xlink:href="#m7d7d1a8af4" x="103.036364" y="225.087672" style="fill: #0000ff; stroke: #0000ff"/>
     <use xlink:href="#m7d7d1a8af4" x="106.110744" y="225.820969" style="fill: #0000ff; stroke: #0000ff"/>
     <use xlink:href="#m7d7d1a8af4" x="109.185124" y="223.96197" style="fill: #0000ff; stroke: #0000ff"/>
     <use xlink:href="#m7d7d1a8af4" x="112.259504" y="228.32326" style="fill: #0000ff; stroke: #0000ff"/>
     <use xlink:href="#m7d7d1a8af4" x="115.333884" y="226.476803" style="fill: #0000ff; stroke: #0000ff"/>
     <use xlink:href="#m7d7d1a8af4" x="118.408264" y="230.561735" style="fill: #0000ff; stroke: #0000ff"/>
     <use xlink:href="#m7d7d1a8af4" x="121.482645" y="230.891272" style="fill: #0000ff; stroke: #0000ff"/>
     <use xlink:href="#m7d7d1a8af4" x="124.557025" y="228.44913" style="fill: #0000ff; stroke: #0000ff"/>
     <use xlink:href="#m7d7d1a8af4" x="127.631405" y="231.399074" style="fill: #0000ff; stroke: #0000ff"/>
     <use xlink:href="#m7d7d1a8af4" x="130.705785" y="231.29088" style="fill: #0000ff; stroke: #0000ff"/>
     <use xlink:href="#m7d7d1a8af4" x="133.780165" y="233.757822" style="fill: #0000ff; stroke: #0000ff"/>
     <use xlink:href="#m7d7d1a8af4" x="136.854545" y="234.764462" style="fill: #0000ff; stroke: #0000ff"/>
     <use xlink:href="#m7d7d1a8af4" x="139.928926" y="233.046776" style="fill: #0000ff; stroke: #0000ff"/>
     <use xlink:href="#m7d7d1a8af4" x="143.003306" y="235.02979" style="fill: #0000ff; stroke: #0000ff"/>
     <use xlink:href="#m7d7d1a8af4" x="146.077686" y="231.884936" style="fill: #0000ff; stroke: #0000ff"/>
     <use xlink:href="#m7d7d1a8af4" x="149.152066" y="233.655251" style="fill: #0000ff; stroke: #0000ff"/>
     <use xlink:href="#m7d7d1a8af4" x="152.226446" y="232.370654" style="fill: #0000ff; stroke: #0000ff"/>
     <use xlink:href="#m7d7d1a8af4" x="155.300826" y="236.50499" style="fill: #0000ff; stroke: #0000ff"/>
     <use xlink:href="#m7d7d1a8af4" x="158.375207" y="236.164293" style="fill: #0000ff; stroke: #0000ff"/>
     <use xlink:href="#m7d7d1a8af4" x="161.449587" y="237.210637" style="fill: #0000ff; stroke: #0000ff"/>
     <use xlink:href="#m7d7d1a8af4" x="164.523967" y="239.223995" style="fill: #0000ff; stroke: #0000ff"/>
     <use xlink:href="#m7d7d1a8af4" x="167.598347" y="239.947473" style="fill: #0000ff; stroke: #0000ff"/>
     <use xlink:href="#m7d7d1a8af4" x="170.672727" y="234.061578" style="fill: #0000ff; stroke: #0000ff"/>
     <use xlink:href="#m7d7d1a8af4" x="173.747107" y="237.712312" style="fill: #0000ff; stroke: #0000ff"/>
     <use xlink:href="#m7d7d1a8af4" x="176.821488" y="237.701523" style="fill: #0000ff; stroke: #0000ff"/>
     <use xlink:href="#m7d7d1a8af4" x="179.895868" y="237.694415" style="fill: #0000ff; stroke: #0000ff"/>
     <use xlink:href="#m7d7d1a8af4" x="182.970248" y="237.563625" style="fill: #0000ff; stroke: #0000ff"/>
     <use xlink:href="#m7d7d1a8af4" x="186.044628" y="237.359558" style="fill: #0000ff; stroke: #0000ff"/>
     <use xlink:href="#m7d7d1a8af4" x="189.119008" y="236.317346" style="fill: #0000ff; stroke: #0000ff"/>
     <use xlink:href="#m7d7d1a8af4" x="192.193388" y="233.490902" style="fill: #0000ff; stroke: #0000ff"/>
     <use xlink:href="#m7d7d1a8af4" x="195.267769" y="237.151876" style="fill: #0000ff; stroke: #0000ff"/>
     <use xlink:href="#m7d7d1a8af4" x="198.342149" y="240.135663" style="fill: #0000ff; stroke: #0000ff"/>
     <use xlink:href="#m7d7d1a8af4" x="201.416529" y="240.551171" style="fill: #0000ff; stroke: #0000ff"/>
     <use xlink:href="#m7d7d1a8af4" x="204.490909" y="241.339349" style="fill: #0000ff; stroke: #0000ff"/>
     <use xlink:href="#m7d7d1a8af4" x="207.565289" y="241.216478" style="fill: #0000ff; stroke: #0000ff"/>
     <use xlink:href="#m7d7d1a8af4" x="210.639669" y="239.50306" style="fill: #0000ff; stroke: #0000ff"/>
     <use xlink:href="#m7d7d1a8af4" x="213.71405" y="238.700884" style="fill: #0000ff; stroke: #0000ff"/>
     <use xlink:href="#m7d7d1a8af4" x="216.78843" y="237.652719" style="fill: #0000ff; stroke: #0000ff"/>
     <use xlink:href="#m7d7d1a8af4" x="219.86281" y="239.753682" style="fill: #0000ff; stroke: #0000ff"/>
     <use xlink:href="#m7d7d1a8af4" x="222.93719" y="232.50948" style="fill: #0000ff; stroke: #0000ff"/>
     <use xlink:href="#m7d7d1a8af4" x="226.01157" y="226.862961" style="fill: #0000ff; stroke: #0000ff"/>
     <use xlink:href="#m7d7d1a8af4" x="229.08595" y="238.662582" style="fill: #0000ff; stroke: #0000ff"/>
     <use xlink:href="#m7d7d1a8af4" x="232.160331" y="240.075959" style="fill: #0000ff; stroke: #0000ff"/>
     <use xlink:href="#m7d7d1a8af4" x="235.234711" y="240.786807" style="fill: #0000ff; stroke: #0000ff"/>
     <use xlink:href="#m7d7d1a8af4" x="238.309091" y="241.043648" style="fill: #0000ff; stroke: #0000ff"/>
     <use xlink:href="#m7d7d1a8af4" x="241.383471" y="240.463684" style="fill: #0000ff; stroke: #0000ff"/>
     <use xlink:href="#m7d7d1a8af4" x="244.457851" y="241.236784" style="fill: #0000ff; stroke: #0000ff"/>
     <use xlink:href="#m7d7d1a8af4" x="247.532231" y="240.884026" style="fill: #0000ff; stroke: #0000ff"/>
     <use xlink:href="#m7d7d1a8af4" x="250.606612" y="239.359669" style="fill: #0000ff; stroke: #0000ff"/>
     <use xlink:href="#m7d7d1a8af4" x="253.680992" y="239.835068" style="fill: #0000ff; stroke: #0000ff"/>
     <use xlink:href="#m7d7d1a8af4" x="256.755372" y="239.13379" style="fill: #0000ff; stroke: #0000ff"/>
     <use xlink:href="#m7d7d1a8af4" x="259.829752" y="239.904246" style="fill: #0000ff; stroke: #0000ff"/>
     <use xlink:href="#m7d7d1a8af4" x="262.904132" y="239.516866" style="fill: #0000ff; stroke: #0000ff"/>
     <use xlink:href="#m7d7d1a8af4" x="265.978512" y="238.662053" style="fill: #0000ff; stroke: #0000ff"/>
     <use xlink:href="#m7d7d1a8af4" x="269.052893" y="237.262586" style="fill: #0000ff; stroke: #0000ff"/>
     <use xlink:href="#m7d7d1a8af4" x="272.127273" y="234.569683" style="fill: #0000ff; stroke: #0000ff"/>
     <use xlink:href="#m7d7d1a8af4" x="275.201653" y="240.489263" style="fill: #0000ff; stroke: #0000ff"/>
     <use xlink:href="#m7d7d1a8af4" x="278.276033" y="240.349655" style="fill: #0000ff; stroke: #0000ff"/>
     <use xlink:href="#m7d7d1a8af4" x="281.350413" y="238.795733" style="fill: #0000ff; stroke: #0000ff"/>
     <use xlink:href="#m7d7d1a8af4" x="284.424793" y="239.688352" style="fill: #0000ff; stroke: #0000ff"/>
     <use xlink:href="#m7d7d1a8af4" x="287.499174" y="239.924585" style="fill: #0000ff; stroke: #0000ff"/>
     <use xlink:href="#m7d7d1a8af4" x="290.573554" y="240.345213" style="fill: #0000ff; stroke: #0000ff"/>
     <use xlink:href="#m7d7d1a8af4" x="293.647934" y="238.113514" style="fill: #0000ff; stroke: #0000ff"/>
     <use xlink:href="#m7d7d1a8af4" x="296.722314" y="240.820887" style="fill: #0000ff; stroke: #0000ff"/>
     <use xlink:href="#m7d7d1a8af4" x="299.796694" y="241.929085" style="fill: #0000ff; stroke: #0000ff"/>
     <use xlink:href="#m7d7d1a8af4" x="302.871074" y="241.70586" style="fill: #0000ff; stroke: #0000ff"/>
     <use xlink:href="#m7d7d1a8af4" x="305.945455" y="239.366847" style="fill: #0000ff; stroke: #0000ff"/>
     <use xlink:href="#m7d7d1a8af4" x="309.019835" y="239.845233" style="fill: #0000ff; stroke: #0000ff"/>
     <use xlink:href="#m7d7d1a8af4" x="312.094215" y="235.868876" style="fill: #0000ff; stroke: #0000ff"/>
     <use xlink:href="#m7d7d1a8af4" x="315.168595" y="235.929636" style="fill: #0000ff; stroke: #0000ff"/>
     <use xlink:href="#m7d7d1a8af4" x="318.242975" y="239.189135" style="fill: #0000ff; stroke: #0000ff"/>
     <use xlink:href="#m7d7d1a8af4" x="321.317355" y="240.800037" style="fill: #0000ff; stroke: #0000ff"/>
     <use xlink:href="#m7d7d1a8af4" x="324.391736" y="241.558017" style="fill: #0000ff; stroke: #0000ff"/>
     <use xlink:href="#m7d7d1a8af4" x="327.466116" y="241.85979" style="fill: #0000ff; stroke: #0000ff"/>
     <use xlink:href="#m7d7d1a8af4" x="330.540496" y="241.293347" style="fill: #0000ff; stroke: #0000ff"/>
     <use xlink:href="#m7d7d1a8af4" x="333.614876" y="240.642958" style="fill: #0000ff; stroke: #0000ff"/>
     <use xlink:href="#m7d7d1a8af4" x="336.689256" y="242.116364" style="fill: #0000ff; stroke: #0000ff"/>
     <use xlink:href="#m7d7d1a8af4" x="339.763636" y="239.340388" style="fill: #0000ff; stroke: #0000ff"/>
     <use xlink:href="#m7d7d1a8af4" x="342.838017" y="237.982467" style="fill: #0000ff; stroke: #0000ff"/>
     <use xlink:href="#m7d7d1a8af4" x="345.912397" y="237.092841" style="fill: #0000ff; stroke: #0000ff"/>
     <use xlink:href="#m7d7d1a8af4" x="348.986777" y="236.522415" style="fill: #0000ff; stroke: #0000ff"/>
     <use xlink:href="#m7d7d1a8af4" x="352.061157" y="240.891902" style="fill: #0000ff; stroke: #0000ff"/>
     <use xlink:href="#m7d7d1a8af4" x="355.135537" y="241.968383" style="fill: #0000ff; stroke: #0000ff"/>
     <use xlink:href="#m7d7d1a8af4" x="358.209917" y="241.76061" style="fill: #0000ff; stroke: #0000ff"/>
     <use xlink:href="#m7d7d1a8af4" x="361.284298" y="240.98771" style="fill: #0000ff; stroke: #0000ff"/>
     <use xlink:href="#m7d7d1a8af4" x="364.358678" y="236.468124" style="fill: #0000ff; stroke: #0000ff"/>
     <use xlink:href="#m7d7d1a8af4" x="367.433058" y="239.1958" style="fill: #0000ff; stroke: #0000ff"/>
     <use xlink:href="#m7d7d1a8af4" x="370.507438" y="241.475893" style="fill: #0000ff; stroke: #0000ff"/>
     <use xlink:href="#m7d7d1a8af4" x="373.581818" y="236.264054" style="fill: #0000ff; stroke: #0000ff"/>
    </g>
   </g>
   <g id="line2d_14">
    <path d="M 69.218182 127.013333 
L 72.292562 178.675196 
L 75.366942 171.0791 
L 78.441322 193.149374 
L 81.515702 205.449546 
L 84.590083 209.796894 
L 87.664463 209.016432 
L 90.738843 210.632818 
L 93.813223 210.327424 
L 96.887603 213.82801 
L 99.961983 212.578507 
L 103.036364 217.098423 
L 106.110744 215.769363 
L 109.185124 215.037794 
L 112.259504 210.847871 
L 115.333884 205.727812 
L 118.408264 220.5691 
L 121.482645 211.966869 
L 124.557025 217.678187 
L 127.631405 196.331698 
L 130.705785 220.074307 
L 133.780165 220.238966 
L 136.854545 209.722407 
L 139.928926 221.938727 
L 143.003306 221.821551 
L 146.077686 214.852299 
L 149.152066 214.184737 
L 152.226446 216.674746 
L 155.300826 218.751052 
L 158.375207 221.684216 
L 161.449587 219.635788 
L 164.523967 226.041695 
L 167.598347 223.685224 
L 170.672727 222.503381 
L 173.747107 212.437453 
L 176.821488 221.912947 
L 179.895868 224.408204 
L 182.970248 215.294983 
L 186.044628 216.880686 
L 189.119008 202.352375 
L 192.193388 224.582466 
L 195.267769 223.12157 
L 198.342149 225.202342 
L 201.416529 222.900784 
L 204.490909 225.90562 
L 207.565289 224.650931 
L 210.639669 223.396354 
L 213.71405 221.50359 
L 216.78843 222.279009 
L 219.86281 222.156924 
L 222.93719 217.655418 
L 226.01157 225.920592 
L 229.08595 222.542463 
L 232.160331 223.014677 
L 235.234711 224.037735 
L 238.309091 220.833884 
L 241.383471 220.287634 
L 244.457851 223.316287 
L 247.532231 225.005868 
L 250.606612 216.85655 
L 253.680992 220.58817 
L 256.755372 219.251271 
L 259.829752 215.668659 
L 262.904132 221.556712 
L 265.978512 222.146596 
L 269.052893 220.528159 
L 272.127273 216.174123 
L 275.201653 221.680486 
L 278.276033 221.299514 
L 281.350413 210.329269 
L 284.424793 220.291201 
L 287.499174 217.584587 
L 290.573554 220.254761 
L 293.647934 216.354365 
L 296.722314 219.8248 
L 299.796694 216.088192 
L 302.871074 215.521302 
L 305.945455 214.100584 
L 309.019835 209.315018 
L 312.094215 209.954911 
L 315.168595 201.335494 
L 318.242975 208.141547 
L 321.317355 212.905432 
L 324.391736 223.102783 
L 327.466116 200.686231 
L 330.540496 202.905094 
L 333.614876 223.118601 
L 336.689256 222.365078 
L 339.763636 164.720233 
L 342.838017 218.07134 
L 345.912397 178.723701 
L 348.986777 218.987327 
L 352.061157 218.147824 
L 355.135537 220.664243 
L 358.209917 212.474793 
L 361.284298 220.922646 
L 364.358678 218.443912 
L 367.433058 217.996836 
L 370.507438 217.71578 
L 373.581818 220.312953 
" clip-path="url(#ped6b626d8a)" style="fill: none; stroke: #0000ff; stroke-width: 1.5; stroke-linecap: square"/>
   </g>
   <g id="patch_3">
    <path d="M 54 252 
L 54 34.56 
" style="fill: none; stroke: #000000; stroke-width: 0.8; stroke-linejoin: miter; stroke-linecap: square"/>
   </g>
   <g id="patch_4">
    <path d="M 388.8 252 
L 388.8 34.56 
" style="fill: none; stroke: #000000; stroke-width: 0.8; stroke-linejoin: miter; stroke-linecap: square"/>
   </g>
   <g id="patch_5">
    <path d="M 54 252 
L 388.8 252 
" style="fill: none; stroke: #000000; stroke-width: 0.8; stroke-linejoin: miter; stroke-linecap: square"/>
   </g>
   <g id="patch_6">
    <path d="M 54 34.56 
L 388.8 34.56 
" style="fill: none; stroke: #000000; stroke-width: 0.8; stroke-linejoin: miter; stroke-linecap: square"/>
   </g>
   <g id="text_13">
    <!-- Training and validation loss -->
    <g transform="translate(139.59 28.56)scale(0.12 -0.12)">
     <defs>
      <path id="DejaVuSans-54" d="M -19 4666 
L 3928 4666 
L 3928 4134 
L 2272 4134 
L 2272 0 
L 1638 0 
L 1638 4134 
L -19 4134 
L -19 4666 
z
" transform="scale(0.015625)"/>
      <path id="DejaVuSans-72" d="M 2631 2963 
Q 2534 3019 2420 3045 
Q 2306 3072 2169 3072 
Q 1681 3072 1420 2755 
Q 1159 2438 1159 1844 
L 1159 0 
L 581 0 
L 581 3500 
L 1159 3500 
L 1159 2956 
Q 1341 3275 1631 3429 
Q 1922 3584 2338 3584 
Q 2397 3584 2469 3576 
Q 2541 3569 2628 3553 
L 2631 2963 
z
" transform="scale(0.015625)"/>
      <path id="DejaVuSans-61" d="M 2194 1759 
Q 1497 1759 1228 1600 
Q 959 1441 959 1056 
Q 959 750 1161 570 
Q 1363 391 1709 391 
Q 2188 391 2477 730 
Q 2766 1069 2766 1631 
L 2766 1759 
L 2194 1759 
z
M 3341 1997 
L 3341 0 
L 2766 0 
L 2766 531 
Q 2569 213 2275 61 
Q 1981 -91 1556 -91 
Q 1019 -91 701 211 
Q 384 513 384 1019 
Q 384 1609 779 1909 
Q 1175 2209 1959 2209 
L 2766 2209 
L 2766 2266 
Q 2766 2663 2505 2880 
Q 2244 3097 1772 3097 
Q 1472 3097 1187 3025 
Q 903 2953 641 2809 
L 641 3341 
Q 956 3463 1253 3523 
Q 1550 3584 1831 3584 
Q 2591 3584 2966 3190 
Q 3341 2797 3341 1997 
z
" transform="scale(0.015625)"/>
      <path id="DejaVuSans-69" d="M 603 3500 
L 1178 3500 
L 1178 0 
L 603 0 
L 603 3500 
z
M 603 4863 
L 1178 4863 
L 1178 4134 
L 603 4134 
L 603 4863 
z
" transform="scale(0.015625)"/>
      <path id="DejaVuSans-6e" d="M 3513 2113 
L 3513 0 
L 2938 0 
L 2938 2094 
Q 2938 2591 2744 2837 
Q 2550 3084 2163 3084 
Q 1697 3084 1428 2787 
Q 1159 2491 1159 1978 
L 1159 0 
L 581 0 
L 581 3500 
L 1159 3500 
L 1159 2956 
Q 1366 3272 1645 3428 
Q 1925 3584 2291 3584 
Q 2894 3584 3203 3211 
Q 3513 2838 3513 2113 
z
" transform="scale(0.015625)"/>
      <path id="DejaVuSans-67" d="M 2906 1791 
Q 2906 2416 2648 2759 
Q 2391 3103 1925 3103 
Q 1463 3103 1205 2759 
Q 947 2416 947 1791 
Q 947 1169 1205 825 
Q 1463 481 1925 481 
Q 2391 481 2648 825 
Q 2906 1169 2906 1791 
z
M 3481 434 
Q 3481 -459 3084 -895 
Q 2688 -1331 1869 -1331 
Q 1566 -1331 1297 -1286 
Q 1028 -1241 775 -1147 
L 775 -588 
Q 1028 -725 1275 -790 
Q 1522 -856 1778 -856 
Q 2344 -856 2625 -561 
Q 2906 -266 2906 331 
L 2906 616 
Q 2728 306 2450 153 
Q 2172 0 1784 0 
Q 1141 0 747 490 
Q 353 981 353 1791 
Q 353 2603 747 3093 
Q 1141 3584 1784 3584 
Q 2172 3584 2450 3431 
Q 2728 3278 2906 2969 
L 2906 3500 
L 3481 3500 
L 3481 434 
z
" transform="scale(0.015625)"/>
      <path id="DejaVuSans-20" transform="scale(0.015625)"/>
      <path id="DejaVuSans-64" d="M 2906 2969 
L 2906 4863 
L 3481 4863 
L 3481 0 
L 2906 0 
L 2906 525 
Q 2725 213 2448 61 
Q 2172 -91 1784 -91 
Q 1150 -91 751 415 
Q 353 922 353 1747 
Q 353 2572 751 3078 
Q 1150 3584 1784 3584 
Q 2172 3584 2448 3432 
Q 2725 3281 2906 2969 
z
M 947 1747 
Q 947 1113 1208 752 
Q 1469 391 1925 391 
Q 2381 391 2643 752 
Q 2906 1113 2906 1747 
Q 2906 2381 2643 2742 
Q 2381 3103 1925 3103 
Q 1469 3103 1208 2742 
Q 947 2381 947 1747 
z
" transform="scale(0.015625)"/>
      <path id="DejaVuSans-76" d="M 191 3500 
L 800 3500 
L 1894 563 
L 2988 3500 
L 3597 3500 
L 2284 0 
L 1503 0 
L 191 3500 
z
" transform="scale(0.015625)"/>
      <path id="DejaVuSans-6c" d="M 603 4863 
L 1178 4863 
L 1178 0 
L 603 0 
L 603 4863 
z
" transform="scale(0.015625)"/>
      <path id="DejaVuSans-74" d="M 1172 4494 
L 1172 3500 
L 2356 3500 
L 2356 3053 
L 1172 3053 
L 1172 1153 
Q 1172 725 1289 603 
Q 1406 481 1766 481 
L 2356 481 
L 2356 0 
L 1766 0 
Q 1100 0 847 248 
Q 594 497 594 1153 
L 594 3053 
L 172 3053 
L 172 3500 
L 594 3500 
L 594 4494 
L 1172 4494 
z
" transform="scale(0.015625)"/>
      <path id="DejaVuSans-6f" d="M 1959 3097 
Q 1497 3097 1228 2736 
Q 959 2375 959 1747 
Q 959 1119 1226 758 
Q 1494 397 1959 397 
Q 2419 397 2687 759 
Q 2956 1122 2956 1747 
Q 2956 2369 2687 2733 
Q 2419 3097 1959 3097 
z
M 1959 3584 
Q 2709 3584 3137 3096 
Q 3566 2609 3566 1747 
Q 3566 888 3137 398 
Q 2709 -91 1959 -91 
Q 1206 -91 779 398 
Q 353 888 353 1747 
Q 353 2609 779 3096 
Q 1206 3584 1959 3584 
z
" transform="scale(0.015625)"/>
      <path id="DejaVuSans-73" d="M 2834 3397 
L 2834 2853 
Q 2591 2978 2328 3040 
Q 2066 3103 1784 3103 
Q 1356 3103 1142 2972 
Q 928 2841 928 2578 
Q 928 2378 1081 2264 
Q 1234 2150 1697 2047 
L 1894 2003 
Q 2506 1872 2764 1633 
Q 3022 1394 3022 966 
Q 3022 478 2636 193 
Q 2250 -91 1575 -91 
Q 1294 -91 989 -36 
Q 684 19 347 128 
L 347 722 
Q 666 556 975 473 
Q 1284 391 1588 391 
Q 1994 391 2212 530 
Q 2431 669 2431 922 
Q 2431 1156 2273 1281 
Q 2116 1406 1581 1522 
L 1381 1569 
Q 847 1681 609 1914 
Q 372 2147 372 2553 
Q 372 3047 722 3315 
Q 1072 3584 1716 3584 
Q 2034 3584 2315 3537 
Q 2597 3491 2834 3397 
z
" transform="scale(0.015625)"/>
     </defs>
     <use xlink:href="#DejaVuSans-54"/>
     <use xlink:href="#DejaVuSans-72" x="46.333984"/>
     <use xlink:href="#DejaVuSans-61" x="87.447266"/>
     <use xlink:href="#DejaVuSans-69" x="148.726562"/>
     <use xlink:href="#DejaVuSans-6e" x="176.509766"/>
     <use xlink:href="#DejaVuSans-69" x="239.888672"/>
     <use xlink:href="#DejaVuSans-6e" x="267.671875"/>
     <use xlink:href="#DejaVuSans-67" x="331.050781"/>
     <use xlink:href="#DejaVuSans-20" x="394.527344"/>
     <use xlink:href="#DejaVuSans-61" x="426.314453"/>
     <use xlink:href="#DejaVuSans-6e" x="487.59375"/>
     <use xlink:href="#DejaVuSans-64" x="550.972656"/>
     <use xlink:href="#DejaVuSans-20" x="614.449219"/>
     <use xlink:href="#DejaVuSans-76" x="646.236328"/>
     <use xlink:href="#DejaVuSans-61" x="705.416016"/>
     <use xlink:href="#DejaVuSans-6c" x="766.695312"/>
     <use xlink:href="#DejaVuSans-69" x="794.478516"/>
     <use xlink:href="#DejaVuSans-64" x="822.261719"/>
     <use xlink:href="#DejaVuSans-61" x="885.738281"/>
     <use xlink:href="#DejaVuSans-74" x="947.017578"/>
     <use xlink:href="#DejaVuSans-69" x="986.226562"/>
     <use xlink:href="#DejaVuSans-6f" x="1014.009766"/>
     <use xlink:href="#DejaVuSans-6e" x="1075.191406"/>
     <use xlink:href="#DejaVuSans-20" x="1138.570312"/>
     <use xlink:href="#DejaVuSans-6c" x="1170.357422"/>
     <use xlink:href="#DejaVuSans-6f" x="1198.140625"/>
     <use xlink:href="#DejaVuSans-73" x="1259.322266"/>
     <use xlink:href="#DejaVuSans-73" x="1311.421875"/>
    </g>
   </g>
   <g id="legend_1">
    <g id="patch_7">
     <path d="M 275.30625 71.91625 
L 381.8 71.91625 
Q 383.8 71.91625 383.8 69.91625 
L 383.8 41.56 
Q 383.8 39.56 381.8 39.56 
L 275.30625 39.56 
Q 273.30625 39.56 273.30625 41.56 
L 273.30625 69.91625 
Q 273.30625 71.91625 275.30625 71.91625 
z
" style="fill: #ffffff; opacity: 0.8; stroke: #cccccc; stroke-linejoin: miter"/>
    </g>
    <g id="line2d_15">
     <g>
      <use xlink:href="#m7d7d1a8af4" x="287.30625" y="47.658437" style="fill: #0000ff; stroke: #0000ff"/>
     </g>
    </g>
    <g id="text_14">
     <!-- Training Loss -->
     <g transform="translate(305.30625 51.158437)scale(0.1 -0.1)">
      <defs>
       <path id="DejaVuSans-4c" d="M 628 4666 
L 1259 4666 
L 1259 531 
L 3531 531 
L 3531 0 
L 628 0 
L 628 4666 
z
" transform="scale(0.015625)"/>
      </defs>
      <use xlink:href="#DejaVuSans-54"/>
      <use xlink:href="#DejaVuSans-72" x="46.333984"/>
      <use xlink:href="#DejaVuSans-61" x="87.447266"/>
      <use xlink:href="#DejaVuSans-69" x="148.726562"/>
      <use xlink:href="#DejaVuSans-6e" x="176.509766"/>
      <use xlink:href="#DejaVuSans-69" x="239.888672"/>
      <use xlink:href="#DejaVuSans-6e" x="267.671875"/>
      <use xlink:href="#DejaVuSans-67" x="331.050781"/>
      <use xlink:href="#DejaVuSans-20" x="394.527344"/>
      <use xlink:href="#DejaVuSans-4c" x="426.314453"/>
      <use xlink:href="#DejaVuSans-6f" x="480.277344"/>
      <use xlink:href="#DejaVuSans-73" x="541.458984"/>
      <use xlink:href="#DejaVuSans-73" x="593.558594"/>
     </g>
    </g>
    <g id="line2d_16">
     <path d="M 277.30625 62.336562 
L 287.30625 62.336562 
L 297.30625 62.336562 
" style="fill: none; stroke: #0000ff; stroke-width: 1.5; stroke-linecap: square"/>
    </g>
    <g id="text_15">
     <!-- Validation Loss -->
     <g transform="translate(305.30625 65.836562)scale(0.1 -0.1)">
      <defs>
       <path id="DejaVuSans-56" d="M 1831 0 
L 50 4666 
L 709 4666 
L 2188 738 
L 3669 4666 
L 4325 4666 
L 2547 0 
L 1831 0 
z
" transform="scale(0.015625)"/>
      </defs>
      <use xlink:href="#DejaVuSans-56"/>
      <use xlink:href="#DejaVuSans-61" x="60.658203"/>
      <use xlink:href="#DejaVuSans-6c" x="121.9375"/>
      <use xlink:href="#DejaVuSans-69" x="149.720703"/>
      <use xlink:href="#DejaVuSans-64" x="177.503906"/>
      <use xlink:href="#DejaVuSans-61" x="240.980469"/>
      <use xlink:href="#DejaVuSans-74" x="302.259766"/>
      <use xlink:href="#DejaVuSans-69" x="341.46875"/>
      <use xlink:href="#DejaVuSans-6f" x="369.251953"/>
      <use xlink:href="#DejaVuSans-6e" x="430.433594"/>
      <use xlink:href="#DejaVuSans-20" x="493.8125"/>
      <use xlink:href="#DejaVuSans-4c" x="525.599609"/>
      <use xlink:href="#DejaVuSans-6f" x="579.5625"/>
      <use xlink:href="#DejaVuSans-73" x="640.744141"/>
      <use xlink:href="#DejaVuSans-73" x="692.84375"/>
     </g>
    </g>
   </g>
  </g>
 </g>
 <defs>
  <clipPath id="ped6b626d8a">
   <rect x="54" y="34.56" width="334.8" height="217.44"/>
  </clipPath>
 </defs>
</svg>
