<?xml version="1.0" encoding="utf-8" standalone="no"?>
<!DOCTYPE svg PUBLIC "-//W3C//DTD SVG 1.1//EN"
  "http://www.w3.org/Graphics/SVG/1.1/DTD/svg11.dtd">
<svg xmlns:xlink="http://www.w3.org/1999/xlink" width="432pt" height="288pt" viewBox="0 0 432 288" xmlns="http://www.w3.org/2000/svg" version="1.1">
 <metadata>
  <rdf:RDF xmlns:dc="http://purl.org/dc/elements/1.1/" xmlns:cc="http://creativecommons.org/ns#" xmlns:rdf="http://www.w3.org/1999/02/22-rdf-syntax-ns#">
   <cc:Work>
    <dc:type rdf:resource="http://purl.org/dc/dcmitype/StillImage"/>
    <dc:date>2022-07-22T13:41:06.868021</dc:date>
    <dc:format>image/svg+xml</dc:format>
    <dc:creator>
     <cc:Agent>
      <dc:title>Matplotlib v3.5.2, https://matplotlib.org/</dc:title>
     </cc:Agent>
    </dc:creator>
   </cc:Work>
  </rdf:RDF>
 </metadata>
 <defs>
  <style type="text/css">*{stroke-linejoin: round; stroke-linecap: butt}</style>
 </defs>
 <g id="figure_1">
  <g id="patch_1">
   <path d="M 0 288 
L 432 288 
L 432 0 
L 0 0 
L 0 288 
z
" style="fill: none"/>
  </g>
  <g id="axes_1">
   <g id="patch_2">
    <path d="M 54 252 
L 388.8 252 
L 388.8 34.56 
L 54 34.56 
z
" style="fill: #ffffff"/>
   </g>
   <g id="matplotlib.axis_1">
    <g id="xtick_1">
     <g id="line2d_1">
      <defs>
       <path id="md8267da087" d="M 0 0 
L 0 3.5 
" style="stroke: #000000; stroke-width: 0.8"/>
      </defs>
      <g>
       <use xlink:href="#md8267da087" x="69.218182" y="252" style="stroke: #000000; stroke-width: 0.8"/>
      </g>
     </g>
     <g id="text_1">
      <!-- 0 -->
      <g transform="translate(66.036932 266.598437)scale(0.1 -0.1)">
       <defs>
        <path id="DejaVuSans-30" d="M 2034 4250 
Q 1547 4250 1301 3770 
Q 1056 3291 1056 2328 
Q 1056 1369 1301 889 
Q 1547 409 2034 409 
Q 2525 409 2770 889 
Q 3016 1369 3016 2328 
Q 3016 3291 2770 3770 
Q 2525 4250 2034 4250 
z
M 2034 4750 
Q 2819 4750 3233 4129 
Q 3647 3509 3647 2328 
Q 3647 1150 3233 529 
Q 2819 -91 2034 -91 
Q 1250 -91 836 529 
Q 422 1150 422 2328 
Q 422 3509 836 4129 
Q 1250 4750 2034 4750 
z
" transform="scale(0.015625)"/>
       </defs>
       <use xlink:href="#DejaVuSans-30"/>
      </g>
     </g>
    </g>
    <g id="xtick_2">
     <g id="line2d_2">
      <g>
       <use xlink:href="#md8267da087" x="130.705785" y="252" style="stroke: #000000; stroke-width: 0.8"/>
      </g>
     </g>
     <g id="text_2">
      <!-- 20 -->
      <g transform="translate(124.343285 266.598437)scale(0.1 -0.1)">
       <defs>
        <path id="DejaVuSans-32" d="M 1228 531 
L 3431 531 
L 3431 0 
L 469 0 
L 469 531 
Q 828 903 1448 1529 
Q 2069 2156 2228 2338 
Q 2531 2678 2651 2914 
Q 2772 3150 2772 3378 
Q 2772 3750 2511 3984 
Q 2250 4219 1831 4219 
Q 1534 4219 1204 4116 
Q 875 4013 500 3803 
L 500 4441 
Q 881 4594 1212 4672 
Q 1544 4750 1819 4750 
Q 2544 4750 2975 4387 
Q 3406 4025 3406 3419 
Q 3406 3131 3298 2873 
Q 3191 2616 2906 2266 
Q 2828 2175 2409 1742 
Q 1991 1309 1228 531 
z
" transform="scale(0.015625)"/>
       </defs>
       <use xlink:href="#DejaVuSans-32"/>
       <use xlink:href="#DejaVuSans-30" x="63.623047"/>
      </g>
     </g>
    </g>
    <g id="xtick_3">
     <g id="line2d_3">
      <g>
       <use xlink:href="#md8267da087" x="192.193388" y="252" style="stroke: #000000; stroke-width: 0.8"/>
      </g>
     </g>
     <g id="text_3">
      <!-- 40 -->
      <g transform="translate(185.830888 266.598437)scale(0.1 -0.1)">
       <defs>
        <path id="DejaVuSans-34" d="M 2419 4116 
L 825 1625 
L 2419 1625 
L 2419 4116 
z
M 2253 4666 
L 3047 4666 
L 3047 1625 
L 3713 1625 
L 3713 1100 
L 3047 1100 
L 3047 0 
L 2419 0 
L 2419 1100 
L 313 1100 
L 313 1709 
L 2253 4666 
z
" transform="scale(0.015625)"/>
       </defs>
       <use xlink:href="#DejaVuSans-34"/>
       <use xlink:href="#DejaVuSans-30" x="63.623047"/>
      </g>
     </g>
    </g>
    <g id="xtick_4">
     <g id="line2d_4">
      <g>
       <use xlink:href="#md8267da087" x="253.680992" y="252" style="stroke: #000000; stroke-width: 0.8"/>
      </g>
     </g>
     <g id="text_4">
      <!-- 60 -->
      <g transform="translate(247.318492 266.598437)scale(0.1 -0.1)">
       <defs>
        <path id="DejaVuSans-36" d="M 2113 2584 
Q 1688 2584 1439 2293 
Q 1191 2003 1191 1497 
Q 1191 994 1439 701 
Q 1688 409 2113 409 
Q 2538 409 2786 701 
Q 3034 994 3034 1497 
Q 3034 2003 2786 2293 
Q 2538 2584 2113 2584 
z
M 3366 4563 
L 3366 3988 
Q 3128 4100 2886 4159 
Q 2644 4219 2406 4219 
Q 1781 4219 1451 3797 
Q 1122 3375 1075 2522 
Q 1259 2794 1537 2939 
Q 1816 3084 2150 3084 
Q 2853 3084 3261 2657 
Q 3669 2231 3669 1497 
Q 3669 778 3244 343 
Q 2819 -91 2113 -91 
Q 1303 -91 875 529 
Q 447 1150 447 2328 
Q 447 3434 972 4092 
Q 1497 4750 2381 4750 
Q 2619 4750 2861 4703 
Q 3103 4656 3366 4563 
z
" transform="scale(0.015625)"/>
       </defs>
       <use xlink:href="#DejaVuSans-36"/>
       <use xlink:href="#DejaVuSans-30" x="63.623047"/>
      </g>
     </g>
    </g>
    <g id="xtick_5">
     <g id="line2d_5">
      <g>
       <use xlink:href="#md8267da087" x="315.168595" y="252" style="stroke: #000000; stroke-width: 0.8"/>
      </g>
     </g>
     <g id="text_5">
      <!-- 80 -->
      <g transform="translate(308.806095 266.598437)scale(0.1 -0.1)">
       <defs>
        <path id="DejaVuSans-38" d="M 2034 2216 
Q 1584 2216 1326 1975 
Q 1069 1734 1069 1313 
Q 1069 891 1326 650 
Q 1584 409 2034 409 
Q 2484 409 2743 651 
Q 3003 894 3003 1313 
Q 3003 1734 2745 1975 
Q 2488 2216 2034 2216 
z
M 1403 2484 
Q 997 2584 770 2862 
Q 544 3141 544 3541 
Q 544 4100 942 4425 
Q 1341 4750 2034 4750 
Q 2731 4750 3128 4425 
Q 3525 4100 3525 3541 
Q 3525 3141 3298 2862 
Q 3072 2584 2669 2484 
Q 3125 2378 3379 2068 
Q 3634 1759 3634 1313 
Q 3634 634 3220 271 
Q 2806 -91 2034 -91 
Q 1263 -91 848 271 
Q 434 634 434 1313 
Q 434 1759 690 2068 
Q 947 2378 1403 2484 
z
M 1172 3481 
Q 1172 3119 1398 2916 
Q 1625 2713 2034 2713 
Q 2441 2713 2670 2916 
Q 2900 3119 2900 3481 
Q 2900 3844 2670 4047 
Q 2441 4250 2034 4250 
Q 1625 4250 1398 4047 
Q 1172 3844 1172 3481 
z
" transform="scale(0.015625)"/>
       </defs>
       <use xlink:href="#DejaVuSans-38"/>
       <use xlink:href="#DejaVuSans-30" x="63.623047"/>
      </g>
     </g>
    </g>
    <g id="xtick_6">
     <g id="line2d_6">
      <g>
       <use xlink:href="#md8267da087" x="376.656198" y="252" style="stroke: #000000; stroke-width: 0.8"/>
      </g>
     </g>
     <g id="text_6">
      <!-- 100 -->
      <g transform="translate(367.112448 266.598437)scale(0.1 -0.1)">
       <defs>
        <path id="DejaVuSans-31" d="M 794 531 
L 1825 531 
L 1825 4091 
L 703 3866 
L 703 4441 
L 1819 4666 
L 2450 4666 
L 2450 531 
L 3481 531 
L 3481 0 
L 794 0 
L 794 531 
z
" transform="scale(0.015625)"/>
       </defs>
       <use xlink:href="#DejaVuSans-31"/>
       <use xlink:href="#DejaVuSans-30" x="63.623047"/>
       <use xlink:href="#DejaVuSans-30" x="127.246094"/>
      </g>
     </g>
    </g>
   </g>
   <g id="matplotlib.axis_2">
    <g id="ytick_1">
     <g id="line2d_7">
      <defs>
       <path id="md159484754" d="M 0 0 
L -3.5 0 
" style="stroke: #000000; stroke-width: 0.8"/>
      </defs>
      <g>
       <use xlink:href="#md159484754" x="54" y="242.621275" style="stroke: #000000; stroke-width: 0.8"/>
      </g>
     </g>
     <g id="text_7">
      <!-- 0.0 -->
      <g transform="translate(31.096875 246.420494)scale(0.1 -0.1)">
       <defs>
        <path id="DejaVuSans-2e" d="M 684 794 
L 1344 794 
L 1344 0 
L 684 0 
L 684 794 
z
" transform="scale(0.015625)"/>
       </defs>
       <use xlink:href="#DejaVuSans-30"/>
       <use xlink:href="#DejaVuSans-2e" x="63.623047"/>
       <use xlink:href="#DejaVuSans-30" x="95.410156"/>
      </g>
     </g>
    </g>
    <g id="ytick_2">
     <g id="line2d_8">
      <g>
       <use xlink:href="#md159484754" x="54" y="208.96053" style="stroke: #000000; stroke-width: 0.8"/>
      </g>
     </g>
     <g id="text_8">
      <!-- 0.1 -->
      <g transform="translate(31.096875 212.759748)scale(0.1 -0.1)">
       <use xlink:href="#DejaVuSans-30"/>
       <use xlink:href="#DejaVuSans-2e" x="63.623047"/>
       <use xlink:href="#DejaVuSans-31" x="95.410156"/>
      </g>
     </g>
    </g>
    <g id="ytick_3">
     <g id="line2d_9">
      <g>
       <use xlink:href="#md159484754" x="54" y="175.299785" style="stroke: #000000; stroke-width: 0.8"/>
      </g>
     </g>
     <g id="text_9">
      <!-- 0.2 -->
      <g transform="translate(31.096875 179.099003)scale(0.1 -0.1)">
       <use xlink:href="#DejaVuSans-30"/>
       <use xlink:href="#DejaVuSans-2e" x="63.623047"/>
       <use xlink:href="#DejaVuSans-32" x="95.410156"/>
      </g>
     </g>
    </g>
    <g id="ytick_4">
     <g id="line2d_10">
      <g>
       <use xlink:href="#md159484754" x="54" y="141.639039" style="stroke: #000000; stroke-width: 0.8"/>
      </g>
     </g>
     <g id="text_10">
      <!-- 0.3 -->
      <g transform="translate(31.096875 145.438258)scale(0.1 -0.1)">
       <defs>
        <path id="DejaVuSans-33" d="M 2597 2516 
Q 3050 2419 3304 2112 
Q 3559 1806 3559 1356 
Q 3559 666 3084 287 
Q 2609 -91 1734 -91 
Q 1441 -91 1130 -33 
Q 819 25 488 141 
L 488 750 
Q 750 597 1062 519 
Q 1375 441 1716 441 
Q 2309 441 2620 675 
Q 2931 909 2931 1356 
Q 2931 1769 2642 2001 
Q 2353 2234 1838 2234 
L 1294 2234 
L 1294 2753 
L 1863 2753 
Q 2328 2753 2575 2939 
Q 2822 3125 2822 3475 
Q 2822 3834 2567 4026 
Q 2313 4219 1838 4219 
Q 1578 4219 1281 4162 
Q 984 4106 628 3988 
L 628 4550 
Q 988 4650 1302 4700 
Q 1616 4750 1894 4750 
Q 2613 4750 3031 4423 
Q 3450 4097 3450 3541 
Q 3450 3153 3228 2886 
Q 3006 2619 2597 2516 
z
" transform="scale(0.015625)"/>
       </defs>
       <use xlink:href="#DejaVuSans-30"/>
       <use xlink:href="#DejaVuSans-2e" x="63.623047"/>
       <use xlink:href="#DejaVuSans-33" x="95.410156"/>
      </g>
     </g>
    </g>
    <g id="ytick_5">
     <g id="line2d_11">
      <g>
       <use xlink:href="#md159484754" x="54" y="107.978294" style="stroke: #000000; stroke-width: 0.8"/>
      </g>
     </g>
     <g id="text_11">
      <!-- 0.4 -->
      <g transform="translate(31.096875 111.777513)scale(0.1 -0.1)">
       <use xlink:href="#DejaVuSans-30"/>
       <use xlink:href="#DejaVuSans-2e" x="63.623047"/>
       <use xlink:href="#DejaVuSans-34" x="95.410156"/>
      </g>
     </g>
    </g>
    <g id="ytick_6">
     <g id="line2d_12">
      <g>
       <use xlink:href="#md159484754" x="54" y="74.317549" style="stroke: #000000; stroke-width: 0.8"/>
      </g>
     </g>
     <g id="text_12">
      <!-- 0.5 -->
      <g transform="translate(31.096875 78.116768)scale(0.1 -0.1)">
       <defs>
        <path id="DejaVuSans-35" d="M 691 4666 
L 3169 4666 
L 3169 4134 
L 1269 4134 
L 1269 2991 
Q 1406 3038 1543 3061 
Q 1681 3084 1819 3084 
Q 2600 3084 3056 2656 
Q 3513 2228 3513 1497 
Q 3513 744 3044 326 
Q 2575 -91 1722 -91 
Q 1428 -91 1123 -41 
Q 819 9 494 109 
L 494 744 
Q 775 591 1075 516 
Q 1375 441 1709 441 
Q 2250 441 2565 725 
Q 2881 1009 2881 1497 
Q 2881 1984 2565 2268 
Q 2250 2553 1709 2553 
Q 1456 2553 1204 2497 
Q 953 2441 691 2322 
L 691 4666 
z
" transform="scale(0.015625)"/>
       </defs>
       <use xlink:href="#DejaVuSans-30"/>
       <use xlink:href="#DejaVuSans-2e" x="63.623047"/>
       <use xlink:href="#DejaVuSans-35" x="95.410156"/>
      </g>
     </g>
    </g>
    <g id="ytick_7">
     <g id="line2d_13">
      <g>
       <use xlink:href="#md159484754" x="54" y="40.656804" style="stroke: #000000; stroke-width: 0.8"/>
      </g>
     </g>
     <g id="text_13">
      <!-- 0.6 -->
      <g transform="translate(31.096875 44.456023)scale(0.1 -0.1)">
       <use xlink:href="#DejaVuSans-30"/>
       <use xlink:href="#DejaVuSans-2e" x="63.623047"/>
       <use xlink:href="#DejaVuSans-36" x="95.410156"/>
      </g>
     </g>
    </g>
   </g>
   <g id="line2d_14">
    <defs>
     <path id="m45cb6b896e" d="M 0 3 
C 0.795609 3 1.55874 2.683901 2.12132 2.12132 
C 2.683901 1.55874 3 0.795609 3 0 
C 3 -0.795609 2.683901 -1.55874 2.12132 -2.12132 
C 1.55874 -2.683901 0.795609 -3 0 -3 
C -0.795609 -3 -1.55874 -2.683901 -2.12132 -2.12132 
C -2.683901 -1.55874 -3 -0.795609 -3 0 
C -3 0.795609 -2.683901 1.55874 -2.12132 2.12132 
C -1.55874 2.683901 -0.795609 3 0 3 
z
" style="stroke: #0000ff"/>
    </defs>
    <g clip-path="url(#p2ac4e26734)">
     <use xlink:href="#m45cb6b896e" x="69.218182" y="240.138795" style="fill: #0000ff; stroke: #0000ff"/>
     <use xlink:href="#m45cb6b896e" x="72.292562" y="231.387" style="fill: #0000ff; stroke: #0000ff"/>
     <use xlink:href="#m45cb6b896e" x="75.366942" y="215.692677" style="fill: #0000ff; stroke: #0000ff"/>
     <use xlink:href="#m45cb6b896e" x="78.441322" y="221.625385" style="fill: #0000ff; stroke: #0000ff"/>
     <use xlink:href="#m45cb6b896e" x="81.515702" y="206.688428" style="fill: #0000ff; stroke: #0000ff"/>
     <use xlink:href="#m45cb6b896e" x="84.590083" y="196.295671" style="fill: #0000ff; stroke: #0000ff"/>
     <use xlink:href="#m45cb6b896e" x="87.664463" y="192.929595" style="fill: #0000ff; stroke: #0000ff"/>
     <use xlink:href="#m45cb6b896e" x="90.738843" y="193.939419" style="fill: #0000ff; stroke: #0000ff"/>
     <use xlink:href="#m45cb6b896e" x="93.813223" y="165.580241" style="fill: #0000ff; stroke: #0000ff"/>
     <use xlink:href="#m45cb6b896e" x="96.887603" y="160.11037" style="fill: #0000ff; stroke: #0000ff"/>
     <use xlink:href="#m45cb6b896e" x="99.961983" y="153.083692" style="fill: #0000ff; stroke: #0000ff"/>
     <use xlink:href="#m45cb6b896e" x="103.036364" y="144.289818" style="fill: #0000ff; stroke: #0000ff"/>
     <use xlink:href="#m45cb6b896e" x="106.110744" y="144.963034" style="fill: #0000ff; stroke: #0000ff"/>
     <use xlink:href="#m45cb6b896e" x="109.185124" y="155.019185" style="fill: #0000ff; stroke: #0000ff"/>
     <use xlink:href="#m45cb6b896e" x="112.259504" y="141.55488" style="fill: #0000ff; stroke: #0000ff"/>
     <use xlink:href="#m45cb6b896e" x="115.333884" y="135.916712" style="fill: #0000ff; stroke: #0000ff"/>
     <use xlink:href="#m45cb6b896e" x="118.408264" y="117.908205" style="fill: #0000ff; stroke: #0000ff"/>
     <use xlink:href="#m45cb6b896e" x="121.482645" y="119.212564" style="fill: #0000ff; stroke: #0000ff"/>
     <use xlink:href="#m45cb6b896e" x="124.557025" y="118.160662" style="fill: #0000ff; stroke: #0000ff"/>
     <use xlink:href="#m45cb6b896e" x="127.631405" y="125.061116" style="fill: #0000ff; stroke: #0000ff"/>
     <use xlink:href="#m45cb6b896e" x="130.705785" y="115.930639" style="fill: #0000ff; stroke: #0000ff"/>
     <use xlink:href="#m45cb6b896e" x="133.780165" y="115.173277" style="fill: #0000ff; stroke: #0000ff"/>
     <use xlink:href="#m45cb6b896e" x="136.854545" y="116.351398" style="fill: #0000ff; stroke: #0000ff"/>
     <use xlink:href="#m45cb6b896e" x="139.928926" y="110.12416" style="fill: #0000ff; stroke: #0000ff"/>
     <use xlink:href="#m45cb6b896e" x="143.003306" y="108.567353" style="fill: #0000ff; stroke: #0000ff"/>
     <use xlink:href="#m45cb6b896e" x="146.077686" y="105.03297" style="fill: #0000ff; stroke: #0000ff"/>
     <use xlink:href="#m45cb6b896e" x="149.152066" y="102.508416" style="fill: #0000ff; stroke: #0000ff"/>
     <use xlink:href="#m45cb6b896e" x="152.226446" y="103.812766" style="fill: #0000ff; stroke: #0000ff"/>
     <use xlink:href="#m45cb6b896e" x="155.300826" y="98.763659" style="fill: #0000ff; stroke: #0000ff"/>
     <use xlink:href="#m45cb6b896e" x="158.375207" y="97.627611" style="fill: #0000ff; stroke: #0000ff"/>
     <use xlink:href="#m45cb6b896e" x="161.449587" y="95.397588" style="fill: #0000ff; stroke: #0000ff"/>
     <use xlink:href="#m45cb6b896e" x="164.523967" y="93.462095" style="fill: #0000ff; stroke: #0000ff"/>
     <use xlink:href="#m45cb6b896e" x="167.598347" y="92.115662" style="fill: #0000ff; stroke: #0000ff"/>
     <use xlink:href="#m45cb6b896e" x="170.672727" y="91.484519" style="fill: #0000ff; stroke: #0000ff"/>
     <use xlink:href="#m45cb6b896e" x="173.747107" y="90.432627" style="fill: #0000ff; stroke: #0000ff"/>
     <use xlink:href="#m45cb6b896e" x="176.821488" y="90.390544" style="fill: #0000ff; stroke: #0000ff"/>
     <use xlink:href="#m45cb6b896e" x="179.895868" y="87.992219" style="fill: #0000ff; stroke: #0000ff"/>
     <use xlink:href="#m45cb6b896e" x="182.970248" y="98.3429" style="fill: #0000ff; stroke: #0000ff"/>
     <use xlink:href="#m45cb6b896e" x="186.044628" y="99.35272" style="fill: #0000ff; stroke: #0000ff"/>
     <use xlink:href="#m45cb6b896e" x="189.119008" y="98.174599" style="fill: #0000ff; stroke: #0000ff"/>
     <use xlink:href="#m45cb6b896e" x="192.193388" y="101.708972" style="fill: #0000ff; stroke: #0000ff"/>
     <use xlink:href="#m45cb6b896e" x="195.267769" y="98.469129" style="fill: #0000ff; stroke: #0000ff"/>
     <use xlink:href="#m45cb6b896e" x="198.342149" y="97.122696" style="fill: #0000ff; stroke: #0000ff"/>
     <use xlink:href="#m45cb6b896e" x="201.416529" y="96.659865" style="fill: #0000ff; stroke: #0000ff"/>
     <use xlink:href="#m45cb6b896e" x="204.490909" y="92.199808" style="fill: #0000ff; stroke: #0000ff"/>
     <use xlink:href="#m45cb6b896e" x="207.565289" y="85.593894" style="fill: #0000ff; stroke: #0000ff"/>
     <use xlink:href="#m45cb6b896e" x="210.639669" y="86.645786" style="fill: #0000ff; stroke: #0000ff"/>
     <use xlink:href="#m45cb6b896e" x="213.71405" y="85.67804" style="fill: #0000ff; stroke: #0000ff"/>
     <use xlink:href="#m45cb6b896e" x="216.78843" y="85.088979" style="fill: #0000ff; stroke: #0000ff"/>
     <use xlink:href="#m45cb6b896e" x="219.86281" y="83.237642" style="fill: #0000ff; stroke: #0000ff"/>
     <use xlink:href="#m45cb6b896e" x="222.93719" y="82.7748" style="fill: #0000ff; stroke: #0000ff"/>
     <use xlink:href="#m45cb6b896e" x="226.01157" y="80.755162" style="fill: #0000ff; stroke: #0000ff"/>
     <use xlink:href="#m45cb6b896e" x="229.08595" y="82.732728" style="fill: #0000ff; stroke: #0000ff"/>
     <use xlink:href="#m45cb6b896e" x="232.160331" y="83.237642" style="fill: #0000ff; stroke: #0000ff"/>
     <use xlink:href="#m45cb6b896e" x="235.234711" y="85.131052" style="fill: #0000ff; stroke: #0000ff"/>
     <use xlink:href="#m45cb6b896e" x="238.309091" y="84.584065" style="fill: #0000ff; stroke: #0000ff"/>
     <use xlink:href="#m45cb6b896e" x="241.383471" y="83.532172" style="fill: #0000ff; stroke: #0000ff"/>
     <use xlink:href="#m45cb6b896e" x="244.457851" y="80.334403" style="fill: #0000ff; stroke: #0000ff"/>
     <use xlink:href="#m45cb6b896e" x="247.532231" y="81.386295" style="fill: #0000ff; stroke: #0000ff"/>
     <use xlink:href="#m45cb6b896e" x="250.606612" y="80.755162" style="fill: #0000ff; stroke: #0000ff"/>
     <use xlink:href="#m45cb6b896e" x="253.680992" y="79.492885" style="fill: #0000ff; stroke: #0000ff"/>
     <use xlink:href="#m45cb6b896e" x="256.755372" y="78.062297" style="fill: #0000ff; stroke: #0000ff"/>
     <use xlink:href="#m45cb6b896e" x="259.829752" y="80.460631" style="fill: #0000ff; stroke: #0000ff"/>
     <use xlink:href="#m45cb6b896e" x="262.904132" y="81.807054" style="fill: #0000ff; stroke: #0000ff"/>
     <use xlink:href="#m45cb6b896e" x="265.978512" y="80.58686" style="fill: #0000ff; stroke: #0000ff"/>
     <use xlink:href="#m45cb6b896e" x="269.052893" y="80.039872" style="fill: #0000ff; stroke: #0000ff"/>
     <use xlink:href="#m45cb6b896e" x="272.127273" y="80.039872" style="fill: #0000ff; stroke: #0000ff"/>
     <use xlink:href="#m45cb6b896e" x="275.201653" y="81.807054" style="fill: #0000ff; stroke: #0000ff"/>
     <use xlink:href="#m45cb6b896e" x="278.276033" y="81.302149" style="fill: #0000ff; stroke: #0000ff"/>
     <use xlink:href="#m45cb6b896e" x="281.350413" y="89.17035" style="fill: #0000ff; stroke: #0000ff"/>
     <use xlink:href="#m45cb6b896e" x="284.424793" y="89.296569" style="fill: #0000ff; stroke: #0000ff"/>
     <use xlink:href="#m45cb6b896e" x="287.499174" y="88.118448" style="fill: #0000ff; stroke: #0000ff"/>
     <use xlink:href="#m45cb6b896e" x="290.573554" y="85.131052" style="fill: #0000ff; stroke: #0000ff"/>
     <use xlink:href="#m45cb6b896e" x="293.647934" y="84.584065" style="fill: #0000ff; stroke: #0000ff"/>
     <use xlink:href="#m45cb6b896e" x="296.722314" y="82.522353" style="fill: #0000ff; stroke: #0000ff"/>
     <use xlink:href="#m45cb6b896e" x="299.796694" y="83.069331" style="fill: #0000ff; stroke: #0000ff"/>
     <use xlink:href="#m45cb6b896e" x="302.871074" y="80.460631" style="fill: #0000ff; stroke: #0000ff"/>
     <use xlink:href="#m45cb6b896e" x="305.945455" y="79.871561" style="fill: #0000ff; stroke: #0000ff"/>
     <use xlink:href="#m45cb6b896e" x="309.019835" y="77.557392" style="fill: #0000ff; stroke: #0000ff"/>
     <use xlink:href="#m45cb6b896e" x="312.094215" y="76.210959" style="fill: #0000ff; stroke: #0000ff"/>
     <use xlink:href="#m45cb6b896e" x="315.168595" y="73.938853" style="fill: #0000ff; stroke: #0000ff"/>
     <use xlink:href="#m45cb6b896e" x="318.242975" y="76.168886" style="fill: #0000ff; stroke: #0000ff"/>
     <use xlink:href="#m45cb6b896e" x="321.317355" y="69.731264" style="fill: #0000ff; stroke: #0000ff"/>
     <use xlink:href="#m45cb6b896e" x="324.391736" y="70.951458" style="fill: #0000ff; stroke: #0000ff"/>
     <use xlink:href="#m45cb6b896e" x="327.466116" y="70.993551" style="fill: #0000ff; stroke: #0000ff"/>
     <use xlink:href="#m45cb6b896e" x="330.540496" y="70.530709" style="fill: #0000ff; stroke: #0000ff"/>
     <use xlink:href="#m45cb6b896e" x="333.614876" y="70.741093" style="fill: #0000ff; stroke: #0000ff"/>
     <use xlink:href="#m45cb6b896e" x="336.689256" y="69.689191" style="fill: #0000ff; stroke: #0000ff"/>
     <use xlink:href="#m45cb6b896e" x="339.763636" y="68.258613" style="fill: #0000ff; stroke: #0000ff"/>
     <use xlink:href="#m45cb6b896e" x="342.838017" y="68.384832" style="fill: #0000ff; stroke: #0000ff"/>
     <use xlink:href="#m45cb6b896e" x="345.912397" y="67.248783" style="fill: #0000ff; stroke: #0000ff"/>
     <use xlink:href="#m45cb6b896e" x="348.986777" y="65.902351" style="fill: #0000ff; stroke: #0000ff"/>
     <use xlink:href="#m45cb6b896e" x="352.061157" y="64.766303" style="fill: #0000ff; stroke: #0000ff"/>
     <use xlink:href="#m45cb6b896e" x="355.135537" y="62.999121" style="fill: #0000ff; stroke: #0000ff"/>
     <use xlink:href="#m45cb6b896e" x="358.209917" y="63.167413" style="fill: #0000ff; stroke: #0000ff"/>
     <use xlink:href="#m45cb6b896e" x="361.284298" y="62.704591" style="fill: #0000ff; stroke: #0000ff"/>
     <use xlink:href="#m45cb6b896e" x="364.358678" y="44.443636" style="fill: #0000ff; stroke: #0000ff"/>
     <use xlink:href="#m45cb6b896e" x="367.433058" y="51.259925" style="fill: #0000ff; stroke: #0000ff"/>
     <use xlink:href="#m45cb6b896e" x="370.507438" y="52.900887" style="fill: #0000ff; stroke: #0000ff"/>
     <use xlink:href="#m45cb6b896e" x="373.581818" y="52.185608" style="fill: #0000ff; stroke: #0000ff"/>
    </g>
   </g>
   <g id="line2d_15">
    <path d="M 69.218182 228.652065 
L 72.292562 242.116364 
L 75.366942 232.859658 
L 78.441322 215.187767 
L 81.515702 229.156976 
L 84.590083 209.970351 
L 87.664463 233.532873 
L 90.738843 203.574809 
L 93.813223 151.400646 
L 96.887603 126.323393 
L 99.961983 170.418973 
L 103.036364 114.20553 
L 106.110744 182.368539 
L 109.185124 128.511343 
L 112.259504 198.862303 
L 115.333884 112.01758 
L 118.408264 132.045726 
L 121.482645 147.697972 
L 124.557025 145.34172 
L 127.631405 118.076516 
L 130.705785 121.610889 
L 133.780165 121.274286 
L 136.854545 144.668504 
L 139.928926 115.888566 
L 143.003306 123.967141 
L 146.077686 119.086336 
L 149.152066 117.234988 
L 152.226446 106.63186 
L 155.300826 108.651499 
L 158.375207 112.522485 
L 161.449587 108.483197 
L 164.523967 106.968463 
L 167.598347 105.790342 
L 170.672727 109.156413 
L 173.747107 103.938995 
L 176.821488 105.117126 
L 179.895868 75.49567 
L 182.970248 116.898385 
L 186.044628 106.463558 
L 189.119008 114.20553 
L 192.193388 107.473378 
L 195.267769 107.136765 
L 198.342149 110.502846 
L 201.416529 108.81981 
L 204.490909 83.405944 
L 207.565289 104.443909 
L 210.639669 104.443909 
L 213.71405 102.255959 
L 216.78843 101.751054 
L 219.86281 102.087658 
L 222.93719 98.553275 
L 226.01157 99.226491 
L 229.08595 94.009082 
L 232.160331 104.948824 
L 235.234711 103.602392 
L 238.309091 99.226491 
L 241.383471 101.414441 
L 244.457851 98.721586 
L 247.532231 98.384973 
L 250.606612 95.018902 
L 253.680992 94.8506 
L 256.755372 99.226491 
L 259.829752 96.533636 
L 262.904132 92.830951 
L 265.978512 97.880068 
L 269.052893 97.543455 
L 272.127273 96.197023 
L 275.201653 92.326037 
L 278.276033 106.295247 
L 281.350413 107.809981 
L 284.424793 106.968463 
L 287.499174 104.107306 
L 290.573554 105.790342 
L 293.647934 104.612211 
L 296.722314 102.929175 
L 299.796694 97.375154 
L 302.871074 101.077838 
L 305.945455 104.443909 
L 309.019835 96.701937 
L 312.094215 100.068009 
L 315.168595 91.316217 
L 318.242975 94.177384 
L 321.317355 92.326037 
L 324.391736 91.147916 
L 327.466116 90.811303 
L 330.540496 92.66265 
L 333.614876 90.979614 
L 336.689256 89.46488 
L 339.763636 89.801483 
L 342.838017 88.455051 
L 345.912397 87.781844 
L 348.986777 85.930497 
L 352.061157 84.752376 
L 355.135537 85.088979 
L 358.209917 91.989434 
L 361.284298 78.020224 
L 364.358678 80.713079 
L 367.433058 85.930497 
L 370.507438 81.049692 
L 373.581818 79.534958 
" clip-path="url(#p2ac4e26734)" style="fill: none; stroke: #0000ff; stroke-width: 1.5; stroke-linecap: square"/>
   </g>
   <g id="patch_3">
    <path d="M 54 252 
L 54 34.56 
" style="fill: none; stroke: #000000; stroke-width: 0.8; stroke-linejoin: miter; stroke-linecap: square"/>
   </g>
   <g id="patch_4">
    <path d="M 388.8 252 
L 388.8 34.56 
" style="fill: none; stroke: #000000; stroke-width: 0.8; stroke-linejoin: miter; stroke-linecap: square"/>
   </g>
   <g id="patch_5">
    <path d="M 54 252 
L 388.8 252 
" style="fill: none; stroke: #000000; stroke-width: 0.8; stroke-linejoin: miter; stroke-linecap: square"/>
   </g>
   <g id="patch_6">
    <path d="M 54 34.56 
L 388.8 34.56 
" style="fill: none; stroke: #000000; stroke-width: 0.8; stroke-linejoin: miter; stroke-linecap: square"/>
   </g>
   <g id="text_14">
    <!-- Training and validation accuracy -->
    <g transform="translate(124.108125 28.56)scale(0.12 -0.12)">
     <defs>
      <path id="DejaVuSans-54" d="M -19 4666 
L 3928 4666 
L 3928 4134 
L 2272 4134 
L 2272 0 
L 1638 0 
L 1638 4134 
L -19 4134 
L -19 4666 
z
" transform="scale(0.015625)"/>
      <path id="DejaVuSans-72" d="M 2631 2963 
Q 2534 3019 2420 3045 
Q 2306 3072 2169 3072 
Q 1681 3072 1420 2755 
Q 1159 2438 1159 1844 
L 1159 0 
L 581 0 
L 581 3500 
L 1159 3500 
L 1159 2956 
Q 1341 3275 1631 3429 
Q 1922 3584 2338 3584 
Q 2397 3584 2469 3576 
Q 2541 3569 2628 3553 
L 2631 2963 
z
" transform="scale(0.015625)"/>
      <path id="DejaVuSans-61" d="M 2194 1759 
Q 1497 1759 1228 1600 
Q 959 1441 959 1056 
Q 959 750 1161 570 
Q 1363 391 1709 391 
Q 2188 391 2477 730 
Q 2766 1069 2766 1631 
L 2766 1759 
L 2194 1759 
z
M 3341 1997 
L 3341 0 
L 2766 0 
L 2766 531 
Q 2569 213 2275 61 
Q 1981 -91 1556 -91 
Q 1019 -91 701 211 
Q 384 513 384 1019 
Q 384 1609 779 1909 
Q 1175 2209 1959 2209 
L 2766 2209 
L 2766 2266 
Q 2766 2663 2505 2880 
Q 2244 3097 1772 3097 
Q 1472 3097 1187 3025 
Q 903 2953 641 2809 
L 641 3341 
Q 956 3463 1253 3523 
Q 1550 3584 1831 3584 
Q 2591 3584 2966 3190 
Q 3341 2797 3341 1997 
z
" transform="scale(0.015625)"/>
      <path id="DejaVuSans-69" d="M 603 3500 
L 1178 3500 
L 1178 0 
L 603 0 
L 603 3500 
z
M 603 4863 
L 1178 4863 
L 1178 4134 
L 603 4134 
L 603 4863 
z
" transform="scale(0.015625)"/>
      <path id="DejaVuSans-6e" d="M 3513 2113 
L 3513 0 
L 2938 0 
L 2938 2094 
Q 2938 2591 2744 2837 
Q 2550 3084 2163 3084 
Q 1697 3084 1428 2787 
Q 1159 2491 1159 1978 
L 1159 0 
L 581 0 
L 581 3500 
L 1159 3500 
L 1159 2956 
Q 1366 3272 1645 3428 
Q 1925 3584 2291 3584 
Q 2894 3584 3203 3211 
Q 3513 2838 3513 2113 
z
" transform="scale(0.015625)"/>
      <path id="DejaVuSans-67" d="M 2906 1791 
Q 2906 2416 2648 2759 
Q 2391 3103 1925 3103 
Q 1463 3103 1205 2759 
Q 947 2416 947 1791 
Q 947 1169 1205 825 
Q 1463 481 1925 481 
Q 2391 481 2648 825 
Q 2906 1169 2906 1791 
z
M 3481 434 
Q 3481 -459 3084 -895 
Q 2688 -1331 1869 -1331 
Q 1566 -1331 1297 -1286 
Q 1028 -1241 775 -1147 
L 775 -588 
Q 1028 -725 1275 -790 
Q 1522 -856 1778 -856 
Q 2344 -856 2625 -561 
Q 2906 -266 2906 331 
L 2906 616 
Q 2728 306 2450 153 
Q 2172 0 1784 0 
Q 1141 0 747 490 
Q 353 981 353 1791 
Q 353 2603 747 3093 
Q 1141 3584 1784 3584 
Q 2172 3584 2450 3431 
Q 2728 3278 2906 2969 
L 2906 3500 
L 3481 3500 
L 3481 434 
z
" transform="scale(0.015625)"/>
      <path id="DejaVuSans-20" transform="scale(0.015625)"/>
      <path id="DejaVuSans-64" d="M 2906 2969 
L 2906 4863 
L 3481 4863 
L 3481 0 
L 2906 0 
L 2906 525 
Q 2725 213 2448 61 
Q 2172 -91 1784 -91 
Q 1150 -91 751 415 
Q 353 922 353 1747 
Q 353 2572 751 3078 
Q 1150 3584 1784 3584 
Q 2172 3584 2448 3432 
Q 2725 3281 2906 2969 
z
M 947 1747 
Q 947 1113 1208 752 
Q 1469 391 1925 391 
Q 2381 391 2643 752 
Q 2906 1113 2906 1747 
Q 2906 2381 2643 2742 
Q 2381 3103 1925 3103 
Q 1469 3103 1208 2742 
Q 947 2381 947 1747 
z
" transform="scale(0.015625)"/>
      <path id="DejaVuSans-76" d="M 191 3500 
L 800 3500 
L 1894 563 
L 2988 3500 
L 3597 3500 
L 2284 0 
L 1503 0 
L 191 3500 
z
" transform="scale(0.015625)"/>
      <path id="DejaVuSans-6c" d="M 603 4863 
L 1178 4863 
L 1178 0 
L 603 0 
L 603 4863 
z
" transform="scale(0.015625)"/>
      <path id="DejaVuSans-74" d="M 1172 4494 
L 1172 3500 
L 2356 3500 
L 2356 3053 
L 1172 3053 
L 1172 1153 
Q 1172 725 1289 603 
Q 1406 481 1766 481 
L 2356 481 
L 2356 0 
L 1766 0 
Q 1100 0 847 248 
Q 594 497 594 1153 
L 594 3053 
L 172 3053 
L 172 3500 
L 594 3500 
L 594 4494 
L 1172 4494 
z
" transform="scale(0.015625)"/>
      <path id="DejaVuSans-6f" d="M 1959 3097 
Q 1497 3097 1228 2736 
Q 959 2375 959 1747 
Q 959 1119 1226 758 
Q 1494 397 1959 397 
Q 2419 397 2687 759 
Q 2956 1122 2956 1747 
Q 2956 2369 2687 2733 
Q 2419 3097 1959 3097 
z
M 1959 3584 
Q 2709 3584 3137 3096 
Q 3566 2609 3566 1747 
Q 3566 888 3137 398 
Q 2709 -91 1959 -91 
Q 1206 -91 779 398 
Q 353 888 353 1747 
Q 353 2609 779 3096 
Q 1206 3584 1959 3584 
z
" transform="scale(0.015625)"/>
      <path id="DejaVuSans-63" d="M 3122 3366 
L 3122 2828 
Q 2878 2963 2633 3030 
Q 2388 3097 2138 3097 
Q 1578 3097 1268 2742 
Q 959 2388 959 1747 
Q 959 1106 1268 751 
Q 1578 397 2138 397 
Q 2388 397 2633 464 
Q 2878 531 3122 666 
L 3122 134 
Q 2881 22 2623 -34 
Q 2366 -91 2075 -91 
Q 1284 -91 818 406 
Q 353 903 353 1747 
Q 353 2603 823 3093 
Q 1294 3584 2113 3584 
Q 2378 3584 2631 3529 
Q 2884 3475 3122 3366 
z
" transform="scale(0.015625)"/>
      <path id="DejaVuSans-75" d="M 544 1381 
L 544 3500 
L 1119 3500 
L 1119 1403 
Q 1119 906 1312 657 
Q 1506 409 1894 409 
Q 2359 409 2629 706 
Q 2900 1003 2900 1516 
L 2900 3500 
L 3475 3500 
L 3475 0 
L 2900 0 
L 2900 538 
Q 2691 219 2414 64 
Q 2138 -91 1772 -91 
Q 1169 -91 856 284 
Q 544 659 544 1381 
z
M 1991 3584 
L 1991 3584 
z
" transform="scale(0.015625)"/>
      <path id="DejaVuSans-79" d="M 2059 -325 
Q 1816 -950 1584 -1140 
Q 1353 -1331 966 -1331 
L 506 -1331 
L 506 -850 
L 844 -850 
Q 1081 -850 1212 -737 
Q 1344 -625 1503 -206 
L 1606 56 
L 191 3500 
L 800 3500 
L 1894 763 
L 2988 3500 
L 3597 3500 
L 2059 -325 
z
" transform="scale(0.015625)"/>
     </defs>
     <use xlink:href="#DejaVuSans-54"/>
     <use xlink:href="#DejaVuSans-72" x="46.333984"/>
     <use xlink:href="#DejaVuSans-61" x="87.447266"/>
     <use xlink:href="#DejaVuSans-69" x="148.726562"/>
     <use xlink:href="#DejaVuSans-6e" x="176.509766"/>
     <use xlink:href="#DejaVuSans-69" x="239.888672"/>
     <use xlink:href="#DejaVuSans-6e" x="267.671875"/>
     <use xlink:href="#DejaVuSans-67" x="331.050781"/>
     <use xlink:href="#DejaVuSans-20" x="394.527344"/>
     <use xlink:href="#DejaVuSans-61" x="426.314453"/>
     <use xlink:href="#DejaVuSans-6e" x="487.59375"/>
     <use xlink:href="#DejaVuSans-64" x="550.972656"/>
     <use xlink:href="#DejaVuSans-20" x="614.449219"/>
     <use xlink:href="#DejaVuSans-76" x="646.236328"/>
     <use xlink:href="#DejaVuSans-61" x="705.416016"/>
     <use xlink:href="#DejaVuSans-6c" x="766.695312"/>
     <use xlink:href="#DejaVuSans-69" x="794.478516"/>
     <use xlink:href="#DejaVuSans-64" x="822.261719"/>
     <use xlink:href="#DejaVuSans-61" x="885.738281"/>
     <use xlink:href="#DejaVuSans-74" x="947.017578"/>
     <use xlink:href="#DejaVuSans-69" x="986.226562"/>
     <use xlink:href="#DejaVuSans-6f" x="1014.009766"/>
     <use xlink:href="#DejaVuSans-6e" x="1075.191406"/>
     <use xlink:href="#DejaVuSans-20" x="1138.570312"/>
     <use xlink:href="#DejaVuSans-61" x="1170.357422"/>
     <use xlink:href="#DejaVuSans-63" x="1231.636719"/>
     <use xlink:href="#DejaVuSans-63" x="1286.617188"/>
     <use xlink:href="#DejaVuSans-75" x="1341.597656"/>
     <use xlink:href="#DejaVuSans-72" x="1404.976562"/>
     <use xlink:href="#DejaVuSans-61" x="1446.089844"/>
     <use xlink:href="#DejaVuSans-63" x="1507.369141"/>
     <use xlink:href="#DejaVuSans-79" x="1562.349609"/>
    </g>
   </g>
  </g>
 </g>
 <defs>
  <clipPath id="p2ac4e26734">
   <rect x="54" y="34.56" width="334.8" height="217.44"/>
  </clipPath>
 </defs>
</svg>
