<?xml version="1.0" encoding="utf-8" standalone="no"?>
<!DOCTYPE svg PUBLIC "-//W3C//DTD SVG 1.1//EN"
  "http://www.w3.org/Graphics/SVG/1.1/DTD/svg11.dtd">
<svg xmlns:xlink="http://www.w3.org/1999/xlink" width="432pt" height="288pt" viewBox="0 0 432 288" xmlns="http://www.w3.org/2000/svg" version="1.1">
 <metadata>
  <rdf:RDF xmlns:dc="http://purl.org/dc/elements/1.1/" xmlns:cc="http://creativecommons.org/ns#" xmlns:rdf="http://www.w3.org/1999/02/22-rdf-syntax-ns#">
   <cc:Work>
    <dc:type rdf:resource="http://purl.org/dc/dcmitype/StillImage"/>
    <dc:date>2022-08-01T13:20:35.870241</dc:date>
    <dc:format>image/svg+xml</dc:format>
    <dc:creator>
     <cc:Agent>
      <dc:title>Matplotlib v3.5.2, https://matplotlib.org/</dc:title>
     </cc:Agent>
    </dc:creator>
   </cc:Work>
  </rdf:RDF>
 </metadata>
 <defs>
  <style type="text/css">*{stroke-linejoin: round; stroke-linecap: butt}</style>
 </defs>
 <g id="figure_1">
  <g id="patch_1">
   <path d="M 0 288 
L 432 288 
L 432 0 
L 0 0 
L 0 288 
z
" style="fill: none"/>
  </g>
  <g id="axes_1">
   <g id="patch_2">
    <path d="M 54 252 
L 388.8 252 
L 388.8 34.56 
L 54 34.56 
z
" style="fill: #ffffff"/>
   </g>
   <g id="matplotlib.axis_1">
    <g id="xtick_1">
     <g id="line2d_1">
      <defs>
       <path id="mc4f1f8681d" d="M 0 0 
L 0 3.5 
" style="stroke: #000000; stroke-width: 0.8"/>
      </defs>
      <g>
       <use xlink:href="#mc4f1f8681d" x="69.218182" y="252" style="stroke: #000000; stroke-width: 0.8"/>
      </g>
     </g>
     <g id="text_1">
      <!-- 0 -->
      <g transform="translate(66.036932 266.598437)scale(0.1 -0.1)">
       <defs>
        <path id="DejaVuSans-30" d="M 2034 4250 
Q 1547 4250 1301 3770 
Q 1056 3291 1056 2328 
Q 1056 1369 1301 889 
Q 1547 409 2034 409 
Q 2525 409 2770 889 
Q 3016 1369 3016 2328 
Q 3016 3291 2770 3770 
Q 2525 4250 2034 4250 
z
M 2034 4750 
Q 2819 4750 3233 4129 
Q 3647 3509 3647 2328 
Q 3647 1150 3233 529 
Q 2819 -91 2034 -91 
Q 1250 -91 836 529 
Q 422 1150 422 2328 
Q 422 3509 836 4129 
Q 1250 4750 2034 4750 
z
" transform="scale(0.015625)"/>
       </defs>
       <use xlink:href="#DejaVuSans-30"/>
      </g>
     </g>
    </g>
    <g id="xtick_2">
     <g id="line2d_2">
      <g>
       <use xlink:href="#mc4f1f8681d" x="130.705785" y="252" style="stroke: #000000; stroke-width: 0.8"/>
      </g>
     </g>
     <g id="text_2">
      <!-- 20 -->
      <g transform="translate(124.343285 266.598437)scale(0.1 -0.1)">
       <defs>
        <path id="DejaVuSans-32" d="M 1228 531 
L 3431 531 
L 3431 0 
L 469 0 
L 469 531 
Q 828 903 1448 1529 
Q 2069 2156 2228 2338 
Q 2531 2678 2651 2914 
Q 2772 3150 2772 3378 
Q 2772 3750 2511 3984 
Q 2250 4219 1831 4219 
Q 1534 4219 1204 4116 
Q 875 4013 500 3803 
L 500 4441 
Q 881 4594 1212 4672 
Q 1544 4750 1819 4750 
Q 2544 4750 2975 4387 
Q 3406 4025 3406 3419 
Q 3406 3131 3298 2873 
Q 3191 2616 2906 2266 
Q 2828 2175 2409 1742 
Q 1991 1309 1228 531 
z
" transform="scale(0.015625)"/>
       </defs>
       <use xlink:href="#DejaVuSans-32"/>
       <use xlink:href="#DejaVuSans-30" x="63.623047"/>
      </g>
     </g>
    </g>
    <g id="xtick_3">
     <g id="line2d_3">
      <g>
       <use xlink:href="#mc4f1f8681d" x="192.193388" y="252" style="stroke: #000000; stroke-width: 0.8"/>
      </g>
     </g>
     <g id="text_3">
      <!-- 40 -->
      <g transform="translate(185.830888 266.598437)scale(0.1 -0.1)">
       <defs>
        <path id="DejaVuSans-34" d="M 2419 4116 
L 825 1625 
L 2419 1625 
L 2419 4116 
z
M 2253 4666 
L 3047 4666 
L 3047 1625 
L 3713 1625 
L 3713 1100 
L 3047 1100 
L 3047 0 
L 2419 0 
L 2419 1100 
L 313 1100 
L 313 1709 
L 2253 4666 
z
" transform="scale(0.015625)"/>
       </defs>
       <use xlink:href="#DejaVuSans-34"/>
       <use xlink:href="#DejaVuSans-30" x="63.623047"/>
      </g>
     </g>
    </g>
    <g id="xtick_4">
     <g id="line2d_4">
      <g>
       <use xlink:href="#mc4f1f8681d" x="253.680992" y="252" style="stroke: #000000; stroke-width: 0.8"/>
      </g>
     </g>
     <g id="text_4">
      <!-- 60 -->
      <g transform="translate(247.318492 266.598437)scale(0.1 -0.1)">
       <defs>
        <path id="DejaVuSans-36" d="M 2113 2584 
Q 1688 2584 1439 2293 
Q 1191 2003 1191 1497 
Q 1191 994 1439 701 
Q 1688 409 2113 409 
Q 2538 409 2786 701 
Q 3034 994 3034 1497 
Q 3034 2003 2786 2293 
Q 2538 2584 2113 2584 
z
M 3366 4563 
L 3366 3988 
Q 3128 4100 2886 4159 
Q 2644 4219 2406 4219 
Q 1781 4219 1451 3797 
Q 1122 3375 1075 2522 
Q 1259 2794 1537 2939 
Q 1816 3084 2150 3084 
Q 2853 3084 3261 2657 
Q 3669 2231 3669 1497 
Q 3669 778 3244 343 
Q 2819 -91 2113 -91 
Q 1303 -91 875 529 
Q 447 1150 447 2328 
Q 447 3434 972 4092 
Q 1497 4750 2381 4750 
Q 2619 4750 2861 4703 
Q 3103 4656 3366 4563 
z
" transform="scale(0.015625)"/>
       </defs>
       <use xlink:href="#DejaVuSans-36"/>
       <use xlink:href="#DejaVuSans-30" x="63.623047"/>
      </g>
     </g>
    </g>
    <g id="xtick_5">
     <g id="line2d_5">
      <g>
       <use xlink:href="#mc4f1f8681d" x="315.168595" y="252" style="stroke: #000000; stroke-width: 0.8"/>
      </g>
     </g>
     <g id="text_5">
      <!-- 80 -->
      <g transform="translate(308.806095 266.598437)scale(0.1 -0.1)">
       <defs>
        <path id="DejaVuSans-38" d="M 2034 2216 
Q 1584 2216 1326 1975 
Q 1069 1734 1069 1313 
Q 1069 891 1326 650 
Q 1584 409 2034 409 
Q 2484 409 2743 651 
Q 3003 894 3003 1313 
Q 3003 1734 2745 1975 
Q 2488 2216 2034 2216 
z
M 1403 2484 
Q 997 2584 770 2862 
Q 544 3141 544 3541 
Q 544 4100 942 4425 
Q 1341 4750 2034 4750 
Q 2731 4750 3128 4425 
Q 3525 4100 3525 3541 
Q 3525 3141 3298 2862 
Q 3072 2584 2669 2484 
Q 3125 2378 3379 2068 
Q 3634 1759 3634 1313 
Q 3634 634 3220 271 
Q 2806 -91 2034 -91 
Q 1263 -91 848 271 
Q 434 634 434 1313 
Q 434 1759 690 2068 
Q 947 2378 1403 2484 
z
M 1172 3481 
Q 1172 3119 1398 2916 
Q 1625 2713 2034 2713 
Q 2441 2713 2670 2916 
Q 2900 3119 2900 3481 
Q 2900 3844 2670 4047 
Q 2441 4250 2034 4250 
Q 1625 4250 1398 4047 
Q 1172 3844 1172 3481 
z
" transform="scale(0.015625)"/>
       </defs>
       <use xlink:href="#DejaVuSans-38"/>
       <use xlink:href="#DejaVuSans-30" x="63.623047"/>
      </g>
     </g>
    </g>
    <g id="xtick_6">
     <g id="line2d_6">
      <g>
       <use xlink:href="#mc4f1f8681d" x="376.656198" y="252" style="stroke: #000000; stroke-width: 0.8"/>
      </g>
     </g>
     <g id="text_6">
      <!-- 100 -->
      <g transform="translate(367.112448 266.598437)scale(0.1 -0.1)">
       <defs>
        <path id="DejaVuSans-31" d="M 794 531 
L 1825 531 
L 1825 4091 
L 703 3866 
L 703 4441 
L 1819 4666 
L 2450 4666 
L 2450 531 
L 3481 531 
L 3481 0 
L 794 0 
L 794 531 
z
" transform="scale(0.015625)"/>
       </defs>
       <use xlink:href="#DejaVuSans-31"/>
       <use xlink:href="#DejaVuSans-30" x="63.623047"/>
       <use xlink:href="#DejaVuSans-30" x="127.246094"/>
      </g>
     </g>
    </g>
   </g>
   <g id="matplotlib.axis_2">
    <g id="ytick_1">
     <g id="line2d_7">
      <defs>
       <path id="m71c8462054" d="M 0 0 
L -3.5 0 
" style="stroke: #000000; stroke-width: 0.8"/>
      </defs>
      <g>
       <use xlink:href="#m71c8462054" x="54" y="242.116364" style="stroke: #000000; stroke-width: 0.8"/>
      </g>
     </g>
     <g id="text_7">
      <!-- 0.0 -->
      <g transform="translate(31.096875 245.915582)scale(0.1 -0.1)">
       <defs>
        <path id="DejaVuSans-2e" d="M 684 794 
L 1344 794 
L 1344 0 
L 684 0 
L 684 794 
z
" transform="scale(0.015625)"/>
       </defs>
       <use xlink:href="#DejaVuSans-30"/>
       <use xlink:href="#DejaVuSans-2e" x="63.623047"/>
       <use xlink:href="#DejaVuSans-30" x="95.410156"/>
      </g>
     </g>
    </g>
    <g id="ytick_2">
     <g id="line2d_8">
      <g>
       <use xlink:href="#m71c8462054" x="54" y="199.908363" style="stroke: #000000; stroke-width: 0.8"/>
      </g>
     </g>
     <g id="text_8">
      <!-- 0.1 -->
      <g transform="translate(31.096875 203.707582)scale(0.1 -0.1)">
       <use xlink:href="#DejaVuSans-30"/>
       <use xlink:href="#DejaVuSans-2e" x="63.623047"/>
       <use xlink:href="#DejaVuSans-31" x="95.410156"/>
      </g>
     </g>
    </g>
    <g id="ytick_3">
     <g id="line2d_9">
      <g>
       <use xlink:href="#m71c8462054" x="54" y="157.700363" style="stroke: #000000; stroke-width: 0.8"/>
      </g>
     </g>
     <g id="text_9">
      <!-- 0.2 -->
      <g transform="translate(31.096875 161.499581)scale(0.1 -0.1)">
       <use xlink:href="#DejaVuSans-30"/>
       <use xlink:href="#DejaVuSans-2e" x="63.623047"/>
       <use xlink:href="#DejaVuSans-32" x="95.410156"/>
      </g>
     </g>
    </g>
    <g id="ytick_4">
     <g id="line2d_10">
      <g>
       <use xlink:href="#m71c8462054" x="54" y="115.492362" style="stroke: #000000; stroke-width: 0.8"/>
      </g>
     </g>
     <g id="text_10">
      <!-- 0.3 -->
      <g transform="translate(31.096875 119.291581)scale(0.1 -0.1)">
       <defs>
        <path id="DejaVuSans-33" d="M 2597 2516 
Q 3050 2419 3304 2112 
Q 3559 1806 3559 1356 
Q 3559 666 3084 287 
Q 2609 -91 1734 -91 
Q 1441 -91 1130 -33 
Q 819 25 488 141 
L 488 750 
Q 750 597 1062 519 
Q 1375 441 1716 441 
Q 2309 441 2620 675 
Q 2931 909 2931 1356 
Q 2931 1769 2642 2001 
Q 2353 2234 1838 2234 
L 1294 2234 
L 1294 2753 
L 1863 2753 
Q 2328 2753 2575 2939 
Q 2822 3125 2822 3475 
Q 2822 3834 2567 4026 
Q 2313 4219 1838 4219 
Q 1578 4219 1281 4162 
Q 984 4106 628 3988 
L 628 4550 
Q 988 4650 1302 4700 
Q 1616 4750 1894 4750 
Q 2613 4750 3031 4423 
Q 3450 4097 3450 3541 
Q 3450 3153 3228 2886 
Q 3006 2619 2597 2516 
z
" transform="scale(0.015625)"/>
       </defs>
       <use xlink:href="#DejaVuSans-30"/>
       <use xlink:href="#DejaVuSans-2e" x="63.623047"/>
       <use xlink:href="#DejaVuSans-33" x="95.410156"/>
      </g>
     </g>
    </g>
    <g id="ytick_5">
     <g id="line2d_11">
      <g>
       <use xlink:href="#m71c8462054" x="54" y="73.284361" style="stroke: #000000; stroke-width: 0.8"/>
      </g>
     </g>
     <g id="text_11">
      <!-- 0.4 -->
      <g transform="translate(31.096875 77.08358)scale(0.1 -0.1)">
       <use xlink:href="#DejaVuSans-30"/>
       <use xlink:href="#DejaVuSans-2e" x="63.623047"/>
       <use xlink:href="#DejaVuSans-34" x="95.410156"/>
      </g>
     </g>
    </g>
   </g>
   <g id="line2d_12">
    <defs>
     <path id="mdd5e42e1b0" d="M 0 3 
C 0.795609 3 1.55874 2.683901 2.12132 2.12132 
C 2.683901 1.55874 3 0.795609 3 0 
C 3 -0.795609 2.683901 -1.55874 2.12132 -2.12132 
C 1.55874 -2.683901 0.795609 -3 0 -3 
C -0.795609 -3 -1.55874 -2.683901 -2.12132 -2.12132 
C -2.683901 -1.55874 -3 -0.795609 -3 0 
C -3 0.795609 -2.683901 1.55874 -2.12132 2.12132 
C -1.55874 2.683901 -0.795609 3 0 3 
z
" style="stroke: #0000ff"/>
    </defs>
    <g clip-path="url(#p2ec42593ce)">
     <use xlink:href="#mdd5e42e1b0" x="69.218182" y="142.998508" style="fill: #0000ff; stroke: #0000ff"/>
     <use xlink:href="#mdd5e42e1b0" x="72.292562" y="197.728148" style="fill: #0000ff; stroke: #0000ff"/>
     <use xlink:href="#mdd5e42e1b0" x="75.366942" y="208.7211" style="fill: #0000ff; stroke: #0000ff"/>
     <use xlink:href="#mdd5e42e1b0" x="78.441322" y="215.922988" style="fill: #0000ff; stroke: #0000ff"/>
     <use xlink:href="#mdd5e42e1b0" x="81.515702" y="219.820882" style="fill: #0000ff; stroke: #0000ff"/>
     <use xlink:href="#mdd5e42e1b0" x="84.590083" y="224.50278" style="fill: #0000ff; stroke: #0000ff"/>
     <use xlink:href="#mdd5e42e1b0" x="87.664463" y="226.12255" style="fill: #0000ff; stroke: #0000ff"/>
     <use xlink:href="#mdd5e42e1b0" x="90.738843" y="228.4378" style="fill: #0000ff; stroke: #0000ff"/>
     <use xlink:href="#mdd5e42e1b0" x="93.813223" y="229.843248" style="fill: #0000ff; stroke: #0000ff"/>
     <use xlink:href="#mdd5e42e1b0" x="96.887603" y="232.290464" style="fill: #0000ff; stroke: #0000ff"/>
     <use xlink:href="#mdd5e42e1b0" x="99.961983" y="232.017597" style="fill: #0000ff; stroke: #0000ff"/>
     <use xlink:href="#mdd5e42e1b0" x="103.036364" y="233.976686" style="fill: #0000ff; stroke: #0000ff"/>
     <use xlink:href="#mdd5e42e1b0" x="106.110744" y="234.524084" style="fill: #0000ff; stroke: #0000ff"/>
     <use xlink:href="#mdd5e42e1b0" x="109.185124" y="234.497338" style="fill: #0000ff; stroke: #0000ff"/>
     <use xlink:href="#mdd5e42e1b0" x="112.259504" y="235.199337" style="fill: #0000ff; stroke: #0000ff"/>
     <use xlink:href="#mdd5e42e1b0" x="115.333884" y="236.567277" style="fill: #0000ff; stroke: #0000ff"/>
     <use xlink:href="#mdd5e42e1b0" x="118.408264" y="236.239924" style="fill: #0000ff; stroke: #0000ff"/>
     <use xlink:href="#mdd5e42e1b0" x="121.482645" y="235.618933" style="fill: #0000ff; stroke: #0000ff"/>
     <use xlink:href="#mdd5e42e1b0" x="124.557025" y="236.696037" style="fill: #0000ff; stroke: #0000ff"/>
     <use xlink:href="#mdd5e42e1b0" x="127.631405" y="238.244386" style="fill: #0000ff; stroke: #0000ff"/>
     <use xlink:href="#mdd5e42e1b0" x="130.705785" y="237.786015" style="fill: #0000ff; stroke: #0000ff"/>
     <use xlink:href="#mdd5e42e1b0" x="133.780165" y="238.763296" style="fill: #0000ff; stroke: #0000ff"/>
     <use xlink:href="#mdd5e42e1b0" x="136.854545" y="237.163535" style="fill: #0000ff; stroke: #0000ff"/>
     <use xlink:href="#mdd5e42e1b0" x="139.928926" y="239.232368" style="fill: #0000ff; stroke: #0000ff"/>
     <use xlink:href="#mdd5e42e1b0" x="143.003306" y="237.525054" style="fill: #0000ff; stroke: #0000ff"/>
     <use xlink:href="#mdd5e42e1b0" x="146.077686" y="238.869666" style="fill: #0000ff; stroke: #0000ff"/>
     <use xlink:href="#mdd5e42e1b0" x="149.152066" y="240.073694" style="fill: #0000ff; stroke: #0000ff"/>
     <use xlink:href="#mdd5e42e1b0" x="152.226446" y="239.556201" style="fill: #0000ff; stroke: #0000ff"/>
     <use xlink:href="#mdd5e42e1b0" x="155.300826" y="238.419187" style="fill: #0000ff; stroke: #0000ff"/>
     <use xlink:href="#mdd5e42e1b0" x="158.375207" y="238.922069" style="fill: #0000ff; stroke: #0000ff"/>
     <use xlink:href="#mdd5e42e1b0" x="161.449587" y="238.27929" style="fill: #0000ff; stroke: #0000ff"/>
     <use xlink:href="#mdd5e42e1b0" x="164.523967" y="240.230749" style="fill: #0000ff; stroke: #0000ff"/>
     <use xlink:href="#mdd5e42e1b0" x="167.598347" y="238.498812" style="fill: #0000ff; stroke: #0000ff"/>
     <use xlink:href="#mdd5e42e1b0" x="170.672727" y="241.190179" style="fill: #0000ff; stroke: #0000ff"/>
     <use xlink:href="#mdd5e42e1b0" x="173.747107" y="240.293751" style="fill: #0000ff; stroke: #0000ff"/>
     <use xlink:href="#mdd5e42e1b0" x="176.821488" y="240.635749" style="fill: #0000ff; stroke: #0000ff"/>
     <use xlink:href="#mdd5e42e1b0" x="179.895868" y="241.266874" style="fill: #0000ff; stroke: #0000ff"/>
     <use xlink:href="#mdd5e42e1b0" x="182.970248" y="240.637956" style="fill: #0000ff; stroke: #0000ff"/>
     <use xlink:href="#mdd5e42e1b0" x="186.044628" y="241.186416" style="fill: #0000ff; stroke: #0000ff"/>
     <use xlink:href="#mdd5e42e1b0" x="189.119008" y="241.421598" style="fill: #0000ff; stroke: #0000ff"/>
     <use xlink:href="#mdd5e42e1b0" x="192.193388" y="239.955734" style="fill: #0000ff; stroke: #0000ff"/>
     <use xlink:href="#mdd5e42e1b0" x="195.267769" y="240.200731" style="fill: #0000ff; stroke: #0000ff"/>
     <use xlink:href="#mdd5e42e1b0" x="198.342149" y="240.661373" style="fill: #0000ff; stroke: #0000ff"/>
     <use xlink:href="#mdd5e42e1b0" x="201.416529" y="239.65625" style="fill: #0000ff; stroke: #0000ff"/>
     <use xlink:href="#mdd5e42e1b0" x="204.490909" y="241.117671" style="fill: #0000ff; stroke: #0000ff"/>
     <use xlink:href="#mdd5e42e1b0" x="207.565289" y="240.262858" style="fill: #0000ff; stroke: #0000ff"/>
     <use xlink:href="#mdd5e42e1b0" x="210.639669" y="241.861509" style="fill: #0000ff; stroke: #0000ff"/>
     <use xlink:href="#mdd5e42e1b0" x="213.71405" y="241.069094" style="fill: #0000ff; stroke: #0000ff"/>
     <use xlink:href="#mdd5e42e1b0" x="216.78843" y="240.938864" style="fill: #0000ff; stroke: #0000ff"/>
     <use xlink:href="#mdd5e42e1b0" x="219.86281" y="242.104159" style="fill: #0000ff; stroke: #0000ff"/>
     <use xlink:href="#mdd5e42e1b0" x="222.93719" y="238.758099" style="fill: #0000ff; stroke: #0000ff"/>
     <use xlink:href="#mdd5e42e1b0" x="226.01157" y="240.555569" style="fill: #0000ff; stroke: #0000ff"/>
     <use xlink:href="#mdd5e42e1b0" x="229.08595" y="241.024094" style="fill: #0000ff; stroke: #0000ff"/>
     <use xlink:href="#mdd5e42e1b0" x="232.160331" y="241.385513" style="fill: #0000ff; stroke: #0000ff"/>
     <use xlink:href="#mdd5e42e1b0" x="235.234711" y="240.265428" style="fill: #0000ff; stroke: #0000ff"/>
     <use xlink:href="#mdd5e42e1b0" x="238.309091" y="241.138141" style="fill: #0000ff; stroke: #0000ff"/>
     <use xlink:href="#mdd5e42e1b0" x="241.383471" y="241.836033" style="fill: #0000ff; stroke: #0000ff"/>
     <use xlink:href="#mdd5e42e1b0" x="244.457851" y="241.057611" style="fill: #0000ff; stroke: #0000ff"/>
     <use xlink:href="#mdd5e42e1b0" x="247.532231" y="241.755868" style="fill: #0000ff; stroke: #0000ff"/>
     <use xlink:href="#mdd5e42e1b0" x="250.606612" y="240.729644" style="fill: #0000ff; stroke: #0000ff"/>
     <use xlink:href="#mdd5e42e1b0" x="253.680992" y="241.44566" style="fill: #0000ff; stroke: #0000ff"/>
     <use xlink:href="#mdd5e42e1b0" x="256.755372" y="242.106937" style="fill: #0000ff; stroke: #0000ff"/>
     <use xlink:href="#mdd5e42e1b0" x="259.829752" y="240.997382" style="fill: #0000ff; stroke: #0000ff"/>
     <use xlink:href="#mdd5e42e1b0" x="262.904132" y="241.721015" style="fill: #0000ff; stroke: #0000ff"/>
     <use xlink:href="#mdd5e42e1b0" x="265.978512" y="240.681428" style="fill: #0000ff; stroke: #0000ff"/>
     <use xlink:href="#mdd5e42e1b0" x="269.052893" y="241.54407" style="fill: #0000ff; stroke: #0000ff"/>
     <use xlink:href="#mdd5e42e1b0" x="272.127273" y="241.60733" style="fill: #0000ff; stroke: #0000ff"/>
     <use xlink:href="#mdd5e42e1b0" x="275.201653" y="242.116363" style="fill: #0000ff; stroke: #0000ff"/>
     <use xlink:href="#mdd5e42e1b0" x="278.276033" y="242.115683" style="fill: #0000ff; stroke: #0000ff"/>
     <use xlink:href="#mdd5e42e1b0" x="281.350413" y="242.07853" style="fill: #0000ff; stroke: #0000ff"/>
     <use xlink:href="#mdd5e42e1b0" x="284.424793" y="241.380617" style="fill: #0000ff; stroke: #0000ff"/>
     <use xlink:href="#mdd5e42e1b0" x="287.499174" y="241.336231" style="fill: #0000ff; stroke: #0000ff"/>
     <use xlink:href="#mdd5e42e1b0" x="290.573554" y="241.574131" style="fill: #0000ff; stroke: #0000ff"/>
     <use xlink:href="#mdd5e42e1b0" x="293.647934" y="242.116363" style="fill: #0000ff; stroke: #0000ff"/>
     <use xlink:href="#mdd5e42e1b0" x="296.722314" y="242.116364" style="fill: #0000ff; stroke: #0000ff"/>
     <use xlink:href="#mdd5e42e1b0" x="299.796694" y="242.116364" style="fill: #0000ff; stroke: #0000ff"/>
     <use xlink:href="#mdd5e42e1b0" x="302.871074" y="242.116363" style="fill: #0000ff; stroke: #0000ff"/>
     <use xlink:href="#mdd5e42e1b0" x="305.945455" y="242.116364" style="fill: #0000ff; stroke: #0000ff"/>
     <use xlink:href="#mdd5e42e1b0" x="309.019835" y="242.116364" style="fill: #0000ff; stroke: #0000ff"/>
     <use xlink:href="#mdd5e42e1b0" x="312.094215" y="242.116364" style="fill: #0000ff; stroke: #0000ff"/>
     <use xlink:href="#mdd5e42e1b0" x="315.168595" y="242.116364" style="fill: #0000ff; stroke: #0000ff"/>
     <use xlink:href="#mdd5e42e1b0" x="318.242975" y="242.116364" style="fill: #0000ff; stroke: #0000ff"/>
     <use xlink:href="#mdd5e42e1b0" x="321.317355" y="242.116364" style="fill: #0000ff; stroke: #0000ff"/>
     <use xlink:href="#mdd5e42e1b0" x="324.391736" y="242.116364" style="fill: #0000ff; stroke: #0000ff"/>
     <use xlink:href="#mdd5e42e1b0" x="327.466116" y="242.116364" style="fill: #0000ff; stroke: #0000ff"/>
     <use xlink:href="#mdd5e42e1b0" x="330.540496" y="242.116364" style="fill: #0000ff; stroke: #0000ff"/>
     <use xlink:href="#mdd5e42e1b0" x="333.614876" y="242.116364" style="fill: #0000ff; stroke: #0000ff"/>
     <use xlink:href="#mdd5e42e1b0" x="336.689256" y="242.116364" style="fill: #0000ff; stroke: #0000ff"/>
     <use xlink:href="#mdd5e42e1b0" x="339.763636" y="242.116364" style="fill: #0000ff; stroke: #0000ff"/>
     <use xlink:href="#mdd5e42e1b0" x="342.838017" y="242.116364" style="fill: #0000ff; stroke: #0000ff"/>
     <use xlink:href="#mdd5e42e1b0" x="345.912397" y="242.116364" style="fill: #0000ff; stroke: #0000ff"/>
     <use xlink:href="#mdd5e42e1b0" x="348.986777" y="242.116364" style="fill: #0000ff; stroke: #0000ff"/>
     <use xlink:href="#mdd5e42e1b0" x="352.061157" y="242.116364" style="fill: #0000ff; stroke: #0000ff"/>
     <use xlink:href="#mdd5e42e1b0" x="355.135537" y="242.116364" style="fill: #0000ff; stroke: #0000ff"/>
     <use xlink:href="#mdd5e42e1b0" x="358.209917" y="242.116364" style="fill: #0000ff; stroke: #0000ff"/>
     <use xlink:href="#mdd5e42e1b0" x="361.284298" y="242.116364" style="fill: #0000ff; stroke: #0000ff"/>
     <use xlink:href="#mdd5e42e1b0" x="364.358678" y="242.116364" style="fill: #0000ff; stroke: #0000ff"/>
     <use xlink:href="#mdd5e42e1b0" x="367.433058" y="242.116364" style="fill: #0000ff; stroke: #0000ff"/>
     <use xlink:href="#mdd5e42e1b0" x="370.507438" y="242.116364" style="fill: #0000ff; stroke: #0000ff"/>
     <use xlink:href="#mdd5e42e1b0" x="373.581818" y="242.116364" style="fill: #0000ff; stroke: #0000ff"/>
    </g>
   </g>
   <g id="line2d_13">
    <path d="M 69.218182 129.075726 
L 72.292562 218.330811 
L 75.366942 210.181515 
L 78.441322 217.284269 
L 81.515702 225.853175 
L 84.590083 220.480526 
L 87.664463 150.930413 
L 90.738843 227.552517 
L 93.813223 226.922297 
L 96.887603 223.046202 
L 99.961983 212.982407 
L 103.036364 227.716346 
L 106.110744 219.837301 
L 109.185124 223.178719 
L 112.259504 190.386445 
L 115.333884 226.301981 
L 118.408264 224.933962 
L 121.482645 220.538186 
L 124.557025 222.095858 
L 127.631405 217.340423 
L 130.705785 220.922626 
L 133.780165 219.702097 
L 136.854545 212.996184 
L 139.928926 222.652022 
L 143.003306 216.77304 
L 146.077686 221.223625 
L 149.152066 119.128747 
L 152.226446 216.280649 
L 155.300826 213.44102 
L 158.375207 190.750207 
L 161.449587 218.337789 
L 164.523967 215.522977 
L 167.598347 218.192678 
L 170.672727 205.456179 
L 173.747107 216.975866 
L 176.821488 214.240605 
L 179.895868 213.3716 
L 182.970248 206.648703 
L 186.044628 207.229986 
L 189.119008 214.812655 
L 192.193388 208.826704 
L 195.267769 203.036455 
L 198.342149 205.793164 
L 201.416529 207.850894 
L 204.490909 200.897478 
L 207.565289 208.63594 
L 210.639669 200.227673 
L 213.71405 210.451126 
L 216.78843 204.754468 
L 219.86281 44.443636 
L 222.93719 207.848884 
L 226.01157 201.860495 
L 229.08595 196.565157 
L 232.160331 206.646442 
L 235.234711 197.073532 
L 238.309091 205.685047 
L 241.383471 197.759146 
L 244.457851 203.305246 
L 247.532231 205.543544 
L 250.606612 202.801059 
L 253.680992 206.492545 
L 256.755372 193.870268 
L 259.829752 206.144123 
L 262.904132 148.160582 
L 265.978512 200.19704 
L 269.052893 210.496423 
L 272.127273 208.37549 
L 275.201653 206.274787 
L 278.276033 207.612745 
L 281.350413 202.700106 
L 284.424793 209.146605 
L 287.499174 204.38954 
L 290.573554 200.679541 
L 293.647934 203.901331 
L 296.722314 204.438148 
L 299.796694 205.408574 
L 302.871074 205.454683 
L 305.945455 204.482071 
L 309.019835 203.410698 
L 312.094215 203.581989 
L 315.168595 205.061386 
L 318.242975 204.36103 
L 321.317355 204.640563 
L 324.391736 204.365973 
L 327.466116 204.698401 
L 330.540496 203.872529 
L 333.614876 204.054175 
L 336.689256 204.536535 
L 339.763636 204.383568 
L 342.838017 204.823502 
L 345.912397 204.033392 
L 348.986777 204.274615 
L 352.061157 204.676633 
L 355.135537 203.410544 
L 358.209917 203.176774 
L 361.284298 204.032951 
L 364.358678 204.035118 
L 367.433058 203.535758 
L 370.507438 204.36336 
L 373.581818 203.875114 
" clip-path="url(#p2ec42593ce)" style="fill: none; stroke: #0000ff; stroke-width: 1.5; stroke-linecap: square"/>
   </g>
   <g id="patch_3">
    <path d="M 54 252 
L 54 34.56 
" style="fill: none; stroke: #000000; stroke-width: 0.8; stroke-linejoin: miter; stroke-linecap: square"/>
   </g>
   <g id="patch_4">
    <path d="M 388.8 252 
L 388.8 34.56 
" style="fill: none; stroke: #000000; stroke-width: 0.8; stroke-linejoin: miter; stroke-linecap: square"/>
   </g>
   <g id="patch_5">
    <path d="M 54 252 
L 388.8 252 
" style="fill: none; stroke: #000000; stroke-width: 0.8; stroke-linejoin: miter; stroke-linecap: square"/>
   </g>
   <g id="patch_6">
    <path d="M 54 34.56 
L 388.8 34.56 
" style="fill: none; stroke: #000000; stroke-width: 0.8; stroke-linejoin: miter; stroke-linecap: square"/>
   </g>
   <g id="text_12">
    <!-- Training and validation loss -->
    <g transform="translate(139.59 28.56)scale(0.12 -0.12)">
     <defs>
      <path id="DejaVuSans-54" d="M -19 4666 
L 3928 4666 
L 3928 4134 
L 2272 4134 
L 2272 0 
L 1638 0 
L 1638 4134 
L -19 4134 
L -19 4666 
z
" transform="scale(0.015625)"/>
      <path id="DejaVuSans-72" d="M 2631 2963 
Q 2534 3019 2420 3045 
Q 2306 3072 2169 3072 
Q 1681 3072 1420 2755 
Q 1159 2438 1159 1844 
L 1159 0 
L 581 0 
L 581 3500 
L 1159 3500 
L 1159 2956 
Q 1341 3275 1631 3429 
Q 1922 3584 2338 3584 
Q 2397 3584 2469 3576 
Q 2541 3569 2628 3553 
L 2631 2963 
z
" transform="scale(0.015625)"/>
      <path id="DejaVuSans-61" d="M 2194 1759 
Q 1497 1759 1228 1600 
Q 959 1441 959 1056 
Q 959 750 1161 570 
Q 1363 391 1709 391 
Q 2188 391 2477 730 
Q 2766 1069 2766 1631 
L 2766 1759 
L 2194 1759 
z
M 3341 1997 
L 3341 0 
L 2766 0 
L 2766 531 
Q 2569 213 2275 61 
Q 1981 -91 1556 -91 
Q 1019 -91 701 211 
Q 384 513 384 1019 
Q 384 1609 779 1909 
Q 1175 2209 1959 2209 
L 2766 2209 
L 2766 2266 
Q 2766 2663 2505 2880 
Q 2244 3097 1772 3097 
Q 1472 3097 1187 3025 
Q 903 2953 641 2809 
L 641 3341 
Q 956 3463 1253 3523 
Q 1550 3584 1831 3584 
Q 2591 3584 2966 3190 
Q 3341 2797 3341 1997 
z
" transform="scale(0.015625)"/>
      <path id="DejaVuSans-69" d="M 603 3500 
L 1178 3500 
L 1178 0 
L 603 0 
L 603 3500 
z
M 603 4863 
L 1178 4863 
L 1178 4134 
L 603 4134 
L 603 4863 
z
" transform="scale(0.015625)"/>
      <path id="DejaVuSans-6e" d="M 3513 2113 
L 3513 0 
L 2938 0 
L 2938 2094 
Q 2938 2591 2744 2837 
Q 2550 3084 2163 3084 
Q 1697 3084 1428 2787 
Q 1159 2491 1159 1978 
L 1159 0 
L 581 0 
L 581 3500 
L 1159 3500 
L 1159 2956 
Q 1366 3272 1645 3428 
Q 1925 3584 2291 3584 
Q 2894 3584 3203 3211 
Q 3513 2838 3513 2113 
z
" transform="scale(0.015625)"/>
      <path id="DejaVuSans-67" d="M 2906 1791 
Q 2906 2416 2648 2759 
Q 2391 3103 1925 3103 
Q 1463 3103 1205 2759 
Q 947 2416 947 1791 
Q 947 1169 1205 825 
Q 1463 481 1925 481 
Q 2391 481 2648 825 
Q 2906 1169 2906 1791 
z
M 3481 434 
Q 3481 -459 3084 -895 
Q 2688 -1331 1869 -1331 
Q 1566 -1331 1297 -1286 
Q 1028 -1241 775 -1147 
L 775 -588 
Q 1028 -725 1275 -790 
Q 1522 -856 1778 -856 
Q 2344 -856 2625 -561 
Q 2906 -266 2906 331 
L 2906 616 
Q 2728 306 2450 153 
Q 2172 0 1784 0 
Q 1141 0 747 490 
Q 353 981 353 1791 
Q 353 2603 747 3093 
Q 1141 3584 1784 3584 
Q 2172 3584 2450 3431 
Q 2728 3278 2906 2969 
L 2906 3500 
L 3481 3500 
L 3481 434 
z
" transform="scale(0.015625)"/>
      <path id="DejaVuSans-20" transform="scale(0.015625)"/>
      <path id="DejaVuSans-64" d="M 2906 2969 
L 2906 4863 
L 3481 4863 
L 3481 0 
L 2906 0 
L 2906 525 
Q 2725 213 2448 61 
Q 2172 -91 1784 -91 
Q 1150 -91 751 415 
Q 353 922 353 1747 
Q 353 2572 751 3078 
Q 1150 3584 1784 3584 
Q 2172 3584 2448 3432 
Q 2725 3281 2906 2969 
z
M 947 1747 
Q 947 1113 1208 752 
Q 1469 391 1925 391 
Q 2381 391 2643 752 
Q 2906 1113 2906 1747 
Q 2906 2381 2643 2742 
Q 2381 3103 1925 3103 
Q 1469 3103 1208 2742 
Q 947 2381 947 1747 
z
" transform="scale(0.015625)"/>
      <path id="DejaVuSans-76" d="M 191 3500 
L 800 3500 
L 1894 563 
L 2988 3500 
L 3597 3500 
L 2284 0 
L 1503 0 
L 191 3500 
z
" transform="scale(0.015625)"/>
      <path id="DejaVuSans-6c" d="M 603 4863 
L 1178 4863 
L 1178 0 
L 603 0 
L 603 4863 
z
" transform="scale(0.015625)"/>
      <path id="DejaVuSans-74" d="M 1172 4494 
L 1172 3500 
L 2356 3500 
L 2356 3053 
L 1172 3053 
L 1172 1153 
Q 1172 725 1289 603 
Q 1406 481 1766 481 
L 2356 481 
L 2356 0 
L 1766 0 
Q 1100 0 847 248 
Q 594 497 594 1153 
L 594 3053 
L 172 3053 
L 172 3500 
L 594 3500 
L 594 4494 
L 1172 4494 
z
" transform="scale(0.015625)"/>
      <path id="DejaVuSans-6f" d="M 1959 3097 
Q 1497 3097 1228 2736 
Q 959 2375 959 1747 
Q 959 1119 1226 758 
Q 1494 397 1959 397 
Q 2419 397 2687 759 
Q 2956 1122 2956 1747 
Q 2956 2369 2687 2733 
Q 2419 3097 1959 3097 
z
M 1959 3584 
Q 2709 3584 3137 3096 
Q 3566 2609 3566 1747 
Q 3566 888 3137 398 
Q 2709 -91 1959 -91 
Q 1206 -91 779 398 
Q 353 888 353 1747 
Q 353 2609 779 3096 
Q 1206 3584 1959 3584 
z
" transform="scale(0.015625)"/>
      <path id="DejaVuSans-73" d="M 2834 3397 
L 2834 2853 
Q 2591 2978 2328 3040 
Q 2066 3103 1784 3103 
Q 1356 3103 1142 2972 
Q 928 2841 928 2578 
Q 928 2378 1081 2264 
Q 1234 2150 1697 2047 
L 1894 2003 
Q 2506 1872 2764 1633 
Q 3022 1394 3022 966 
Q 3022 478 2636 193 
Q 2250 -91 1575 -91 
Q 1294 -91 989 -36 
Q 684 19 347 128 
L 347 722 
Q 666 556 975 473 
Q 1284 391 1588 391 
Q 1994 391 2212 530 
Q 2431 669 2431 922 
Q 2431 1156 2273 1281 
Q 2116 1406 1581 1522 
L 1381 1569 
Q 847 1681 609 1914 
Q 372 2147 372 2553 
Q 372 3047 722 3315 
Q 1072 3584 1716 3584 
Q 2034 3584 2315 3537 
Q 2597 3491 2834 3397 
z
" transform="scale(0.015625)"/>
     </defs>
     <use xlink:href="#DejaVuSans-54"/>
     <use xlink:href="#DejaVuSans-72" x="46.333984"/>
     <use xlink:href="#DejaVuSans-61" x="87.447266"/>
     <use xlink:href="#DejaVuSans-69" x="148.726562"/>
     <use xlink:href="#DejaVuSans-6e" x="176.509766"/>
     <use xlink:href="#DejaVuSans-69" x="239.888672"/>
     <use xlink:href="#DejaVuSans-6e" x="267.671875"/>
     <use xlink:href="#DejaVuSans-67" x="331.050781"/>
     <use xlink:href="#DejaVuSans-20" x="394.527344"/>
     <use xlink:href="#DejaVuSans-61" x="426.314453"/>
     <use xlink:href="#DejaVuSans-6e" x="487.59375"/>
     <use xlink:href="#DejaVuSans-64" x="550.972656"/>
     <use xlink:href="#DejaVuSans-20" x="614.449219"/>
     <use xlink:href="#DejaVuSans-76" x="646.236328"/>
     <use xlink:href="#DejaVuSans-61" x="705.416016"/>
     <use xlink:href="#DejaVuSans-6c" x="766.695312"/>
     <use xlink:href="#DejaVuSans-69" x="794.478516"/>
     <use xlink:href="#DejaVuSans-64" x="822.261719"/>
     <use xlink:href="#DejaVuSans-61" x="885.738281"/>
     <use xlink:href="#DejaVuSans-74" x="947.017578"/>
     <use xlink:href="#DejaVuSans-69" x="986.226562"/>
     <use xlink:href="#DejaVuSans-6f" x="1014.009766"/>
     <use xlink:href="#DejaVuSans-6e" x="1075.191406"/>
     <use xlink:href="#DejaVuSans-20" x="1138.570312"/>
     <use xlink:href="#DejaVuSans-6c" x="1170.357422"/>
     <use xlink:href="#DejaVuSans-6f" x="1198.140625"/>
     <use xlink:href="#DejaVuSans-73" x="1259.322266"/>
     <use xlink:href="#DejaVuSans-73" x="1311.421875"/>
    </g>
   </g>
   <g id="legend_1">
    <g id="patch_7">
     <path d="M 275.30625 71.91625 
L 381.8 71.91625 
Q 383.8 71.91625 383.8 69.91625 
L 383.8 41.56 
Q 383.8 39.56 381.8 39.56 
L 275.30625 39.56 
Q 273.30625 39.56 273.30625 41.56 
L 273.30625 69.91625 
Q 273.30625 71.91625 275.30625 71.91625 
z
" style="fill: #ffffff; opacity: 0.8; stroke: #cccccc; stroke-linejoin: miter"/>
    </g>
    <g id="line2d_14">
     <g>
      <use xlink:href="#mdd5e42e1b0" x="287.30625" y="47.658437" style="fill: #0000ff; stroke: #0000ff"/>
     </g>
    </g>
    <g id="text_13">
     <!-- Training Loss -->
     <g transform="translate(305.30625 51.158437)scale(0.1 -0.1)">
      <defs>
       <path id="DejaVuSans-4c" d="M 628 4666 
L 1259 4666 
L 1259 531 
L 3531 531 
L 3531 0 
L 628 0 
L 628 4666 
z
" transform="scale(0.015625)"/>
      </defs>
      <use xlink:href="#DejaVuSans-54"/>
      <use xlink:href="#DejaVuSans-72" x="46.333984"/>
      <use xlink:href="#DejaVuSans-61" x="87.447266"/>
      <use xlink:href="#DejaVuSans-69" x="148.726562"/>
      <use xlink:href="#DejaVuSans-6e" x="176.509766"/>
      <use xlink:href="#DejaVuSans-69" x="239.888672"/>
      <use xlink:href="#DejaVuSans-6e" x="267.671875"/>
      <use xlink:href="#DejaVuSans-67" x="331.050781"/>
      <use xlink:href="#DejaVuSans-20" x="394.527344"/>
      <use xlink:href="#DejaVuSans-4c" x="426.314453"/>
      <use xlink:href="#DejaVuSans-6f" x="480.277344"/>
      <use xlink:href="#DejaVuSans-73" x="541.458984"/>
      <use xlink:href="#DejaVuSans-73" x="593.558594"/>
     </g>
    </g>
    <g id="line2d_15">
     <path d="M 277.30625 62.336562 
L 287.30625 62.336562 
L 297.30625 62.336562 
" style="fill: none; stroke: #0000ff; stroke-width: 1.5; stroke-linecap: square"/>
    </g>
    <g id="text_14">
     <!-- Validation Loss -->
     <g transform="translate(305.30625 65.836562)scale(0.1 -0.1)">
      <defs>
       <path id="DejaVuSans-56" d="M 1831 0 
L 50 4666 
L 709 4666 
L 2188 738 
L 3669 4666 
L 4325 4666 
L 2547 0 
L 1831 0 
z
" transform="scale(0.015625)"/>
      </defs>
      <use xlink:href="#DejaVuSans-56"/>
      <use xlink:href="#DejaVuSans-61" x="60.658203"/>
      <use xlink:href="#DejaVuSans-6c" x="121.9375"/>
      <use xlink:href="#DejaVuSans-69" x="149.720703"/>
      <use xlink:href="#DejaVuSans-64" x="177.503906"/>
      <use xlink:href="#DejaVuSans-61" x="240.980469"/>
      <use xlink:href="#DejaVuSans-74" x="302.259766"/>
      <use xlink:href="#DejaVuSans-69" x="341.46875"/>
      <use xlink:href="#DejaVuSans-6f" x="369.251953"/>
      <use xlink:href="#DejaVuSans-6e" x="430.433594"/>
      <use xlink:href="#DejaVuSans-20" x="493.8125"/>
      <use xlink:href="#DejaVuSans-4c" x="525.599609"/>
      <use xlink:href="#DejaVuSans-6f" x="579.5625"/>
      <use xlink:href="#DejaVuSans-73" x="640.744141"/>
      <use xlink:href="#DejaVuSans-73" x="692.84375"/>
     </g>
    </g>
   </g>
  </g>
 </g>
 <defs>
  <clipPath id="p2ec42593ce">
   <rect x="54" y="34.56" width="334.8" height="217.44"/>
  </clipPath>
 </defs>
</svg>
