<?xml version="1.0" encoding="utf-8" standalone="no"?>
<!DOCTYPE svg PUBLIC "-//W3C//DTD SVG 1.1//EN"
  "http://www.w3.org/Graphics/SVG/1.1/DTD/svg11.dtd">
<svg xmlns:xlink="http://www.w3.org/1999/xlink" width="432pt" height="288pt" viewBox="0 0 432 288" xmlns="http://www.w3.org/2000/svg" version="1.1">
 <metadata>
  <rdf:RDF xmlns:dc="http://purl.org/dc/elements/1.1/" xmlns:cc="http://creativecommons.org/ns#" xmlns:rdf="http://www.w3.org/1999/02/22-rdf-syntax-ns#">
   <cc:Work>
    <dc:type rdf:resource="http://purl.org/dc/dcmitype/StillImage"/>
    <dc:date>2022-07-31T20:35:12.102820</dc:date>
    <dc:format>image/svg+xml</dc:format>
    <dc:creator>
     <cc:Agent>
      <dc:title>Matplotlib v3.5.2, https://matplotlib.org/</dc:title>
     </cc:Agent>
    </dc:creator>
   </cc:Work>
  </rdf:RDF>
 </metadata>
 <defs>
  <style type="text/css">*{stroke-linejoin: round; stroke-linecap: butt}</style>
 </defs>
 <g id="figure_1">
  <g id="patch_1">
   <path d="M 0 288 
L 432 288 
L 432 0 
L 0 0 
L 0 288 
z
" style="fill: none"/>
  </g>
  <g id="axes_1">
   <g id="patch_2">
    <path d="M 54 252 
L 388.8 252 
L 388.8 34.56 
L 54 34.56 
z
" style="fill: #ffffff"/>
   </g>
   <g id="matplotlib.axis_1">
    <g id="xtick_1">
     <g id="line2d_1">
      <defs>
       <path id="m2d487091a3" d="M 0 0 
L 0 3.5 
" style="stroke: #000000; stroke-width: 0.8"/>
      </defs>
      <g>
       <use xlink:href="#m2d487091a3" x="69.218182" y="252" style="stroke: #000000; stroke-width: 0.8"/>
      </g>
     </g>
     <g id="text_1">
      <!-- 0 -->
      <g transform="translate(66.036932 266.598437)scale(0.1 -0.1)">
       <defs>
        <path id="DejaVuSans-30" d="M 2034 4250 
Q 1547 4250 1301 3770 
Q 1056 3291 1056 2328 
Q 1056 1369 1301 889 
Q 1547 409 2034 409 
Q 2525 409 2770 889 
Q 3016 1369 3016 2328 
Q 3016 3291 2770 3770 
Q 2525 4250 2034 4250 
z
M 2034 4750 
Q 2819 4750 3233 4129 
Q 3647 3509 3647 2328 
Q 3647 1150 3233 529 
Q 2819 -91 2034 -91 
Q 1250 -91 836 529 
Q 422 1150 422 2328 
Q 422 3509 836 4129 
Q 1250 4750 2034 4750 
z
" transform="scale(0.015625)"/>
       </defs>
       <use xlink:href="#DejaVuSans-30"/>
      </g>
     </g>
    </g>
    <g id="xtick_2">
     <g id="line2d_2">
      <g>
       <use xlink:href="#m2d487091a3" x="110.072361" y="252" style="stroke: #000000; stroke-width: 0.8"/>
      </g>
     </g>
     <g id="text_2">
      <!-- 20 -->
      <g transform="translate(103.709861 266.598437)scale(0.1 -0.1)">
       <defs>
        <path id="DejaVuSans-32" d="M 1228 531 
L 3431 531 
L 3431 0 
L 469 0 
L 469 531 
Q 828 903 1448 1529 
Q 2069 2156 2228 2338 
Q 2531 2678 2651 2914 
Q 2772 3150 2772 3378 
Q 2772 3750 2511 3984 
Q 2250 4219 1831 4219 
Q 1534 4219 1204 4116 
Q 875 4013 500 3803 
L 500 4441 
Q 881 4594 1212 4672 
Q 1544 4750 1819 4750 
Q 2544 4750 2975 4387 
Q 3406 4025 3406 3419 
Q 3406 3131 3298 2873 
Q 3191 2616 2906 2266 
Q 2828 2175 2409 1742 
Q 1991 1309 1228 531 
z
" transform="scale(0.015625)"/>
       </defs>
       <use xlink:href="#DejaVuSans-32"/>
       <use xlink:href="#DejaVuSans-30" x="63.623047"/>
      </g>
     </g>
    </g>
    <g id="xtick_3">
     <g id="line2d_3">
      <g>
       <use xlink:href="#m2d487091a3" x="150.926541" y="252" style="stroke: #000000; stroke-width: 0.8"/>
      </g>
     </g>
     <g id="text_3">
      <!-- 40 -->
      <g transform="translate(144.564041 266.598437)scale(0.1 -0.1)">
       <defs>
        <path id="DejaVuSans-34" d="M 2419 4116 
L 825 1625 
L 2419 1625 
L 2419 4116 
z
M 2253 4666 
L 3047 4666 
L 3047 1625 
L 3713 1625 
L 3713 1100 
L 3047 1100 
L 3047 0 
L 2419 0 
L 2419 1100 
L 313 1100 
L 313 1709 
L 2253 4666 
z
" transform="scale(0.015625)"/>
       </defs>
       <use xlink:href="#DejaVuSans-34"/>
       <use xlink:href="#DejaVuSans-30" x="63.623047"/>
      </g>
     </g>
    </g>
    <g id="xtick_4">
     <g id="line2d_4">
      <g>
       <use xlink:href="#m2d487091a3" x="191.78072" y="252" style="stroke: #000000; stroke-width: 0.8"/>
      </g>
     </g>
     <g id="text_4">
      <!-- 60 -->
      <g transform="translate(185.41822 266.598437)scale(0.1 -0.1)">
       <defs>
        <path id="DejaVuSans-36" d="M 2113 2584 
Q 1688 2584 1439 2293 
Q 1191 2003 1191 1497 
Q 1191 994 1439 701 
Q 1688 409 2113 409 
Q 2538 409 2786 701 
Q 3034 994 3034 1497 
Q 3034 2003 2786 2293 
Q 2538 2584 2113 2584 
z
M 3366 4563 
L 3366 3988 
Q 3128 4100 2886 4159 
Q 2644 4219 2406 4219 
Q 1781 4219 1451 3797 
Q 1122 3375 1075 2522 
Q 1259 2794 1537 2939 
Q 1816 3084 2150 3084 
Q 2853 3084 3261 2657 
Q 3669 2231 3669 1497 
Q 3669 778 3244 343 
Q 2819 -91 2113 -91 
Q 1303 -91 875 529 
Q 447 1150 447 2328 
Q 447 3434 972 4092 
Q 1497 4750 2381 4750 
Q 2619 4750 2861 4703 
Q 3103 4656 3366 4563 
z
" transform="scale(0.015625)"/>
       </defs>
       <use xlink:href="#DejaVuSans-36"/>
       <use xlink:href="#DejaVuSans-30" x="63.623047"/>
      </g>
     </g>
    </g>
    <g id="xtick_5">
     <g id="line2d_5">
      <g>
       <use xlink:href="#m2d487091a3" x="232.634899" y="252" style="stroke: #000000; stroke-width: 0.8"/>
      </g>
     </g>
     <g id="text_5">
      <!-- 80 -->
      <g transform="translate(226.272399 266.598437)scale(0.1 -0.1)">
       <defs>
        <path id="DejaVuSans-38" d="M 2034 2216 
Q 1584 2216 1326 1975 
Q 1069 1734 1069 1313 
Q 1069 891 1326 650 
Q 1584 409 2034 409 
Q 2484 409 2743 651 
Q 3003 894 3003 1313 
Q 3003 1734 2745 1975 
Q 2488 2216 2034 2216 
z
M 1403 2484 
Q 997 2584 770 2862 
Q 544 3141 544 3541 
Q 544 4100 942 4425 
Q 1341 4750 2034 4750 
Q 2731 4750 3128 4425 
Q 3525 4100 3525 3541 
Q 3525 3141 3298 2862 
Q 3072 2584 2669 2484 
Q 3125 2378 3379 2068 
Q 3634 1759 3634 1313 
Q 3634 634 3220 271 
Q 2806 -91 2034 -91 
Q 1263 -91 848 271 
Q 434 634 434 1313 
Q 434 1759 690 2068 
Q 947 2378 1403 2484 
z
M 1172 3481 
Q 1172 3119 1398 2916 
Q 1625 2713 2034 2713 
Q 2441 2713 2670 2916 
Q 2900 3119 2900 3481 
Q 2900 3844 2670 4047 
Q 2441 4250 2034 4250 
Q 1625 4250 1398 4047 
Q 1172 3844 1172 3481 
z
" transform="scale(0.015625)"/>
       </defs>
       <use xlink:href="#DejaVuSans-38"/>
       <use xlink:href="#DejaVuSans-30" x="63.623047"/>
      </g>
     </g>
    </g>
    <g id="xtick_6">
     <g id="line2d_6">
      <g>
       <use xlink:href="#m2d487091a3" x="273.489079" y="252" style="stroke: #000000; stroke-width: 0.8"/>
      </g>
     </g>
     <g id="text_6">
      <!-- 100 -->
      <g transform="translate(263.945329 266.598437)scale(0.1 -0.1)">
       <defs>
        <path id="DejaVuSans-31" d="M 794 531 
L 1825 531 
L 1825 4091 
L 703 3866 
L 703 4441 
L 1819 4666 
L 2450 4666 
L 2450 531 
L 3481 531 
L 3481 0 
L 794 0 
L 794 531 
z
" transform="scale(0.015625)"/>
       </defs>
       <use xlink:href="#DejaVuSans-31"/>
       <use xlink:href="#DejaVuSans-30" x="63.623047"/>
       <use xlink:href="#DejaVuSans-30" x="127.246094"/>
      </g>
     </g>
    </g>
    <g id="xtick_7">
     <g id="line2d_7">
      <g>
       <use xlink:href="#m2d487091a3" x="314.343258" y="252" style="stroke: #000000; stroke-width: 0.8"/>
      </g>
     </g>
     <g id="text_7">
      <!-- 120 -->
      <g transform="translate(304.799508 266.598437)scale(0.1 -0.1)">
       <use xlink:href="#DejaVuSans-31"/>
       <use xlink:href="#DejaVuSans-32" x="63.623047"/>
       <use xlink:href="#DejaVuSans-30" x="127.246094"/>
      </g>
     </g>
    </g>
    <g id="xtick_8">
     <g id="line2d_8">
      <g>
       <use xlink:href="#m2d487091a3" x="355.197437" y="252" style="stroke: #000000; stroke-width: 0.8"/>
      </g>
     </g>
     <g id="text_8">
      <!-- 140 -->
      <g transform="translate(345.653687 266.598437)scale(0.1 -0.1)">
       <use xlink:href="#DejaVuSans-31"/>
       <use xlink:href="#DejaVuSans-34" x="63.623047"/>
       <use xlink:href="#DejaVuSans-30" x="127.246094"/>
      </g>
     </g>
    </g>
   </g>
   <g id="matplotlib.axis_2">
    <g id="ytick_1">
     <g id="line2d_9">
      <defs>
       <path id="mb7788983ae" d="M 0 0 
L -3.5 0 
" style="stroke: #000000; stroke-width: 0.8"/>
      </defs>
      <g>
       <use xlink:href="#mb7788983ae" x="54" y="242.116364" style="stroke: #000000; stroke-width: 0.8"/>
      </g>
     </g>
     <g id="text_9">
      <!-- 0.0 -->
      <g transform="translate(31.096875 245.915582)scale(0.1 -0.1)">
       <defs>
        <path id="DejaVuSans-2e" d="M 684 794 
L 1344 794 
L 1344 0 
L 684 0 
L 684 794 
z
" transform="scale(0.015625)"/>
       </defs>
       <use xlink:href="#DejaVuSans-30"/>
       <use xlink:href="#DejaVuSans-2e" x="63.623047"/>
       <use xlink:href="#DejaVuSans-30" x="95.410156"/>
      </g>
     </g>
    </g>
    <g id="ytick_2">
     <g id="line2d_10">
      <g>
       <use xlink:href="#mb7788983ae" x="54" y="204.633982" style="stroke: #000000; stroke-width: 0.8"/>
      </g>
     </g>
     <g id="text_10">
      <!-- 0.1 -->
      <g transform="translate(31.096875 208.433201)scale(0.1 -0.1)">
       <use xlink:href="#DejaVuSans-30"/>
       <use xlink:href="#DejaVuSans-2e" x="63.623047"/>
       <use xlink:href="#DejaVuSans-31" x="95.410156"/>
      </g>
     </g>
    </g>
    <g id="ytick_3">
     <g id="line2d_11">
      <g>
       <use xlink:href="#mb7788983ae" x="54" y="167.1516" style="stroke: #000000; stroke-width: 0.8"/>
      </g>
     </g>
     <g id="text_11">
      <!-- 0.2 -->
      <g transform="translate(31.096875 170.950819)scale(0.1 -0.1)">
       <use xlink:href="#DejaVuSans-30"/>
       <use xlink:href="#DejaVuSans-2e" x="63.623047"/>
       <use xlink:href="#DejaVuSans-32" x="95.410156"/>
      </g>
     </g>
    </g>
    <g id="ytick_4">
     <g id="line2d_12">
      <g>
       <use xlink:href="#mb7788983ae" x="54" y="129.669218" style="stroke: #000000; stroke-width: 0.8"/>
      </g>
     </g>
     <g id="text_12">
      <!-- 0.3 -->
      <g transform="translate(31.096875 133.468437)scale(0.1 -0.1)">
       <defs>
        <path id="DejaVuSans-33" d="M 2597 2516 
Q 3050 2419 3304 2112 
Q 3559 1806 3559 1356 
Q 3559 666 3084 287 
Q 2609 -91 1734 -91 
Q 1441 -91 1130 -33 
Q 819 25 488 141 
L 488 750 
Q 750 597 1062 519 
Q 1375 441 1716 441 
Q 2309 441 2620 675 
Q 2931 909 2931 1356 
Q 2931 1769 2642 2001 
Q 2353 2234 1838 2234 
L 1294 2234 
L 1294 2753 
L 1863 2753 
Q 2328 2753 2575 2939 
Q 2822 3125 2822 3475 
Q 2822 3834 2567 4026 
Q 2313 4219 1838 4219 
Q 1578 4219 1281 4162 
Q 984 4106 628 3988 
L 628 4550 
Q 988 4650 1302 4700 
Q 1616 4750 1894 4750 
Q 2613 4750 3031 4423 
Q 3450 4097 3450 3541 
Q 3450 3153 3228 2886 
Q 3006 2619 2597 2516 
z
" transform="scale(0.015625)"/>
       </defs>
       <use xlink:href="#DejaVuSans-30"/>
       <use xlink:href="#DejaVuSans-2e" x="63.623047"/>
       <use xlink:href="#DejaVuSans-33" x="95.410156"/>
      </g>
     </g>
    </g>
    <g id="ytick_5">
     <g id="line2d_13">
      <g>
       <use xlink:href="#mb7788983ae" x="54" y="92.186836" style="stroke: #000000; stroke-width: 0.8"/>
      </g>
     </g>
     <g id="text_13">
      <!-- 0.4 -->
      <g transform="translate(31.096875 95.986055)scale(0.1 -0.1)">
       <use xlink:href="#DejaVuSans-30"/>
       <use xlink:href="#DejaVuSans-2e" x="63.623047"/>
       <use xlink:href="#DejaVuSans-34" x="95.410156"/>
      </g>
     </g>
    </g>
    <g id="ytick_6">
     <g id="line2d_14">
      <g>
       <use xlink:href="#mb7788983ae" x="54" y="54.704454" style="stroke: #000000; stroke-width: 0.8"/>
      </g>
     </g>
     <g id="text_14">
      <!-- 0.5 -->
      <g transform="translate(31.096875 58.503673)scale(0.1 -0.1)">
       <defs>
        <path id="DejaVuSans-35" d="M 691 4666 
L 3169 4666 
L 3169 4134 
L 1269 4134 
L 1269 2991 
Q 1406 3038 1543 3061 
Q 1681 3084 1819 3084 
Q 2600 3084 3056 2656 
Q 3513 2228 3513 1497 
Q 3513 744 3044 326 
Q 2575 -91 1722 -91 
Q 1428 -91 1123 -41 
Q 819 9 494 109 
L 494 744 
Q 775 591 1075 516 
Q 1375 441 1709 441 
Q 2250 441 2565 725 
Q 2881 1009 2881 1497 
Q 2881 1984 2565 2268 
Q 2250 2553 1709 2553 
Q 1456 2553 1204 2497 
Q 953 2441 691 2322 
L 691 4666 
z
" transform="scale(0.015625)"/>
       </defs>
       <use xlink:href="#DejaVuSans-30"/>
       <use xlink:href="#DejaVuSans-2e" x="63.623047"/>
       <use xlink:href="#DejaVuSans-35" x="95.410156"/>
      </g>
     </g>
    </g>
   </g>
   <g id="line2d_15">
    <defs>
     <path id="m0fe1fbabd3" d="M 0 3 
C 0.795609 3 1.55874 2.683901 2.12132 2.12132 
C 2.683901 1.55874 3 0.795609 3 0 
C 3 -0.795609 2.683901 -1.55874 2.12132 -2.12132 
C 1.55874 -2.683901 0.795609 -3 0 -3 
C -0.795609 -3 -1.55874 -2.683901 -2.12132 -2.12132 
C -2.683901 -1.55874 -3 -0.795609 -3 0 
C -3 0.795609 -2.683901 1.55874 -2.12132 2.12132 
C -1.55874 2.683901 -0.795609 3 0 3 
z
" style="stroke: #0000ff"/>
    </defs>
    <g clip-path="url(#peb91cdd7b9)">
     <use xlink:href="#m0fe1fbabd3" x="69.218182" y="242.116364" style="fill: #0000ff; stroke: #0000ff"/>
     <use xlink:href="#m0fe1fbabd3" x="71.260891" y="242.116364" style="fill: #0000ff; stroke: #0000ff"/>
     <use xlink:href="#m0fe1fbabd3" x="73.3036" y="242.022658" style="fill: #0000ff; stroke: #0000ff"/>
     <use xlink:href="#m0fe1fbabd3" x="75.346309" y="241.413569" style="fill: #0000ff; stroke: #0000ff"/>
     <use xlink:href="#m0fe1fbabd3" x="77.389018" y="238.696096" style="fill: #0000ff; stroke: #0000ff"/>
     <use xlink:href="#m0fe1fbabd3" x="79.431727" y="237.477919" style="fill: #0000ff; stroke: #0000ff"/>
     <use xlink:href="#m0fe1fbabd3" x="81.474436" y="232.93318" style="fill: #0000ff; stroke: #0000ff"/>
     <use xlink:href="#m0fe1fbabd3" x="83.517145" y="224.59335" style="fill: #0000ff; stroke: #0000ff"/>
     <use xlink:href="#m0fe1fbabd3" x="85.559854" y="218.736727" style="fill: #0000ff; stroke: #0000ff"/>
     <use xlink:href="#m0fe1fbabd3" x="87.602563" y="221.032523" style="fill: #0000ff; stroke: #0000ff"/>
     <use xlink:href="#m0fe1fbabd3" x="89.645272" y="214.754222" style="fill: #0000ff; stroke: #0000ff"/>
     <use xlink:href="#m0fe1fbabd3" x="91.68798" y="208.8976" style="fill: #0000ff; stroke: #0000ff"/>
     <use xlink:href="#m0fe1fbabd3" x="93.730689" y="193.810943" style="fill: #0000ff; stroke: #0000ff"/>
     <use xlink:href="#m0fe1fbabd3" x="95.773398" y="207.866837" style="fill: #0000ff; stroke: #0000ff"/>
     <use xlink:href="#m0fe1fbabd3" x="97.816107" y="192.452205" style="fill: #0000ff; stroke: #0000ff"/>
     <use xlink:href="#m0fe1fbabd3" x="99.858816" y="203.790627" style="fill: #0000ff; stroke: #0000ff"/>
     <use xlink:href="#m0fe1fbabd3" x="101.901525" y="195.357091" style="fill: #0000ff; stroke: #0000ff"/>
     <use xlink:href="#m0fe1fbabd3" x="103.944234" y="175.538277" style="fill: #0000ff; stroke: #0000ff"/>
     <use xlink:href="#m0fe1fbabd3" x="105.986943" y="176.381631" style="fill: #0000ff; stroke: #0000ff"/>
     <use xlink:href="#m0fe1fbabd3" x="108.029652" y="179.848751" style="fill: #0000ff; stroke: #0000ff"/>
     <use xlink:href="#m0fe1fbabd3" x="110.072361" y="161.482386" style="fill: #0000ff; stroke: #0000ff"/>
     <use xlink:href="#m0fe1fbabd3" x="112.11507" y="146.911111" style="fill: #0000ff; stroke: #0000ff"/>
     <use xlink:href="#m0fe1fbabd3" x="114.157779" y="136.041215" style="fill: #0000ff; stroke: #0000ff"/>
     <use xlink:href="#m0fe1fbabd3" x="116.200488" y="128.029355" style="fill: #0000ff; stroke: #0000ff"/>
     <use xlink:href="#m0fe1fbabd3" x="118.243197" y="122.781822" style="fill: #0000ff; stroke: #0000ff"/>
     <use xlink:href="#m0fe1fbabd3" x="120.285906" y="116.597231" style="fill: #0000ff; stroke: #0000ff"/>
     <use xlink:href="#m0fe1fbabd3" x="122.328615" y="110.36579" style="fill: #0000ff; stroke: #0000ff"/>
     <use xlink:href="#m0fe1fbabd3" x="124.371324" y="105.821045" style="fill: #0000ff; stroke: #0000ff"/>
     <use xlink:href="#m0fe1fbabd3" x="126.414033" y="100.104983" style="fill: #0000ff; stroke: #0000ff"/>
     <use xlink:href="#m0fe1fbabd3" x="128.456742" y="96.731567" style="fill: #0000ff; stroke: #0000ff"/>
     <use xlink:href="#m0fe1fbabd3" x="130.499451" y="92.608503" style="fill: #0000ff; stroke: #0000ff"/>
     <use xlink:href="#m0fe1fbabd3" x="132.54216" y="89.563067" style="fill: #0000ff; stroke: #0000ff"/>
     <use xlink:href="#m0fe1fbabd3" x="134.584869" y="85.814822" style="fill: #0000ff; stroke: #0000ff"/>
     <use xlink:href="#m0fe1fbabd3" x="136.627578" y="83.097356" style="fill: #0000ff; stroke: #0000ff"/>
     <use xlink:href="#m0fe1fbabd3" x="138.670287" y="81.410648" style="fill: #0000ff; stroke: #0000ff"/>
     <use xlink:href="#m0fe1fbabd3" x="140.712996" y="79.77079" style="fill: #0000ff; stroke: #0000ff"/>
     <use xlink:href="#m0fe1fbabd3" x="142.755705" y="77.615553" style="fill: #0000ff; stroke: #0000ff"/>
     <use xlink:href="#m0fe1fbabd3" x="144.798414" y="75.460316" style="fill: #0000ff; stroke: #0000ff"/>
     <use xlink:href="#m0fe1fbabd3" x="146.841123" y="73.351928" style="fill: #0000ff; stroke: #0000ff"/>
     <use xlink:href="#m0fe1fbabd3" x="148.883832" y="72.7897" style="fill: #0000ff; stroke: #0000ff"/>
     <use xlink:href="#m0fe1fbabd3" x="150.926541" y="71.712081" style="fill: #0000ff; stroke: #0000ff"/>
     <use xlink:href="#m0fe1fbabd3" x="152.96925" y="69.556844" style="fill: #0000ff; stroke: #0000ff"/>
     <use xlink:href="#m0fe1fbabd3" x="155.011959" y="67.963835" style="fill: #0000ff; stroke: #0000ff"/>
     <use xlink:href="#m0fe1fbabd3" x="157.054667" y="66.886217" style="fill: #0000ff; stroke: #0000ff"/>
     <use xlink:href="#m0fe1fbabd3" x="159.097376" y="66.136568" style="fill: #0000ff; stroke: #0000ff"/>
     <use xlink:href="#m0fe1fbabd3" x="161.140085" y="65.10581" style="fill: #0000ff; stroke: #0000ff"/>
     <use xlink:href="#m0fe1fbabd3" x="163.182794" y="64.075041" style="fill: #0000ff; stroke: #0000ff"/>
     <use xlink:href="#m0fe1fbabd3" x="165.225503" y="63.137982" style="fill: #0000ff; stroke: #0000ff"/>
     <use xlink:href="#m0fe1fbabd3" x="167.268212" y="62.575743" style="fill: #0000ff; stroke: #0000ff"/>
     <use xlink:href="#m0fe1fbabd3" x="169.310921" y="62.060364" style="fill: #0000ff; stroke: #0000ff"/>
     <use xlink:href="#m0fe1fbabd3" x="171.35363" y="61.591834" style="fill: #0000ff; stroke: #0000ff"/>
     <use xlink:href="#m0fe1fbabd3" x="173.396339" y="61.029595" style="fill: #0000ff; stroke: #0000ff"/>
     <use xlink:href="#m0fe1fbabd3" x="175.439048" y="60.420505" style="fill: #0000ff; stroke: #0000ff"/>
     <use xlink:href="#m0fe1fbabd3" x="177.481757" y="60.045686" style="fill: #0000ff; stroke: #0000ff"/>
     <use xlink:href="#m0fe1fbabd3" x="179.524466" y="59.436597" style="fill: #0000ff; stroke: #0000ff"/>
     <use xlink:href="#m0fe1fbabd3" x="181.567175" y="58.827508" style="fill: #0000ff; stroke: #0000ff"/>
     <use xlink:href="#m0fe1fbabd3" x="183.609884" y="58.312129" style="fill: #0000ff; stroke: #0000ff"/>
     <use xlink:href="#m0fe1fbabd3" x="185.652593" y="57.796739" style="fill: #0000ff; stroke: #0000ff"/>
     <use xlink:href="#m0fe1fbabd3" x="187.695302" y="57.37507" style="fill: #0000ff; stroke: #0000ff"/>
     <use xlink:href="#m0fe1fbabd3" x="189.738011" y="57.23451" style="fill: #0000ff; stroke: #0000ff"/>
     <use xlink:href="#m0fe1fbabd3" x="191.78072" y="56.297452" style="fill: #0000ff; stroke: #0000ff"/>
     <use xlink:href="#m0fe1fbabd3" x="193.823429" y="55.969471" style="fill: #0000ff; stroke: #0000ff"/>
     <use xlink:href="#m0fe1fbabd3" x="195.866138" y="55.969471" style="fill: #0000ff; stroke: #0000ff"/>
     <use xlink:href="#m0fe1fbabd3" x="197.908847" y="54.985563" style="fill: #0000ff; stroke: #0000ff"/>
     <use xlink:href="#m0fe1fbabd3" x="199.951556" y="54.891853" style="fill: #0000ff; stroke: #0000ff"/>
     <use xlink:href="#m0fe1fbabd3" x="201.994265" y="54.517034" style="fill: #0000ff; stroke: #0000ff"/>
     <use xlink:href="#m0fe1fbabd3" x="204.036974" y="53.720524" style="fill: #0000ff; stroke: #0000ff"/>
     <use xlink:href="#m0fe1fbabd3" x="206.079683" y="53.579975" style="fill: #0000ff; stroke: #0000ff"/>
     <use xlink:href="#m0fe1fbabd3" x="208.122392" y="53.064585" style="fill: #0000ff; stroke: #0000ff"/>
     <use xlink:href="#m0fe1fbabd3" x="210.165101" y="52.736615" style="fill: #0000ff; stroke: #0000ff"/>
     <use xlink:href="#m0fe1fbabd3" x="212.20781" y="52.174376" style="fill: #0000ff; stroke: #0000ff"/>
     <use xlink:href="#m0fe1fbabd3" x="214.250519" y="51.893256" style="fill: #0000ff; stroke: #0000ff"/>
     <use xlink:href="#m0fe1fbabd3" x="216.293228" y="51.612159" style="fill: #0000ff; stroke: #0000ff"/>
     <use xlink:href="#m0fe1fbabd3" x="218.335937" y="51.190468" style="fill: #0000ff; stroke: #0000ff"/>
     <use xlink:href="#m0fe1fbabd3" x="220.378646" y="51.049919" style="fill: #0000ff; stroke: #0000ff"/>
     <use xlink:href="#m0fe1fbabd3" x="222.421354" y="50.39398" style="fill: #0000ff; stroke: #0000ff"/>
     <use xlink:href="#m0fe1fbabd3" x="224.464063" y="50.11286" style="fill: #0000ff; stroke: #0000ff"/>
     <use xlink:href="#m0fe1fbabd3" x="226.506772" y="49.92544" style="fill: #0000ff; stroke: #0000ff"/>
     <use xlink:href="#m0fe1fbabd3" x="228.549481" y="49.738019" style="fill: #0000ff; stroke: #0000ff"/>
     <use xlink:href="#m0fe1fbabd3" x="230.59219" y="49.59747" style="fill: #0000ff; stroke: #0000ff"/>
     <use xlink:href="#m0fe1fbabd3" x="232.634899" y="49.31635" style="fill: #0000ff; stroke: #0000ff"/>
     <use xlink:href="#m0fe1fbabd3" x="234.677608" y="49.128952" style="fill: #0000ff; stroke: #0000ff"/>
     <use xlink:href="#m0fe1fbabd3" x="236.720317" y="48.847832" style="fill: #0000ff; stroke: #0000ff"/>
     <use xlink:href="#m0fe1fbabd3" x="238.763026" y="48.613562" style="fill: #0000ff; stroke: #0000ff"/>
     <use xlink:href="#m0fe1fbabd3" x="240.805735" y="48.519863" style="fill: #0000ff; stroke: #0000ff"/>
     <use xlink:href="#m0fe1fbabd3" x="242.848444" y="48.332442" style="fill: #0000ff; stroke: #0000ff"/>
     <use xlink:href="#m0fe1fbabd3" x="244.891153" y="48.051322" style="fill: #0000ff; stroke: #0000ff"/>
     <use xlink:href="#m0fe1fbabd3" x="246.933862" y="48.051322" style="fill: #0000ff; stroke: #0000ff"/>
     <use xlink:href="#m0fe1fbabd3" x="248.976571" y="48.004473" style="fill: #0000ff; stroke: #0000ff"/>
     <use xlink:href="#m0fe1fbabd3" x="251.01928" y="47.723353" style="fill: #0000ff; stroke: #0000ff"/>
     <use xlink:href="#m0fe1fbabd3" x="253.061989" y="47.676503" style="fill: #0000ff; stroke: #0000ff"/>
     <use xlink:href="#m0fe1fbabd3" x="255.104698" y="47.582782" style="fill: #0000ff; stroke: #0000ff"/>
     <use xlink:href="#m0fe1fbabd3" x="257.147407" y="47.629654" style="fill: #0000ff; stroke: #0000ff"/>
     <use xlink:href="#m0fe1fbabd3" x="259.190116" y="47.442233" style="fill: #0000ff; stroke: #0000ff"/>
     <use xlink:href="#m0fe1fbabd3" x="261.232825" y="47.301684" style="fill: #0000ff; stroke: #0000ff"/>
     <use xlink:href="#m0fe1fbabd3" x="263.275534" y="47.395383" style="fill: #0000ff; stroke: #0000ff"/>
     <use xlink:href="#m0fe1fbabd3" x="265.318243" y="47.254812" style="fill: #0000ff; stroke: #0000ff"/>
     <use xlink:href="#m0fe1fbabd3" x="267.360952" y="47.020564" style="fill: #0000ff; stroke: #0000ff"/>
     <use xlink:href="#m0fe1fbabd3" x="269.403661" y="47.067414" style="fill: #0000ff; stroke: #0000ff"/>
     <use xlink:href="#m0fe1fbabd3" x="271.44637" y="46.926843" style="fill: #0000ff; stroke: #0000ff"/>
     <use xlink:href="#m0fe1fbabd3" x="273.489079" y="46.879993" style="fill: #0000ff; stroke: #0000ff"/>
     <use xlink:href="#m0fe1fbabd3" x="275.531788" y="46.692595" style="fill: #0000ff; stroke: #0000ff"/>
     <use xlink:href="#m0fe1fbabd3" x="277.574497" y="46.505174" style="fill: #0000ff; stroke: #0000ff"/>
     <use xlink:href="#m0fe1fbabd3" x="279.617206" y="46.505174" style="fill: #0000ff; stroke: #0000ff"/>
     <use xlink:href="#m0fe1fbabd3" x="281.659915" y="46.411475" style="fill: #0000ff; stroke: #0000ff"/>
     <use xlink:href="#m0fe1fbabd3" x="283.702624" y="46.317754" style="fill: #0000ff; stroke: #0000ff"/>
     <use xlink:href="#m0fe1fbabd3" x="285.745333" y="46.177205" style="fill: #0000ff; stroke: #0000ff"/>
     <use xlink:href="#m0fe1fbabd3" x="287.788041" y="46.224055" style="fill: #0000ff; stroke: #0000ff"/>
     <use xlink:href="#m0fe1fbabd3" x="289.83075" y="46.224055" style="fill: #0000ff; stroke: #0000ff"/>
     <use xlink:href="#m0fe1fbabd3" x="291.873459" y="46.130355" style="fill: #0000ff; stroke: #0000ff"/>
     <use xlink:href="#m0fe1fbabd3" x="293.916168" y="46.036634" style="fill: #0000ff; stroke: #0000ff"/>
     <use xlink:href="#m0fe1fbabd3" x="295.958877" y="45.942935" style="fill: #0000ff; stroke: #0000ff"/>
     <use xlink:href="#m0fe1fbabd3" x="298.001586" y="45.942935" style="fill: #0000ff; stroke: #0000ff"/>
     <use xlink:href="#m0fe1fbabd3" x="300.044295" y="45.989784" style="fill: #0000ff; stroke: #0000ff"/>
     <use xlink:href="#m0fe1fbabd3" x="302.087004" y="45.802386" style="fill: #0000ff; stroke: #0000ff"/>
     <use xlink:href="#m0fe1fbabd3" x="304.129713" y="45.755536" style="fill: #0000ff; stroke: #0000ff"/>
     <use xlink:href="#m0fe1fbabd3" x="306.172422" y="45.708664" style="fill: #0000ff; stroke: #0000ff"/>
     <use xlink:href="#m0fe1fbabd3" x="308.215131" y="45.755536" style="fill: #0000ff; stroke: #0000ff"/>
     <use xlink:href="#m0fe1fbabd3" x="310.25784" y="45.708664" style="fill: #0000ff; stroke: #0000ff"/>
     <use xlink:href="#m0fe1fbabd3" x="312.300549" y="45.708664" style="fill: #0000ff; stroke: #0000ff"/>
     <use xlink:href="#m0fe1fbabd3" x="314.343258" y="45.708664" style="fill: #0000ff; stroke: #0000ff"/>
     <use xlink:href="#m0fe1fbabd3" x="316.385967" y="45.708664" style="fill: #0000ff; stroke: #0000ff"/>
     <use xlink:href="#m0fe1fbabd3" x="318.428676" y="45.568116" style="fill: #0000ff; stroke: #0000ff"/>
     <use xlink:href="#m0fe1fbabd3" x="320.471385" y="45.521266" style="fill: #0000ff; stroke: #0000ff"/>
     <use xlink:href="#m0fe1fbabd3" x="322.514094" y="45.427545" style="fill: #0000ff; stroke: #0000ff"/>
     <use xlink:href="#m0fe1fbabd3" x="324.556803" y="45.427545" style="fill: #0000ff; stroke: #0000ff"/>
     <use xlink:href="#m0fe1fbabd3" x="326.599512" y="45.427545" style="fill: #0000ff; stroke: #0000ff"/>
     <use xlink:href="#m0fe1fbabd3" x="328.642221" y="45.380695" style="fill: #0000ff; stroke: #0000ff"/>
     <use xlink:href="#m0fe1fbabd3" x="330.68493" y="45.286996" style="fill: #0000ff; stroke: #0000ff"/>
     <use xlink:href="#m0fe1fbabd3" x="332.727639" y="45.240146" style="fill: #0000ff; stroke: #0000ff"/>
     <use xlink:href="#m0fe1fbabd3" x="334.770348" y="45.193297" style="fill: #0000ff; stroke: #0000ff"/>
     <use xlink:href="#m0fe1fbabd3" x="336.813057" y="45.052726" style="fill: #0000ff; stroke: #0000ff"/>
     <use xlink:href="#m0fe1fbabd3" x="338.855766" y="45.005876" style="fill: #0000ff; stroke: #0000ff"/>
     <use xlink:href="#m0fe1fbabd3" x="340.898475" y="45.146447" style="fill: #0000ff; stroke: #0000ff"/>
     <use xlink:href="#m0fe1fbabd3" x="342.941184" y="44.959026" style="fill: #0000ff; stroke: #0000ff"/>
     <use xlink:href="#m0fe1fbabd3" x="344.983893" y="44.959026" style="fill: #0000ff; stroke: #0000ff"/>
     <use xlink:href="#m0fe1fbabd3" x="347.026602" y="44.959026" style="fill: #0000ff; stroke: #0000ff"/>
     <use xlink:href="#m0fe1fbabd3" x="349.069311" y="44.959026" style="fill: #0000ff; stroke: #0000ff"/>
     <use xlink:href="#m0fe1fbabd3" x="351.11202" y="44.912177" style="fill: #0000ff; stroke: #0000ff"/>
     <use xlink:href="#m0fe1fbabd3" x="353.154728" y="44.818478" style="fill: #0000ff; stroke: #0000ff"/>
     <use xlink:href="#m0fe1fbabd3" x="355.197437" y="44.677907" style="fill: #0000ff; stroke: #0000ff"/>
     <use xlink:href="#m0fe1fbabd3" x="357.240146" y="44.818478" style="fill: #0000ff; stroke: #0000ff"/>
     <use xlink:href="#m0fe1fbabd3" x="359.282855" y="44.724756" style="fill: #0000ff; stroke: #0000ff"/>
     <use xlink:href="#m0fe1fbabd3" x="361.325564" y="44.631057" style="fill: #0000ff; stroke: #0000ff"/>
     <use xlink:href="#m0fe1fbabd3" x="363.368273" y="44.677907" style="fill: #0000ff; stroke: #0000ff"/>
     <use xlink:href="#m0fe1fbabd3" x="365.410982" y="44.631057" style="fill: #0000ff; stroke: #0000ff"/>
     <use xlink:href="#m0fe1fbabd3" x="367.453691" y="44.631057" style="fill: #0000ff; stroke: #0000ff"/>
     <use xlink:href="#m0fe1fbabd3" x="369.4964" y="44.631057" style="fill: #0000ff; stroke: #0000ff"/>
     <use xlink:href="#m0fe1fbabd3" x="371.539109" y="44.537358" style="fill: #0000ff; stroke: #0000ff"/>
     <use xlink:href="#m0fe1fbabd3" x="373.581818" y="44.443636" style="fill: #0000ff; stroke: #0000ff"/>
    </g>
   </g>
   <g id="line2d_16">
    <path d="M 69.218182 242.116364 
L 73.3036 242.116364 
L 75.346309 241.928952 
L 77.389018 239.305185 
L 79.431727 237.243654 
L 81.474436 230.496825 
L 83.517145 231.433884 
L 85.559854 229.747178 
L 87.602563 193.014439 
L 89.645272 226.186351 
L 91.68798 190.015848 
L 93.730689 210.068926 
L 95.773398 197.512328 
L 97.816107 216.44093 
L 99.858816 205.008803 
L 101.901525 226.935999 
L 103.944234 186.455023 
L 105.986943 196.200445 
L 108.029652 172.586541 
L 110.072361 159.467709 
L 112.11507 136.416045 
L 114.157779 132.29298 
L 116.200488 123.297212 
L 118.243197 114.863673 
L 120.285906 112.802135 
L 122.328615 106.242725 
L 124.371324 102.30707 
L 126.414033 99.121075 
L 128.456742 92.186834 
L 130.499451 92.186834 
L 132.54216 84.315523 
L 134.584869 84.877763 
L 136.627578 86.002231 
L 138.670287 87.50153 
L 140.712996 81.316938 
L 142.755705 82.628827 
L 144.798414 82.253997 
L 146.841123 80.379879 
L 148.883832 80.379879 
L 150.926541 77.193873 
L 152.96925 76.256814 
L 157.054667 72.13375 
L 159.097376 70.821872 
L 161.140085 71.94634 
L 163.182794 70.821872 
L 165.225503 69.322574 
L 167.268212 66.323988 
L 171.35363 68.198106 
L 173.396339 68.385515 
L 175.439048 71.94634 
L 177.481757 66.511398 
L 179.524466 66.136568 
L 181.567175 65.199509 
L 183.609884 65.012099 
L 185.652593 63.887631 
L 187.695302 64.82469 
L 189.738011 63.137982 
L 191.78072 62.200924 
L 193.823429 62.763163 
L 195.866138 63.887631 
L 197.908847 62.575743 
L 199.951556 63.700222 
L 201.994265 61.263865 
L 204.036974 62.013514 
L 208.122392 61.263865 
L 210.165101 59.951976 
L 212.20781 61.826093 
L 214.250519 60.139386 
L 218.335937 59.389748 
L 220.378646 59.202327 
L 222.421354 59.202327 
L 224.464063 59.014917 
L 226.506772 58.640098 
L 228.549481 58.077859 
L 230.59219 58.265268 
L 234.677608 58.265268 
L 236.720317 57.890449 
L 238.763026 57.70304 
L 240.805735 58.077859 
L 242.848444 56.765981 
L 244.891153 57.32821 
L 246.933862 57.32821 
L 248.976571 56.953391 
L 251.01928 56.953391 
L 253.061989 57.32821 
L 255.104698 56.953391 
L 257.147407 57.32821 
L 259.190116 56.765981 
L 261.232825 56.391151 
L 263.275534 56.391151 
L 265.318243 56.57856 
L 267.360952 56.953391 
L 269.403661 56.57856 
L 271.44637 56.765981 
L 273.489079 56.57856 
L 279.617206 56.57856 
L 281.659915 56.391151 
L 283.702624 56.57856 
L 285.745333 56.203741 
L 287.788041 56.391151 
L 289.83075 56.203741 
L 291.873459 56.391151 
L 293.916168 56.391151 
L 295.958877 56.016332 
L 298.001586 56.203741 
L 302.087004 55.828922 
L 304.129713 56.016332 
L 306.172422 56.016332 
L 310.25784 55.641502 
L 312.300549 55.641502 
L 314.343258 56.016332 
L 316.385967 55.641502 
L 318.428676 56.391151 
L 320.471385 55.828922 
L 324.556803 55.454092 
L 328.642221 55.828922 
L 330.68493 55.641502 
L 332.727639 55.641502 
L 334.770348 55.828922 
L 336.813057 55.828922 
L 338.855766 55.454092 
L 340.898475 55.828922 
L 342.941184 55.454092 
L 349.069311 55.454092 
L 351.11202 55.266683 
L 353.154728 55.454092 
L 355.197437 55.266683 
L 357.240146 55.454092 
L 359.282855 55.079273 
L 361.325564 55.079273 
L 363.368273 55.266683 
L 365.410982 55.079273 
L 367.453691 55.079273 
L 369.4964 54.891853 
L 371.539109 55.079273 
L 373.581818 55.079273 
L 373.581818 55.079273 
" clip-path="url(#peb91cdd7b9)" style="fill: none; stroke: #0000ff; stroke-width: 1.5; stroke-linecap: square"/>
   </g>
   <g id="patch_3">
    <path d="M 54 252 
L 54 34.56 
" style="fill: none; stroke: #000000; stroke-width: 0.8; stroke-linejoin: miter; stroke-linecap: square"/>
   </g>
   <g id="patch_4">
    <path d="M 388.8 252 
L 388.8 34.56 
" style="fill: none; stroke: #000000; stroke-width: 0.8; stroke-linejoin: miter; stroke-linecap: square"/>
   </g>
   <g id="patch_5">
    <path d="M 54 252 
L 388.8 252 
" style="fill: none; stroke: #000000; stroke-width: 0.8; stroke-linejoin: miter; stroke-linecap: square"/>
   </g>
   <g id="patch_6">
    <path d="M 54 34.56 
L 388.8 34.56 
" style="fill: none; stroke: #000000; stroke-width: 0.8; stroke-linejoin: miter; stroke-linecap: square"/>
   </g>
   <g id="text_15">
    <!-- Training and validation accuracy -->
    <g transform="translate(124.108125 28.56)scale(0.12 -0.12)">
     <defs>
      <path id="DejaVuSans-54" d="M -19 4666 
L 3928 4666 
L 3928 4134 
L 2272 4134 
L 2272 0 
L 1638 0 
L 1638 4134 
L -19 4134 
L -19 4666 
z
" transform="scale(0.015625)"/>
      <path id="DejaVuSans-72" d="M 2631 2963 
Q 2534 3019 2420 3045 
Q 2306 3072 2169 3072 
Q 1681 3072 1420 2755 
Q 1159 2438 1159 1844 
L 1159 0 
L 581 0 
L 581 3500 
L 1159 3500 
L 1159 2956 
Q 1341 3275 1631 3429 
Q 1922 3584 2338 3584 
Q 2397 3584 2469 3576 
Q 2541 3569 2628 3553 
L 2631 2963 
z
" transform="scale(0.015625)"/>
      <path id="DejaVuSans-61" d="M 2194 1759 
Q 1497 1759 1228 1600 
Q 959 1441 959 1056 
Q 959 750 1161 570 
Q 1363 391 1709 391 
Q 2188 391 2477 730 
Q 2766 1069 2766 1631 
L 2766 1759 
L 2194 1759 
z
M 3341 1997 
L 3341 0 
L 2766 0 
L 2766 531 
Q 2569 213 2275 61 
Q 1981 -91 1556 -91 
Q 1019 -91 701 211 
Q 384 513 384 1019 
Q 384 1609 779 1909 
Q 1175 2209 1959 2209 
L 2766 2209 
L 2766 2266 
Q 2766 2663 2505 2880 
Q 2244 3097 1772 3097 
Q 1472 3097 1187 3025 
Q 903 2953 641 2809 
L 641 3341 
Q 956 3463 1253 3523 
Q 1550 3584 1831 3584 
Q 2591 3584 2966 3190 
Q 3341 2797 3341 1997 
z
" transform="scale(0.015625)"/>
      <path id="DejaVuSans-69" d="M 603 3500 
L 1178 3500 
L 1178 0 
L 603 0 
L 603 3500 
z
M 603 4863 
L 1178 4863 
L 1178 4134 
L 603 4134 
L 603 4863 
z
" transform="scale(0.015625)"/>
      <path id="DejaVuSans-6e" d="M 3513 2113 
L 3513 0 
L 2938 0 
L 2938 2094 
Q 2938 2591 2744 2837 
Q 2550 3084 2163 3084 
Q 1697 3084 1428 2787 
Q 1159 2491 1159 1978 
L 1159 0 
L 581 0 
L 581 3500 
L 1159 3500 
L 1159 2956 
Q 1366 3272 1645 3428 
Q 1925 3584 2291 3584 
Q 2894 3584 3203 3211 
Q 3513 2838 3513 2113 
z
" transform="scale(0.015625)"/>
      <path id="DejaVuSans-67" d="M 2906 1791 
Q 2906 2416 2648 2759 
Q 2391 3103 1925 3103 
Q 1463 3103 1205 2759 
Q 947 2416 947 1791 
Q 947 1169 1205 825 
Q 1463 481 1925 481 
Q 2391 481 2648 825 
Q 2906 1169 2906 1791 
z
M 3481 434 
Q 3481 -459 3084 -895 
Q 2688 -1331 1869 -1331 
Q 1566 -1331 1297 -1286 
Q 1028 -1241 775 -1147 
L 775 -588 
Q 1028 -725 1275 -790 
Q 1522 -856 1778 -856 
Q 2344 -856 2625 -561 
Q 2906 -266 2906 331 
L 2906 616 
Q 2728 306 2450 153 
Q 2172 0 1784 0 
Q 1141 0 747 490 
Q 353 981 353 1791 
Q 353 2603 747 3093 
Q 1141 3584 1784 3584 
Q 2172 3584 2450 3431 
Q 2728 3278 2906 2969 
L 2906 3500 
L 3481 3500 
L 3481 434 
z
" transform="scale(0.015625)"/>
      <path id="DejaVuSans-20" transform="scale(0.015625)"/>
      <path id="DejaVuSans-64" d="M 2906 2969 
L 2906 4863 
L 3481 4863 
L 3481 0 
L 2906 0 
L 2906 525 
Q 2725 213 2448 61 
Q 2172 -91 1784 -91 
Q 1150 -91 751 415 
Q 353 922 353 1747 
Q 353 2572 751 3078 
Q 1150 3584 1784 3584 
Q 2172 3584 2448 3432 
Q 2725 3281 2906 2969 
z
M 947 1747 
Q 947 1113 1208 752 
Q 1469 391 1925 391 
Q 2381 391 2643 752 
Q 2906 1113 2906 1747 
Q 2906 2381 2643 2742 
Q 2381 3103 1925 3103 
Q 1469 3103 1208 2742 
Q 947 2381 947 1747 
z
" transform="scale(0.015625)"/>
      <path id="DejaVuSans-76" d="M 191 3500 
L 800 3500 
L 1894 563 
L 2988 3500 
L 3597 3500 
L 2284 0 
L 1503 0 
L 191 3500 
z
" transform="scale(0.015625)"/>
      <path id="DejaVuSans-6c" d="M 603 4863 
L 1178 4863 
L 1178 0 
L 603 0 
L 603 4863 
z
" transform="scale(0.015625)"/>
      <path id="DejaVuSans-74" d="M 1172 4494 
L 1172 3500 
L 2356 3500 
L 2356 3053 
L 1172 3053 
L 1172 1153 
Q 1172 725 1289 603 
Q 1406 481 1766 481 
L 2356 481 
L 2356 0 
L 1766 0 
Q 1100 0 847 248 
Q 594 497 594 1153 
L 594 3053 
L 172 3053 
L 172 3500 
L 594 3500 
L 594 4494 
L 1172 4494 
z
" transform="scale(0.015625)"/>
      <path id="DejaVuSans-6f" d="M 1959 3097 
Q 1497 3097 1228 2736 
Q 959 2375 959 1747 
Q 959 1119 1226 758 
Q 1494 397 1959 397 
Q 2419 397 2687 759 
Q 2956 1122 2956 1747 
Q 2956 2369 2687 2733 
Q 2419 3097 1959 3097 
z
M 1959 3584 
Q 2709 3584 3137 3096 
Q 3566 2609 3566 1747 
Q 3566 888 3137 398 
Q 2709 -91 1959 -91 
Q 1206 -91 779 398 
Q 353 888 353 1747 
Q 353 2609 779 3096 
Q 1206 3584 1959 3584 
z
" transform="scale(0.015625)"/>
      <path id="DejaVuSans-63" d="M 3122 3366 
L 3122 2828 
Q 2878 2963 2633 3030 
Q 2388 3097 2138 3097 
Q 1578 3097 1268 2742 
Q 959 2388 959 1747 
Q 959 1106 1268 751 
Q 1578 397 2138 397 
Q 2388 397 2633 464 
Q 2878 531 3122 666 
L 3122 134 
Q 2881 22 2623 -34 
Q 2366 -91 2075 -91 
Q 1284 -91 818 406 
Q 353 903 353 1747 
Q 353 2603 823 3093 
Q 1294 3584 2113 3584 
Q 2378 3584 2631 3529 
Q 2884 3475 3122 3366 
z
" transform="scale(0.015625)"/>
      <path id="DejaVuSans-75" d="M 544 1381 
L 544 3500 
L 1119 3500 
L 1119 1403 
Q 1119 906 1312 657 
Q 1506 409 1894 409 
Q 2359 409 2629 706 
Q 2900 1003 2900 1516 
L 2900 3500 
L 3475 3500 
L 3475 0 
L 2900 0 
L 2900 538 
Q 2691 219 2414 64 
Q 2138 -91 1772 -91 
Q 1169 -91 856 284 
Q 544 659 544 1381 
z
M 1991 3584 
L 1991 3584 
z
" transform="scale(0.015625)"/>
      <path id="DejaVuSans-79" d="M 2059 -325 
Q 1816 -950 1584 -1140 
Q 1353 -1331 966 -1331 
L 506 -1331 
L 506 -850 
L 844 -850 
Q 1081 -850 1212 -737 
Q 1344 -625 1503 -206 
L 1606 56 
L 191 3500 
L 800 3500 
L 1894 763 
L 2988 3500 
L 3597 3500 
L 2059 -325 
z
" transform="scale(0.015625)"/>
     </defs>
     <use xlink:href="#DejaVuSans-54"/>
     <use xlink:href="#DejaVuSans-72" x="46.333984"/>
     <use xlink:href="#DejaVuSans-61" x="87.447266"/>
     <use xlink:href="#DejaVuSans-69" x="148.726562"/>
     <use xlink:href="#DejaVuSans-6e" x="176.509766"/>
     <use xlink:href="#DejaVuSans-69" x="239.888672"/>
     <use xlink:href="#DejaVuSans-6e" x="267.671875"/>
     <use xlink:href="#DejaVuSans-67" x="331.050781"/>
     <use xlink:href="#DejaVuSans-20" x="394.527344"/>
     <use xlink:href="#DejaVuSans-61" x="426.314453"/>
     <use xlink:href="#DejaVuSans-6e" x="487.59375"/>
     <use xlink:href="#DejaVuSans-64" x="550.972656"/>
     <use xlink:href="#DejaVuSans-20" x="614.449219"/>
     <use xlink:href="#DejaVuSans-76" x="646.236328"/>
     <use xlink:href="#DejaVuSans-61" x="705.416016"/>
     <use xlink:href="#DejaVuSans-6c" x="766.695312"/>
     <use xlink:href="#DejaVuSans-69" x="794.478516"/>
     <use xlink:href="#DejaVuSans-64" x="822.261719"/>
     <use xlink:href="#DejaVuSans-61" x="885.738281"/>
     <use xlink:href="#DejaVuSans-74" x="947.017578"/>
     <use xlink:href="#DejaVuSans-69" x="986.226562"/>
     <use xlink:href="#DejaVuSans-6f" x="1014.009766"/>
     <use xlink:href="#DejaVuSans-6e" x="1075.191406"/>
     <use xlink:href="#DejaVuSans-20" x="1138.570312"/>
     <use xlink:href="#DejaVuSans-61" x="1170.357422"/>
     <use xlink:href="#DejaVuSans-63" x="1231.636719"/>
     <use xlink:href="#DejaVuSans-63" x="1286.617188"/>
     <use xlink:href="#DejaVuSans-75" x="1341.597656"/>
     <use xlink:href="#DejaVuSans-72" x="1404.976562"/>
     <use xlink:href="#DejaVuSans-61" x="1446.089844"/>
     <use xlink:href="#DejaVuSans-63" x="1507.369141"/>
     <use xlink:href="#DejaVuSans-79" x="1562.349609"/>
    </g>
   </g>
  </g>
 </g>
 <defs>
  <clipPath id="peb91cdd7b9">
   <rect x="54" y="34.56" width="334.8" height="217.44"/>
  </clipPath>
 </defs>
</svg>
