<?xml version="1.0" encoding="utf-8" standalone="no"?>
<!DOCTYPE svg PUBLIC "-//W3C//DTD SVG 1.1//EN"
  "http://www.w3.org/Graphics/SVG/1.1/DTD/svg11.dtd">
<svg xmlns:xlink="http://www.w3.org/1999/xlink" width="432pt" height="288pt" viewBox="0 0 432 288" xmlns="http://www.w3.org/2000/svg" version="1.1">
 <metadata>
  <rdf:RDF xmlns:dc="http://purl.org/dc/elements/1.1/" xmlns:cc="http://creativecommons.org/ns#" xmlns:rdf="http://www.w3.org/1999/02/22-rdf-syntax-ns#">
   <cc:Work>
    <dc:type rdf:resource="http://purl.org/dc/dcmitype/StillImage"/>
    <dc:date>2022-07-28T12:39:30.500160</dc:date>
    <dc:format>image/svg+xml</dc:format>
    <dc:creator>
     <cc:Agent>
      <dc:title>Matplotlib v3.5.2, https://matplotlib.org/</dc:title>
     </cc:Agent>
    </dc:creator>
   </cc:Work>
  </rdf:RDF>
 </metadata>
 <defs>
  <style type="text/css">*{stroke-linejoin: round; stroke-linecap: butt}</style>
 </defs>
 <g id="figure_1">
  <g id="patch_1">
   <path d="M 0 288 
L 432 288 
L 432 0 
L 0 0 
L 0 288 
z
" style="fill: none"/>
  </g>
  <g id="axes_1">
   <g id="patch_2">
    <path d="M 54 252 
L 388.8 252 
L 388.8 34.56 
L 54 34.56 
z
" style="fill: #ffffff"/>
   </g>
   <g id="matplotlib.axis_1">
    <g id="xtick_1">
     <g id="line2d_1">
      <defs>
       <path id="me21bb04065" d="M 0 0 
L 0 3.5 
" style="stroke: #000000; stroke-width: 0.8"/>
      </defs>
      <g>
       <use xlink:href="#me21bb04065" x="69.218182" y="252" style="stroke: #000000; stroke-width: 0.8"/>
      </g>
     </g>
     <g id="text_1">
      <!-- 0 -->
      <g transform="translate(66.036932 266.598437)scale(0.1 -0.1)">
       <defs>
        <path id="DejaVuSans-30" d="M 2034 4250 
Q 1547 4250 1301 3770 
Q 1056 3291 1056 2328 
Q 1056 1369 1301 889 
Q 1547 409 2034 409 
Q 2525 409 2770 889 
Q 3016 1369 3016 2328 
Q 3016 3291 2770 3770 
Q 2525 4250 2034 4250 
z
M 2034 4750 
Q 2819 4750 3233 4129 
Q 3647 3509 3647 2328 
Q 3647 1150 3233 529 
Q 2819 -91 2034 -91 
Q 1250 -91 836 529 
Q 422 1150 422 2328 
Q 422 3509 836 4129 
Q 1250 4750 2034 4750 
z
" transform="scale(0.015625)"/>
       </defs>
       <use xlink:href="#DejaVuSans-30"/>
      </g>
     </g>
    </g>
    <g id="xtick_2">
     <g id="line2d_2">
      <g>
       <use xlink:href="#me21bb04065" x="110.072361" y="252" style="stroke: #000000; stroke-width: 0.8"/>
      </g>
     </g>
     <g id="text_2">
      <!-- 20 -->
      <g transform="translate(103.709861 266.598437)scale(0.1 -0.1)">
       <defs>
        <path id="DejaVuSans-32" d="M 1228 531 
L 3431 531 
L 3431 0 
L 469 0 
L 469 531 
Q 828 903 1448 1529 
Q 2069 2156 2228 2338 
Q 2531 2678 2651 2914 
Q 2772 3150 2772 3378 
Q 2772 3750 2511 3984 
Q 2250 4219 1831 4219 
Q 1534 4219 1204 4116 
Q 875 4013 500 3803 
L 500 4441 
Q 881 4594 1212 4672 
Q 1544 4750 1819 4750 
Q 2544 4750 2975 4387 
Q 3406 4025 3406 3419 
Q 3406 3131 3298 2873 
Q 3191 2616 2906 2266 
Q 2828 2175 2409 1742 
Q 1991 1309 1228 531 
z
" transform="scale(0.015625)"/>
       </defs>
       <use xlink:href="#DejaVuSans-32"/>
       <use xlink:href="#DejaVuSans-30" x="63.623047"/>
      </g>
     </g>
    </g>
    <g id="xtick_3">
     <g id="line2d_3">
      <g>
       <use xlink:href="#me21bb04065" x="150.926541" y="252" style="stroke: #000000; stroke-width: 0.8"/>
      </g>
     </g>
     <g id="text_3">
      <!-- 40 -->
      <g transform="translate(144.564041 266.598437)scale(0.1 -0.1)">
       <defs>
        <path id="DejaVuSans-34" d="M 2419 4116 
L 825 1625 
L 2419 1625 
L 2419 4116 
z
M 2253 4666 
L 3047 4666 
L 3047 1625 
L 3713 1625 
L 3713 1100 
L 3047 1100 
L 3047 0 
L 2419 0 
L 2419 1100 
L 313 1100 
L 313 1709 
L 2253 4666 
z
" transform="scale(0.015625)"/>
       </defs>
       <use xlink:href="#DejaVuSans-34"/>
       <use xlink:href="#DejaVuSans-30" x="63.623047"/>
      </g>
     </g>
    </g>
    <g id="xtick_4">
     <g id="line2d_4">
      <g>
       <use xlink:href="#me21bb04065" x="191.78072" y="252" style="stroke: #000000; stroke-width: 0.8"/>
      </g>
     </g>
     <g id="text_4">
      <!-- 60 -->
      <g transform="translate(185.41822 266.598437)scale(0.1 -0.1)">
       <defs>
        <path id="DejaVuSans-36" d="M 2113 2584 
Q 1688 2584 1439 2293 
Q 1191 2003 1191 1497 
Q 1191 994 1439 701 
Q 1688 409 2113 409 
Q 2538 409 2786 701 
Q 3034 994 3034 1497 
Q 3034 2003 2786 2293 
Q 2538 2584 2113 2584 
z
M 3366 4563 
L 3366 3988 
Q 3128 4100 2886 4159 
Q 2644 4219 2406 4219 
Q 1781 4219 1451 3797 
Q 1122 3375 1075 2522 
Q 1259 2794 1537 2939 
Q 1816 3084 2150 3084 
Q 2853 3084 3261 2657 
Q 3669 2231 3669 1497 
Q 3669 778 3244 343 
Q 2819 -91 2113 -91 
Q 1303 -91 875 529 
Q 447 1150 447 2328 
Q 447 3434 972 4092 
Q 1497 4750 2381 4750 
Q 2619 4750 2861 4703 
Q 3103 4656 3366 4563 
z
" transform="scale(0.015625)"/>
       </defs>
       <use xlink:href="#DejaVuSans-36"/>
       <use xlink:href="#DejaVuSans-30" x="63.623047"/>
      </g>
     </g>
    </g>
    <g id="xtick_5">
     <g id="line2d_5">
      <g>
       <use xlink:href="#me21bb04065" x="232.634899" y="252" style="stroke: #000000; stroke-width: 0.8"/>
      </g>
     </g>
     <g id="text_5">
      <!-- 80 -->
      <g transform="translate(226.272399 266.598437)scale(0.1 -0.1)">
       <defs>
        <path id="DejaVuSans-38" d="M 2034 2216 
Q 1584 2216 1326 1975 
Q 1069 1734 1069 1313 
Q 1069 891 1326 650 
Q 1584 409 2034 409 
Q 2484 409 2743 651 
Q 3003 894 3003 1313 
Q 3003 1734 2745 1975 
Q 2488 2216 2034 2216 
z
M 1403 2484 
Q 997 2584 770 2862 
Q 544 3141 544 3541 
Q 544 4100 942 4425 
Q 1341 4750 2034 4750 
Q 2731 4750 3128 4425 
Q 3525 4100 3525 3541 
Q 3525 3141 3298 2862 
Q 3072 2584 2669 2484 
Q 3125 2378 3379 2068 
Q 3634 1759 3634 1313 
Q 3634 634 3220 271 
Q 2806 -91 2034 -91 
Q 1263 -91 848 271 
Q 434 634 434 1313 
Q 434 1759 690 2068 
Q 947 2378 1403 2484 
z
M 1172 3481 
Q 1172 3119 1398 2916 
Q 1625 2713 2034 2713 
Q 2441 2713 2670 2916 
Q 2900 3119 2900 3481 
Q 2900 3844 2670 4047 
Q 2441 4250 2034 4250 
Q 1625 4250 1398 4047 
Q 1172 3844 1172 3481 
z
" transform="scale(0.015625)"/>
       </defs>
       <use xlink:href="#DejaVuSans-38"/>
       <use xlink:href="#DejaVuSans-30" x="63.623047"/>
      </g>
     </g>
    </g>
    <g id="xtick_6">
     <g id="line2d_6">
      <g>
       <use xlink:href="#me21bb04065" x="273.489079" y="252" style="stroke: #000000; stroke-width: 0.8"/>
      </g>
     </g>
     <g id="text_6">
      <!-- 100 -->
      <g transform="translate(263.945329 266.598437)scale(0.1 -0.1)">
       <defs>
        <path id="DejaVuSans-31" d="M 794 531 
L 1825 531 
L 1825 4091 
L 703 3866 
L 703 4441 
L 1819 4666 
L 2450 4666 
L 2450 531 
L 3481 531 
L 3481 0 
L 794 0 
L 794 531 
z
" transform="scale(0.015625)"/>
       </defs>
       <use xlink:href="#DejaVuSans-31"/>
       <use xlink:href="#DejaVuSans-30" x="63.623047"/>
       <use xlink:href="#DejaVuSans-30" x="127.246094"/>
      </g>
     </g>
    </g>
    <g id="xtick_7">
     <g id="line2d_7">
      <g>
       <use xlink:href="#me21bb04065" x="314.343258" y="252" style="stroke: #000000; stroke-width: 0.8"/>
      </g>
     </g>
     <g id="text_7">
      <!-- 120 -->
      <g transform="translate(304.799508 266.598437)scale(0.1 -0.1)">
       <use xlink:href="#DejaVuSans-31"/>
       <use xlink:href="#DejaVuSans-32" x="63.623047"/>
       <use xlink:href="#DejaVuSans-30" x="127.246094"/>
      </g>
     </g>
    </g>
    <g id="xtick_8">
     <g id="line2d_8">
      <g>
       <use xlink:href="#me21bb04065" x="355.197437" y="252" style="stroke: #000000; stroke-width: 0.8"/>
      </g>
     </g>
     <g id="text_8">
      <!-- 140 -->
      <g transform="translate(345.653687 266.598437)scale(0.1 -0.1)">
       <use xlink:href="#DejaVuSans-31"/>
       <use xlink:href="#DejaVuSans-34" x="63.623047"/>
       <use xlink:href="#DejaVuSans-30" x="127.246094"/>
      </g>
     </g>
    </g>
   </g>
   <g id="matplotlib.axis_2">
    <g id="ytick_1">
     <g id="line2d_9">
      <defs>
       <path id="m02d02c8e9a" d="M 0 0 
L -3.5 0 
" style="stroke: #000000; stroke-width: 0.8"/>
      </defs>
      <g>
       <use xlink:href="#m02d02c8e9a" x="54" y="242.116364" style="stroke: #000000; stroke-width: 0.8"/>
      </g>
     </g>
     <g id="text_9">
      <!-- 0.0 -->
      <g transform="translate(31.096875 245.915582)scale(0.1 -0.1)">
       <defs>
        <path id="DejaVuSans-2e" d="M 684 794 
L 1344 794 
L 1344 0 
L 684 0 
L 684 794 
z
" transform="scale(0.015625)"/>
       </defs>
       <use xlink:href="#DejaVuSans-30"/>
       <use xlink:href="#DejaVuSans-2e" x="63.623047"/>
       <use xlink:href="#DejaVuSans-30" x="95.410156"/>
      </g>
     </g>
    </g>
    <g id="ytick_2">
     <g id="line2d_10">
      <g>
       <use xlink:href="#m02d02c8e9a" x="54" y="210.156343" style="stroke: #000000; stroke-width: 0.8"/>
      </g>
     </g>
     <g id="text_10">
      <!-- 0.1 -->
      <g transform="translate(31.096875 213.955562)scale(0.1 -0.1)">
       <use xlink:href="#DejaVuSans-30"/>
       <use xlink:href="#DejaVuSans-2e" x="63.623047"/>
       <use xlink:href="#DejaVuSans-31" x="95.410156"/>
      </g>
     </g>
    </g>
    <g id="ytick_3">
     <g id="line2d_11">
      <g>
       <use xlink:href="#m02d02c8e9a" x="54" y="178.196322" style="stroke: #000000; stroke-width: 0.8"/>
      </g>
     </g>
     <g id="text_11">
      <!-- 0.2 -->
      <g transform="translate(31.096875 181.995541)scale(0.1 -0.1)">
       <use xlink:href="#DejaVuSans-30"/>
       <use xlink:href="#DejaVuSans-2e" x="63.623047"/>
       <use xlink:href="#DejaVuSans-32" x="95.410156"/>
      </g>
     </g>
    </g>
    <g id="ytick_4">
     <g id="line2d_12">
      <g>
       <use xlink:href="#m02d02c8e9a" x="54" y="146.236301" style="stroke: #000000; stroke-width: 0.8"/>
      </g>
     </g>
     <g id="text_12">
      <!-- 0.3 -->
      <g transform="translate(31.096875 150.03552)scale(0.1 -0.1)">
       <defs>
        <path id="DejaVuSans-33" d="M 2597 2516 
Q 3050 2419 3304 2112 
Q 3559 1806 3559 1356 
Q 3559 666 3084 287 
Q 2609 -91 1734 -91 
Q 1441 -91 1130 -33 
Q 819 25 488 141 
L 488 750 
Q 750 597 1062 519 
Q 1375 441 1716 441 
Q 2309 441 2620 675 
Q 2931 909 2931 1356 
Q 2931 1769 2642 2001 
Q 2353 2234 1838 2234 
L 1294 2234 
L 1294 2753 
L 1863 2753 
Q 2328 2753 2575 2939 
Q 2822 3125 2822 3475 
Q 2822 3834 2567 4026 
Q 2313 4219 1838 4219 
Q 1578 4219 1281 4162 
Q 984 4106 628 3988 
L 628 4550 
Q 988 4650 1302 4700 
Q 1616 4750 1894 4750 
Q 2613 4750 3031 4423 
Q 3450 4097 3450 3541 
Q 3450 3153 3228 2886 
Q 3006 2619 2597 2516 
z
" transform="scale(0.015625)"/>
       </defs>
       <use xlink:href="#DejaVuSans-30"/>
       <use xlink:href="#DejaVuSans-2e" x="63.623047"/>
       <use xlink:href="#DejaVuSans-33" x="95.410156"/>
      </g>
     </g>
    </g>
    <g id="ytick_5">
     <g id="line2d_13">
      <g>
       <use xlink:href="#m02d02c8e9a" x="54" y="114.27628" style="stroke: #000000; stroke-width: 0.8"/>
      </g>
     </g>
     <g id="text_13">
      <!-- 0.4 -->
      <g transform="translate(31.096875 118.075499)scale(0.1 -0.1)">
       <use xlink:href="#DejaVuSans-30"/>
       <use xlink:href="#DejaVuSans-2e" x="63.623047"/>
       <use xlink:href="#DejaVuSans-34" x="95.410156"/>
      </g>
     </g>
    </g>
    <g id="ytick_6">
     <g id="line2d_14">
      <g>
       <use xlink:href="#m02d02c8e9a" x="54" y="82.316259" style="stroke: #000000; stroke-width: 0.8"/>
      </g>
     </g>
     <g id="text_14">
      <!-- 0.5 -->
      <g transform="translate(31.096875 86.115478)scale(0.1 -0.1)">
       <defs>
        <path id="DejaVuSans-35" d="M 691 4666 
L 3169 4666 
L 3169 4134 
L 1269 4134 
L 1269 2991 
Q 1406 3038 1543 3061 
Q 1681 3084 1819 3084 
Q 2600 3084 3056 2656 
Q 3513 2228 3513 1497 
Q 3513 744 3044 326 
Q 2575 -91 1722 -91 
Q 1428 -91 1123 -41 
Q 819 9 494 109 
L 494 744 
Q 775 591 1075 516 
Q 1375 441 1709 441 
Q 2250 441 2565 725 
Q 2881 1009 2881 1497 
Q 2881 1984 2565 2268 
Q 2250 2553 1709 2553 
Q 1456 2553 1204 2497 
Q 953 2441 691 2322 
L 691 4666 
z
" transform="scale(0.015625)"/>
       </defs>
       <use xlink:href="#DejaVuSans-30"/>
       <use xlink:href="#DejaVuSans-2e" x="63.623047"/>
       <use xlink:href="#DejaVuSans-35" x="95.410156"/>
      </g>
     </g>
    </g>
    <g id="ytick_7">
     <g id="line2d_15">
      <g>
       <use xlink:href="#m02d02c8e9a" x="54" y="50.356238" style="stroke: #000000; stroke-width: 0.8"/>
      </g>
     </g>
     <g id="text_15">
      <!-- 0.6 -->
      <g transform="translate(31.096875 54.155457)scale(0.1 -0.1)">
       <use xlink:href="#DejaVuSans-30"/>
       <use xlink:href="#DejaVuSans-2e" x="63.623047"/>
       <use xlink:href="#DejaVuSans-36" x="95.410156"/>
      </g>
     </g>
    </g>
   </g>
   <g id="line2d_16">
    <defs>
     <path id="m0c15a5ebe2" d="M 0 3 
C 0.795609 3 1.55874 2.683901 2.12132 2.12132 
C 2.683901 1.55874 3 0.795609 3 0 
C 3 -0.795609 2.683901 -1.55874 2.12132 -2.12132 
C 1.55874 -2.683901 0.795609 -3 0 -3 
C -0.795609 -3 -1.55874 -2.683901 -2.12132 -2.12132 
C -2.683901 -1.55874 -3 -0.795609 -3 0 
C -3 0.795609 -2.683901 1.55874 -2.12132 2.12132 
C -1.55874 2.683901 -0.795609 3 0 3 
z
" style="stroke: #0000ff"/>
    </defs>
    <g clip-path="url(#p744af4b254)">
     <use xlink:href="#m0c15a5ebe2" x="69.218182" y="218.465948" style="fill: #0000ff; stroke: #0000ff"/>
     <use xlink:href="#m0c15a5ebe2" x="71.260891" y="238.480911" style="fill: #0000ff; stroke: #0000ff"/>
     <use xlink:href="#m0c15a5ebe2" x="73.3036" y="238.041461" style="fill: #0000ff; stroke: #0000ff"/>
     <use xlink:href="#m0c15a5ebe2" x="75.346309" y="230.890407" style="fill: #0000ff; stroke: #0000ff"/>
     <use xlink:href="#m0c15a5ebe2" x="77.389018" y="230.730606" style="fill: #0000ff; stroke: #0000ff"/>
     <use xlink:href="#m0c15a5ebe2" x="79.431727" y="226.495903" style="fill: #0000ff; stroke: #0000ff"/>
     <use xlink:href="#m0c15a5ebe2" x="81.474436" y="218.425998" style="fill: #0000ff; stroke: #0000ff"/>
     <use xlink:href="#m0c15a5ebe2" x="83.517145" y="214.071444" style="fill: #0000ff; stroke: #0000ff"/>
     <use xlink:href="#m0c15a5ebe2" x="85.559854" y="205.602041" style="fill: #0000ff; stroke: #0000ff"/>
     <use xlink:href="#m0c15a5ebe2" x="87.602563" y="204.243738" style="fill: #0000ff; stroke: #0000ff"/>
     <use xlink:href="#m0c15a5ebe2" x="89.645272" y="199.729386" style="fill: #0000ff; stroke: #0000ff"/>
     <use xlink:href="#m0c15a5ebe2" x="91.68798" y="191.899182" style="fill: #0000ff; stroke: #0000ff"/>
     <use xlink:href="#m0c15a5ebe2" x="93.730689" y="187.02528" style="fill: #0000ff; stroke: #0000ff"/>
     <use xlink:href="#m0c15a5ebe2" x="95.773398" y="191.779331" style="fill: #0000ff; stroke: #0000ff"/>
     <use xlink:href="#m0c15a5ebe2" x="97.816107" y="183.589574" style="fill: #0000ff; stroke: #0000ff"/>
     <use xlink:href="#m0c15a5ebe2" x="99.858816" y="188.463476" style="fill: #0000ff; stroke: #0000ff"/>
     <use xlink:href="#m0c15a5ebe2" x="101.901525" y="184.029026" style="fill: #0000ff; stroke: #0000ff"/>
     <use xlink:href="#m0c15a5ebe2" x="103.944234" y="193.896681" style="fill: #0000ff; stroke: #0000ff"/>
     <use xlink:href="#m0c15a5ebe2" x="105.986943" y="192.378581" style="fill: #0000ff; stroke: #0000ff"/>
     <use xlink:href="#m0c15a5ebe2" x="108.029652" y="192.019033" style="fill: #0000ff; stroke: #0000ff"/>
     <use xlink:href="#m0c15a5ebe2" x="110.072361" y="193.816782" style="fill: #0000ff; stroke: #0000ff"/>
     <use xlink:href="#m0c15a5ebe2" x="112.11507" y="180.233772" style="fill: #0000ff; stroke: #0000ff"/>
     <use xlink:href="#m0c15a5ebe2" x="114.157779" y="180.153873" style="fill: #0000ff; stroke: #0000ff"/>
     <use xlink:href="#m0c15a5ebe2" x="116.200488" y="173.44227" style="fill: #0000ff; stroke: #0000ff"/>
     <use xlink:href="#m0c15a5ebe2" x="118.243197" y="182.391074" style="fill: #0000ff; stroke: #0000ff"/>
     <use xlink:href="#m0c15a5ebe2" x="120.285906" y="164.932912" style="fill: #0000ff; stroke: #0000ff"/>
     <use xlink:href="#m0c15a5ebe2" x="122.328615" y="188.823029" style="fill: #0000ff; stroke: #0000ff"/>
     <use xlink:href="#m0c15a5ebe2" x="124.371324" y="164.373614" style="fill: #0000ff; stroke: #0000ff"/>
     <use xlink:href="#m0c15a5ebe2" x="126.414033" y="152.148901" style="fill: #0000ff; stroke: #0000ff"/>
     <use xlink:href="#m0c15a5ebe2" x="128.456742" y="159.899206" style="fill: #0000ff; stroke: #0000ff"/>
     <use xlink:href="#m0c15a5ebe2" x="130.499451" y="162.176364" style="fill: #0000ff; stroke: #0000ff"/>
     <use xlink:href="#m0c15a5ebe2" x="132.54216" y="154.585857" style="fill: #0000ff; stroke: #0000ff"/>
     <use xlink:href="#m0c15a5ebe2" x="134.584869" y="161.736908" style="fill: #0000ff; stroke: #0000ff"/>
     <use xlink:href="#m0c15a5ebe2" x="136.627578" y="148.952902" style="fill: #0000ff; stroke: #0000ff"/>
     <use xlink:href="#m0c15a5ebe2" x="138.670287" y="159.419812" style="fill: #0000ff; stroke: #0000ff"/>
     <use xlink:href="#m0c15a5ebe2" x="140.712996" y="151.829305" style="fill: #0000ff; stroke: #0000ff"/>
     <use xlink:href="#m0c15a5ebe2" x="142.755705" y="148.113955" style="fill: #0000ff; stroke: #0000ff"/>
     <use xlink:href="#m0c15a5ebe2" x="144.798414" y="151.949156" style="fill: #0000ff; stroke: #0000ff"/>
     <use xlink:href="#m0c15a5ebe2" x="146.841123" y="159.539663" style="fill: #0000ff; stroke: #0000ff"/>
     <use xlink:href="#m0c15a5ebe2" x="148.883832" y="156.583356" style="fill: #0000ff; stroke: #0000ff"/>
     <use xlink:href="#m0c15a5ebe2" x="150.926541" y="143.759404" style="fill: #0000ff; stroke: #0000ff"/>
     <use xlink:href="#m0c15a5ebe2" x="152.96925" y="152.069007" style="fill: #0000ff; stroke: #0000ff"/>
     <use xlink:href="#m0c15a5ebe2" x="155.011959" y="164.373614" style="fill: #0000ff; stroke: #0000ff"/>
     <use xlink:href="#m0c15a5ebe2" x="157.054667" y="171.165116" style="fill: #0000ff; stroke: #0000ff"/>
     <use xlink:href="#m0c15a5ebe2" x="159.097376" y="156.783111" style="fill: #0000ff; stroke: #0000ff"/>
     <use xlink:href="#m0c15a5ebe2" x="161.140085" y="144.198851" style="fill: #0000ff; stroke: #0000ff"/>
     <use xlink:href="#m0c15a5ebe2" x="163.182794" y="146.475999" style="fill: #0000ff; stroke: #0000ff"/>
     <use xlink:href="#m0c15a5ebe2" x="165.225503" y="135.929195" style="fill: #0000ff; stroke: #0000ff"/>
     <use xlink:href="#m0c15a5ebe2" x="167.268212" y="151.23005" style="fill: #0000ff; stroke: #0000ff"/>
     <use xlink:href="#m0c15a5ebe2" x="169.310921" y="142.401096" style="fill: #0000ff; stroke: #0000ff"/>
     <use xlink:href="#m0c15a5ebe2" x="171.35363" y="139.644544" style="fill: #0000ff; stroke: #0000ff"/>
     <use xlink:href="#m0c15a5ebe2" x="173.396339" y="134.411089" style="fill: #0000ff; stroke: #0000ff"/>
     <use xlink:href="#m0c15a5ebe2" x="175.439048" y="143.999096" style="fill: #0000ff; stroke: #0000ff"/>
     <use xlink:href="#m0c15a5ebe2" x="177.481757" y="128.378644" style="fill: #0000ff; stroke: #0000ff"/>
     <use xlink:href="#m0c15a5ebe2" x="179.524466" y="116.473532" style="fill: #0000ff; stroke: #0000ff"/>
     <use xlink:href="#m0c15a5ebe2" x="181.567175" y="124.463539" style="fill: #0000ff; stroke: #0000ff"/>
     <use xlink:href="#m0c15a5ebe2" x="183.609884" y="135.449791" style="fill: #0000ff; stroke: #0000ff"/>
     <use xlink:href="#m0c15a5ebe2" x="185.652593" y="136.688247" style="fill: #0000ff; stroke: #0000ff"/>
     <use xlink:href="#m0c15a5ebe2" x="187.695302" y="127.180135" style="fill: #0000ff; stroke: #0000ff"/>
     <use xlink:href="#m0c15a5ebe2" x="189.738011" y="134.650791" style="fill: #0000ff; stroke: #0000ff"/>
     <use xlink:href="#m0c15a5ebe2" x="191.78072" y="132.093994" style="fill: #0000ff; stroke: #0000ff"/>
     <use xlink:href="#m0c15a5ebe2" x="193.823429" y="130.016591" style="fill: #0000ff; stroke: #0000ff"/>
     <use xlink:href="#m0c15a5ebe2" x="195.866138" y="119.42983" style="fill: #0000ff; stroke: #0000ff"/>
     <use xlink:href="#m0c15a5ebe2" x="197.908847" y="122.426083" style="fill: #0000ff; stroke: #0000ff"/>
     <use xlink:href="#m0c15a5ebe2" x="199.951556" y="111.59963" style="fill: #0000ff; stroke: #0000ff"/>
     <use xlink:href="#m0c15a5ebe2" x="201.994265" y="116.433585" style="fill: #0000ff; stroke: #0000ff"/>
     <use xlink:href="#m0c15a5ebe2" x="204.036974" y="109.602131" style="fill: #0000ff; stroke: #0000ff"/>
     <use xlink:href="#m0c15a5ebe2" x="206.079683" y="113.157682" style="fill: #0000ff; stroke: #0000ff"/>
     <use xlink:href="#m0c15a5ebe2" x="208.122392" y="127.100241" style="fill: #0000ff; stroke: #0000ff"/>
     <use xlink:href="#m0c15a5ebe2" x="210.165101" y="120.74818" style="fill: #0000ff; stroke: #0000ff"/>
     <use xlink:href="#m0c15a5ebe2" x="212.20781" y="111.040332" style="fill: #0000ff; stroke: #0000ff"/>
     <use xlink:href="#m0c15a5ebe2" x="214.250519" y="109.282525" style="fill: #0000ff; stroke: #0000ff"/>
     <use xlink:href="#m0c15a5ebe2" x="216.293228" y="134.650791" style="fill: #0000ff; stroke: #0000ff"/>
     <use xlink:href="#m0c15a5ebe2" x="218.335937" y="110.640832" style="fill: #0000ff; stroke: #0000ff"/>
     <use xlink:href="#m0c15a5ebe2" x="220.378646" y="123.544689" style="fill: #0000ff; stroke: #0000ff"/>
     <use xlink:href="#m0c15a5ebe2" x="222.421354" y="139.724448" style="fill: #0000ff; stroke: #0000ff"/>
     <use xlink:href="#m0c15a5ebe2" x="224.464063" y="126.620837" style="fill: #0000ff; stroke: #0000ff"/>
     <use xlink:href="#m0c15a5ebe2" x="226.506772" y="112.558428" style="fill: #0000ff; stroke: #0000ff"/>
     <use xlink:href="#m0c15a5ebe2" x="228.549481" y="112.79813" style="fill: #0000ff; stroke: #0000ff"/>
     <use xlink:href="#m0c15a5ebe2" x="230.59219" y="116.593383" style="fill: #0000ff; stroke: #0000ff"/>
     <use xlink:href="#m0c15a5ebe2" x="232.634899" y="116.11398" style="fill: #0000ff; stroke: #0000ff"/>
     <use xlink:href="#m0c15a5ebe2" x="234.677608" y="113.31748" style="fill: #0000ff; stroke: #0000ff"/>
     <use xlink:href="#m0c15a5ebe2" x="236.720317" y="115.434831" style="fill: #0000ff; stroke: #0000ff"/>
     <use xlink:href="#m0c15a5ebe2" x="238.763026" y="112.358683" style="fill: #0000ff; stroke: #0000ff"/>
     <use xlink:href="#m0c15a5ebe2" x="240.805735" y="109.562174" style="fill: #0000ff; stroke: #0000ff"/>
     <use xlink:href="#m0c15a5ebe2" x="242.848444" y="104.408623" style="fill: #0000ff; stroke: #0000ff"/>
     <use xlink:href="#m0c15a5ebe2" x="244.891153" y="118.550936" style="fill: #0000ff; stroke: #0000ff"/>
     <use xlink:href="#m0c15a5ebe2" x="246.933862" y="113.71698" style="fill: #0000ff; stroke: #0000ff"/>
     <use xlink:href="#m0c15a5ebe2" x="248.976571" y="113.157682" style="fill: #0000ff; stroke: #0000ff"/>
     <use xlink:href="#m0c15a5ebe2" x="251.01928" y="115.275033" style="fill: #0000ff; stroke: #0000ff"/>
     <use xlink:href="#m0c15a5ebe2" x="253.061989" y="124.223838" style="fill: #0000ff; stroke: #0000ff"/>
     <use xlink:href="#m0c15a5ebe2" x="255.104698" y="120.947935" style="fill: #0000ff; stroke: #0000ff"/>
     <use xlink:href="#m0c15a5ebe2" x="257.147407" y="110.880524" style="fill: #0000ff; stroke: #0000ff"/>
     <use xlink:href="#m0c15a5ebe2" x="259.190116" y="96.019116" style="fill: #0000ff; stroke: #0000ff"/>
     <use xlink:href="#m0c15a5ebe2" x="261.232825" y="100.014124" style="fill: #0000ff; stroke: #0000ff"/>
     <use xlink:href="#m0c15a5ebe2" x="263.275534" y="102.570921" style="fill: #0000ff; stroke: #0000ff"/>
     <use xlink:href="#m0c15a5ebe2" x="265.318243" y="98.655817" style="fill: #0000ff; stroke: #0000ff"/>
     <use xlink:href="#m0c15a5ebe2" x="267.360952" y="81.477312" style="fill: #0000ff; stroke: #0000ff"/>
     <use xlink:href="#m0c15a5ebe2" x="269.403661" y="86.391162" style="fill: #0000ff; stroke: #0000ff"/>
     <use xlink:href="#m0c15a5ebe2" x="271.44637" y="82.715759" style="fill: #0000ff; stroke: #0000ff"/>
     <use xlink:href="#m0c15a5ebe2" x="273.489079" y="93.70202" style="fill: #0000ff; stroke: #0000ff"/>
     <use xlink:href="#m0c15a5ebe2" x="275.531788" y="91.105266" style="fill: #0000ff; stroke: #0000ff"/>
     <use xlink:href="#m0c15a5ebe2" x="277.574497" y="84.114013" style="fill: #0000ff; stroke: #0000ff"/>
     <use xlink:href="#m0c15a5ebe2" x="279.617206" y="107.404876" style="fill: #0000ff; stroke: #0000ff"/>
     <use xlink:href="#m0c15a5ebe2" x="281.659915" y="98.256317" style="fill: #0000ff; stroke: #0000ff"/>
     <use xlink:href="#m0c15a5ebe2" x="283.702624" y="90.506012" style="fill: #0000ff; stroke: #0000ff"/>
     <use xlink:href="#m0c15a5ebe2" x="285.745333" y="108.68328" style="fill: #0000ff; stroke: #0000ff"/>
     <use xlink:href="#m0c15a5ebe2" x="287.788041" y="94.940467" style="fill: #0000ff; stroke: #0000ff"/>
     <use xlink:href="#m0c15a5ebe2" x="289.83075" y="100.932975" style="fill: #0000ff; stroke: #0000ff"/>
     <use xlink:href="#m0c15a5ebe2" x="291.873459" y="95.619616" style="fill: #0000ff; stroke: #0000ff"/>
     <use xlink:href="#m0c15a5ebe2" x="293.916168" y="92.743213" style="fill: #0000ff; stroke: #0000ff"/>
     <use xlink:href="#m0c15a5ebe2" x="295.958877" y="98.815624" style="fill: #0000ff; stroke: #0000ff"/>
     <use xlink:href="#m0c15a5ebe2" x="298.001586" y="93.022862" style="fill: #0000ff; stroke: #0000ff"/>
     <use xlink:href="#m0c15a5ebe2" x="300.044295" y="90.585915" style="fill: #0000ff; stroke: #0000ff"/>
     <use xlink:href="#m0c15a5ebe2" x="302.087004" y="96.138967" style="fill: #0000ff; stroke: #0000ff"/>
     <use xlink:href="#m0c15a5ebe2" x="304.129713" y="85.951715" style="fill: #0000ff; stroke: #0000ff"/>
     <use xlink:href="#m0c15a5ebe2" x="306.172422" y="84.03411" style="fill: #0000ff; stroke: #0000ff"/>
     <use xlink:href="#m0c15a5ebe2" x="308.215131" y="96.298765" style="fill: #0000ff; stroke: #0000ff"/>
     <use xlink:href="#m0c15a5ebe2" x="310.25784" y="92.263819" style="fill: #0000ff; stroke: #0000ff"/>
     <use xlink:href="#m0c15a5ebe2" x="312.300549" y="90.905511" style="fill: #0000ff; stroke: #0000ff"/>
     <use xlink:href="#m0c15a5ebe2" x="314.343258" y="87.110258" style="fill: #0000ff; stroke: #0000ff"/>
     <use xlink:href="#m0c15a5ebe2" x="316.385967" y="98.695773" style="fill: #0000ff; stroke: #0000ff"/>
     <use xlink:href="#m0c15a5ebe2" x="318.428676" y="81.237611" style="fill: #0000ff; stroke: #0000ff"/>
     <use xlink:href="#m0c15a5ebe2" x="320.471385" y="69.612157" style="fill: #0000ff; stroke: #0000ff"/>
     <use xlink:href="#m0c15a5ebe2" x="322.514094" y="77.761963" style="fill: #0000ff; stroke: #0000ff"/>
     <use xlink:href="#m0c15a5ebe2" x="324.556803" y="65.657106" style="fill: #0000ff; stroke: #0000ff"/>
     <use xlink:href="#m0c15a5ebe2" x="326.599512" y="66.216404" style="fill: #0000ff; stroke: #0000ff"/>
     <use xlink:href="#m0c15a5ebe2" x="328.642221" y="69.412403" style="fill: #0000ff; stroke: #0000ff"/>
     <use xlink:href="#m0c15a5ebe2" x="330.68493" y="62.02165" style="fill: #0000ff; stroke: #0000ff"/>
     <use xlink:href="#m0c15a5ebe2" x="332.727639" y="56.98795" style="fill: #0000ff; stroke: #0000ff"/>
     <use xlink:href="#m0c15a5ebe2" x="334.770348" y="69.012893" style="fill: #0000ff; stroke: #0000ff"/>
     <use xlink:href="#m0c15a5ebe2" x="336.813057" y="64.418649" style="fill: #0000ff; stroke: #0000ff"/>
     <use xlink:href="#m0c15a5ebe2" x="338.855766" y="54.750739" style="fill: #0000ff; stroke: #0000ff"/>
     <use xlink:href="#m0c15a5ebe2" x="340.898475" y="64.578457" style="fill: #0000ff; stroke: #0000ff"/>
     <use xlink:href="#m0c15a5ebe2" x="342.941184" y="52.553494" style="fill: #0000ff; stroke: #0000ff"/>
     <use xlink:href="#m0c15a5ebe2" x="344.983893" y="63.060352" style="fill: #0000ff; stroke: #0000ff"/>
     <use xlink:href="#m0c15a5ebe2" x="347.026602" y="54.511037" style="fill: #0000ff; stroke: #0000ff"/>
     <use xlink:href="#m0c15a5ebe2" x="349.069311" y="76.483559" style="fill: #0000ff; stroke: #0000ff"/>
     <use xlink:href="#m0c15a5ebe2" x="351.11202" y="68.373701" style="fill: #0000ff; stroke: #0000ff"/>
     <use xlink:href="#m0c15a5ebe2" x="353.154728" y="60.7033" style="fill: #0000ff; stroke: #0000ff"/>
     <use xlink:href="#m0c15a5ebe2" x="355.197437" y="79.999154" style="fill: #0000ff; stroke: #0000ff"/>
     <use xlink:href="#m0c15a5ebe2" x="357.240146" y="74.525997" style="fill: #0000ff; stroke: #0000ff"/>
     <use xlink:href="#m0c15a5ebe2" x="359.282855" y="69.692052" style="fill: #0000ff; stroke: #0000ff"/>
     <use xlink:href="#m0c15a5ebe2" x="361.325564" y="61.142737" style="fill: #0000ff; stroke: #0000ff"/>
     <use xlink:href="#m0c15a5ebe2" x="363.368273" y="48.478582" style="fill: #0000ff; stroke: #0000ff"/>
     <use xlink:href="#m0c15a5ebe2" x="365.410982" y="60.343737" style="fill: #0000ff; stroke: #0000ff"/>
     <use xlink:href="#m0c15a5ebe2" x="367.453691" y="63.979193" style="fill: #0000ff; stroke: #0000ff"/>
     <use xlink:href="#m0c15a5ebe2" x="369.4964" y="71.529753" style="fill: #0000ff; stroke: #0000ff"/>
     <use xlink:href="#m0c15a5ebe2" x="371.539109" y="62.261352" style="fill: #0000ff; stroke: #0000ff"/>
     <use xlink:href="#m0c15a5ebe2" x="373.581818" y="69.931753" style="fill: #0000ff; stroke: #0000ff"/>
    </g>
   </g>
   <g id="line2d_17">
    <path d="M 69.218182 241.796763 
L 71.260891 242.116364 
L 73.3036 236.52336 
L 75.346309 240.038962 
L 77.389018 239.879162 
L 79.431727 237.16256 
L 81.474436 226.935354 
L 83.517145 229.651955 
L 85.559854 198.171334 
L 87.602563 196.733133 
L 89.645272 233.966558 
L 91.68798 222.301151 
L 93.730689 191.619528 
L 95.773398 164.932912 
L 97.816107 189.861731 
L 99.858816 155.824304 
L 101.901525 183.309925 
L 103.944234 206.48094 
L 105.986943 147.514701 
L 108.029652 222.141351 
L 110.072361 200.887939 
L 112.11507 193.05773 
L 114.157779 192.25873 
L 116.200488 145.437297 
L 118.243197 155.34491 
L 120.285906 219.264948 
L 122.328615 177.87672 
L 124.371324 213.192546 
L 126.414033 200.248737 
L 128.456742 153.587103 
L 130.499451 160.138908 
L 132.54216 109.48228 
L 134.584869 130.096494 
L 136.627578 140.962895 
L 138.670287 141.761895 
L 140.712996 140.004097 
L 142.755705 145.597105 
L 144.798414 192.738134 
L 146.841123 163.175114 
L 148.883832 154.226304 
L 150.926541 128.818091 
L 152.96925 165.572113 
L 155.011959 185.866727 
L 157.054667 159.18011 
L 159.097376 167.969117 
L 161.140085 113.796884 
L 163.182794 116.673278 
L 165.225503 172.763121 
L 167.268212 161.257514 
L 171.35363 110.920481 
L 173.396339 125.462284 
L 175.439048 130.895494 
L 177.481757 114.755682 
L 179.524466 100.054071 
L 181.567175 132.01409 
L 183.609884 129.137687 
L 185.652593 123.065285 
L 187.695302 125.142688 
L 189.738011 152.788103 
L 191.78072 95.579669 
L 193.823429 128.498485 
L 195.866138 112.518481 
L 197.908847 95.419871 
L 199.951556 124.823083 
L 201.994265 120.188882 
L 204.036974 124.18389 
L 206.079683 93.981669 
L 208.122392 117.472287 
L 210.165101 100.213869 
L 212.20781 103.409878 
L 214.250519 109.642078 
L 216.293228 122.266285 
L 218.335937 113.956682 
L 220.378646 152.788103 
L 222.421354 159.499707 
L 224.464063 144.638298 
L 226.506772 100.853071 
L 228.549481 129.776889 
L 230.59219 98.935466 
L 232.634899 99.414869 
L 234.677608 90.466064 
L 236.720317 124.503487 
L 238.763026 92.064064 
L 240.805735 114.755682 
L 242.848444 149.751902 
L 244.891153 121.14768 
L 246.933862 98.61587 
L 248.976571 116.034085 
L 251.01928 124.18389 
L 253.061989 129.457293 
L 255.104698 99.894273 
L 257.147407 93.662063 
L 259.190116 83.434865 
L 261.232825 87.110258 
L 263.275534 118.910479 
L 265.318243 75.764454 
L 267.360952 77.522261 
L 269.403661 85.032864 
L 271.44637 83.754461 
L 273.489079 96.059072 
L 275.531788 82.156452 
L 277.574497 112.198875 
L 279.617206 83.914259 
L 281.659915 102.770676 
L 283.702624 91.58467 
L 285.745333 101.012869 
L 287.788041 96.698264 
L 289.83075 111.240077 
L 291.873459 82.795663 
L 293.916168 90.945468 
L 295.958877 107.404876 
L 298.001586 88.708267 
L 300.044295 85.672066 
L 302.087004 80.079049 
L 304.129713 77.522261 
L 306.172422 73.68705 
L 308.215131 88.548459 
L 310.25784 89.986661 
L 312.300549 76.883049 
L 314.343258 71.130244 
L 316.385967 87.110258 
L 318.428676 106.286271 
L 320.471385 78.001664 
L 324.556803 58.98544 
L 326.599512 59.784439 
L 328.642221 84.713259 
L 330.68493 52.593442 
L 332.727639 62.660842 
L 334.770348 66.815649 
L 336.813057 55.629633 
L 338.855766 50.356231 
L 340.898475 55.949248 
L 342.941184 55.150248 
L 344.983893 58.98544 
L 347.026602 57.707036 
L 349.069311 72.888051 
L 351.11202 61.542246 
L 353.154728 73.527262 
L 355.197437 78.161453 
L 357.240146 63.140246 
L 359.282855 59.784439 
L 361.325564 58.18644 
L 363.368273 44.443636 
L 365.410982 65.057842 
L 367.453691 67.295052 
L 369.4964 72.568455 
L 371.539109 58.506036 
L 373.581818 63.140246 
L 373.581818 63.140246 
" clip-path="url(#p744af4b254)" style="fill: none; stroke: #0000ff; stroke-width: 1.5; stroke-linecap: square"/>
   </g>
   <g id="patch_3">
    <path d="M 54 252 
L 54 34.56 
" style="fill: none; stroke: #000000; stroke-width: 0.8; stroke-linejoin: miter; stroke-linecap: square"/>
   </g>
   <g id="patch_4">
    <path d="M 388.8 252 
L 388.8 34.56 
" style="fill: none; stroke: #000000; stroke-width: 0.8; stroke-linejoin: miter; stroke-linecap: square"/>
   </g>
   <g id="patch_5">
    <path d="M 54 252 
L 388.8 252 
" style="fill: none; stroke: #000000; stroke-width: 0.8; stroke-linejoin: miter; stroke-linecap: square"/>
   </g>
   <g id="patch_6">
    <path d="M 54 34.56 
L 388.8 34.56 
" style="fill: none; stroke: #000000; stroke-width: 0.8; stroke-linejoin: miter; stroke-linecap: square"/>
   </g>
   <g id="text_16">
    <!-- Training and validation accuracy -->
    <g transform="translate(124.108125 28.56)scale(0.12 -0.12)">
     <defs>
      <path id="DejaVuSans-54" d="M -19 4666 
L 3928 4666 
L 3928 4134 
L 2272 4134 
L 2272 0 
L 1638 0 
L 1638 4134 
L -19 4134 
L -19 4666 
z
" transform="scale(0.015625)"/>
      <path id="DejaVuSans-72" d="M 2631 2963 
Q 2534 3019 2420 3045 
Q 2306 3072 2169 3072 
Q 1681 3072 1420 2755 
Q 1159 2438 1159 1844 
L 1159 0 
L 581 0 
L 581 3500 
L 1159 3500 
L 1159 2956 
Q 1341 3275 1631 3429 
Q 1922 3584 2338 3584 
Q 2397 3584 2469 3576 
Q 2541 3569 2628 3553 
L 2631 2963 
z
" transform="scale(0.015625)"/>
      <path id="DejaVuSans-61" d="M 2194 1759 
Q 1497 1759 1228 1600 
Q 959 1441 959 1056 
Q 959 750 1161 570 
Q 1363 391 1709 391 
Q 2188 391 2477 730 
Q 2766 1069 2766 1631 
L 2766 1759 
L 2194 1759 
z
M 3341 1997 
L 3341 0 
L 2766 0 
L 2766 531 
Q 2569 213 2275 61 
Q 1981 -91 1556 -91 
Q 1019 -91 701 211 
Q 384 513 384 1019 
Q 384 1609 779 1909 
Q 1175 2209 1959 2209 
L 2766 2209 
L 2766 2266 
Q 2766 2663 2505 2880 
Q 2244 3097 1772 3097 
Q 1472 3097 1187 3025 
Q 903 2953 641 2809 
L 641 3341 
Q 956 3463 1253 3523 
Q 1550 3584 1831 3584 
Q 2591 3584 2966 3190 
Q 3341 2797 3341 1997 
z
" transform="scale(0.015625)"/>
      <path id="DejaVuSans-69" d="M 603 3500 
L 1178 3500 
L 1178 0 
L 603 0 
L 603 3500 
z
M 603 4863 
L 1178 4863 
L 1178 4134 
L 603 4134 
L 603 4863 
z
" transform="scale(0.015625)"/>
      <path id="DejaVuSans-6e" d="M 3513 2113 
L 3513 0 
L 2938 0 
L 2938 2094 
Q 2938 2591 2744 2837 
Q 2550 3084 2163 3084 
Q 1697 3084 1428 2787 
Q 1159 2491 1159 1978 
L 1159 0 
L 581 0 
L 581 3500 
L 1159 3500 
L 1159 2956 
Q 1366 3272 1645 3428 
Q 1925 3584 2291 3584 
Q 2894 3584 3203 3211 
Q 3513 2838 3513 2113 
z
" transform="scale(0.015625)"/>
      <path id="DejaVuSans-67" d="M 2906 1791 
Q 2906 2416 2648 2759 
Q 2391 3103 1925 3103 
Q 1463 3103 1205 2759 
Q 947 2416 947 1791 
Q 947 1169 1205 825 
Q 1463 481 1925 481 
Q 2391 481 2648 825 
Q 2906 1169 2906 1791 
z
M 3481 434 
Q 3481 -459 3084 -895 
Q 2688 -1331 1869 -1331 
Q 1566 -1331 1297 -1286 
Q 1028 -1241 775 -1147 
L 775 -588 
Q 1028 -725 1275 -790 
Q 1522 -856 1778 -856 
Q 2344 -856 2625 -561 
Q 2906 -266 2906 331 
L 2906 616 
Q 2728 306 2450 153 
Q 2172 0 1784 0 
Q 1141 0 747 490 
Q 353 981 353 1791 
Q 353 2603 747 3093 
Q 1141 3584 1784 3584 
Q 2172 3584 2450 3431 
Q 2728 3278 2906 2969 
L 2906 3500 
L 3481 3500 
L 3481 434 
z
" transform="scale(0.015625)"/>
      <path id="DejaVuSans-20" transform="scale(0.015625)"/>
      <path id="DejaVuSans-64" d="M 2906 2969 
L 2906 4863 
L 3481 4863 
L 3481 0 
L 2906 0 
L 2906 525 
Q 2725 213 2448 61 
Q 2172 -91 1784 -91 
Q 1150 -91 751 415 
Q 353 922 353 1747 
Q 353 2572 751 3078 
Q 1150 3584 1784 3584 
Q 2172 3584 2448 3432 
Q 2725 3281 2906 2969 
z
M 947 1747 
Q 947 1113 1208 752 
Q 1469 391 1925 391 
Q 2381 391 2643 752 
Q 2906 1113 2906 1747 
Q 2906 2381 2643 2742 
Q 2381 3103 1925 3103 
Q 1469 3103 1208 2742 
Q 947 2381 947 1747 
z
" transform="scale(0.015625)"/>
      <path id="DejaVuSans-76" d="M 191 3500 
L 800 3500 
L 1894 563 
L 2988 3500 
L 3597 3500 
L 2284 0 
L 1503 0 
L 191 3500 
z
" transform="scale(0.015625)"/>
      <path id="DejaVuSans-6c" d="M 603 4863 
L 1178 4863 
L 1178 0 
L 603 0 
L 603 4863 
z
" transform="scale(0.015625)"/>
      <path id="DejaVuSans-74" d="M 1172 4494 
L 1172 3500 
L 2356 3500 
L 2356 3053 
L 1172 3053 
L 1172 1153 
Q 1172 725 1289 603 
Q 1406 481 1766 481 
L 2356 481 
L 2356 0 
L 1766 0 
Q 1100 0 847 248 
Q 594 497 594 1153 
L 594 3053 
L 172 3053 
L 172 3500 
L 594 3500 
L 594 4494 
L 1172 4494 
z
" transform="scale(0.015625)"/>
      <path id="DejaVuSans-6f" d="M 1959 3097 
Q 1497 3097 1228 2736 
Q 959 2375 959 1747 
Q 959 1119 1226 758 
Q 1494 397 1959 397 
Q 2419 397 2687 759 
Q 2956 1122 2956 1747 
Q 2956 2369 2687 2733 
Q 2419 3097 1959 3097 
z
M 1959 3584 
Q 2709 3584 3137 3096 
Q 3566 2609 3566 1747 
Q 3566 888 3137 398 
Q 2709 -91 1959 -91 
Q 1206 -91 779 398 
Q 353 888 353 1747 
Q 353 2609 779 3096 
Q 1206 3584 1959 3584 
z
" transform="scale(0.015625)"/>
      <path id="DejaVuSans-63" d="M 3122 3366 
L 3122 2828 
Q 2878 2963 2633 3030 
Q 2388 3097 2138 3097 
Q 1578 3097 1268 2742 
Q 959 2388 959 1747 
Q 959 1106 1268 751 
Q 1578 397 2138 397 
Q 2388 397 2633 464 
Q 2878 531 3122 666 
L 3122 134 
Q 2881 22 2623 -34 
Q 2366 -91 2075 -91 
Q 1284 -91 818 406 
Q 353 903 353 1747 
Q 353 2603 823 3093 
Q 1294 3584 2113 3584 
Q 2378 3584 2631 3529 
Q 2884 3475 3122 3366 
z
" transform="scale(0.015625)"/>
      <path id="DejaVuSans-75" d="M 544 1381 
L 544 3500 
L 1119 3500 
L 1119 1403 
Q 1119 906 1312 657 
Q 1506 409 1894 409 
Q 2359 409 2629 706 
Q 2900 1003 2900 1516 
L 2900 3500 
L 3475 3500 
L 3475 0 
L 2900 0 
L 2900 538 
Q 2691 219 2414 64 
Q 2138 -91 1772 -91 
Q 1169 -91 856 284 
Q 544 659 544 1381 
z
M 1991 3584 
L 1991 3584 
z
" transform="scale(0.015625)"/>
      <path id="DejaVuSans-79" d="M 2059 -325 
Q 1816 -950 1584 -1140 
Q 1353 -1331 966 -1331 
L 506 -1331 
L 506 -850 
L 844 -850 
Q 1081 -850 1212 -737 
Q 1344 -625 1503 -206 
L 1606 56 
L 191 3500 
L 800 3500 
L 1894 763 
L 2988 3500 
L 3597 3500 
L 2059 -325 
z
" transform="scale(0.015625)"/>
     </defs>
     <use xlink:href="#DejaVuSans-54"/>
     <use xlink:href="#DejaVuSans-72" x="46.333984"/>
     <use xlink:href="#DejaVuSans-61" x="87.447266"/>
     <use xlink:href="#DejaVuSans-69" x="148.726562"/>
     <use xlink:href="#DejaVuSans-6e" x="176.509766"/>
     <use xlink:href="#DejaVuSans-69" x="239.888672"/>
     <use xlink:href="#DejaVuSans-6e" x="267.671875"/>
     <use xlink:href="#DejaVuSans-67" x="331.050781"/>
     <use xlink:href="#DejaVuSans-20" x="394.527344"/>
     <use xlink:href="#DejaVuSans-61" x="426.314453"/>
     <use xlink:href="#DejaVuSans-6e" x="487.59375"/>
     <use xlink:href="#DejaVuSans-64" x="550.972656"/>
     <use xlink:href="#DejaVuSans-20" x="614.449219"/>
     <use xlink:href="#DejaVuSans-76" x="646.236328"/>
     <use xlink:href="#DejaVuSans-61" x="705.416016"/>
     <use xlink:href="#DejaVuSans-6c" x="766.695312"/>
     <use xlink:href="#DejaVuSans-69" x="794.478516"/>
     <use xlink:href="#DejaVuSans-64" x="822.261719"/>
     <use xlink:href="#DejaVuSans-61" x="885.738281"/>
     <use xlink:href="#DejaVuSans-74" x="947.017578"/>
     <use xlink:href="#DejaVuSans-69" x="986.226562"/>
     <use xlink:href="#DejaVuSans-6f" x="1014.009766"/>
     <use xlink:href="#DejaVuSans-6e" x="1075.191406"/>
     <use xlink:href="#DejaVuSans-20" x="1138.570312"/>
     <use xlink:href="#DejaVuSans-61" x="1170.357422"/>
     <use xlink:href="#DejaVuSans-63" x="1231.636719"/>
     <use xlink:href="#DejaVuSans-63" x="1286.617188"/>
     <use xlink:href="#DejaVuSans-75" x="1341.597656"/>
     <use xlink:href="#DejaVuSans-72" x="1404.976562"/>
     <use xlink:href="#DejaVuSans-61" x="1446.089844"/>
     <use xlink:href="#DejaVuSans-63" x="1507.369141"/>
     <use xlink:href="#DejaVuSans-79" x="1562.349609"/>
    </g>
   </g>
  </g>
 </g>
 <defs>
  <clipPath id="p744af4b254">
   <rect x="54" y="34.56" width="334.8" height="217.44"/>
  </clipPath>
 </defs>
</svg>
