<?xml version="1.0" encoding="utf-8" standalone="no"?>
<!DOCTYPE svg PUBLIC "-//W3C//DTD SVG 1.1//EN"
  "http://www.w3.org/Graphics/SVG/1.1/DTD/svg11.dtd">
<svg xmlns:xlink="http://www.w3.org/1999/xlink" width="432pt" height="288pt" viewBox="0 0 432 288" xmlns="http://www.w3.org/2000/svg" version="1.1">
 <metadata>
  <rdf:RDF xmlns:dc="http://purl.org/dc/elements/1.1/" xmlns:cc="http://creativecommons.org/ns#" xmlns:rdf="http://www.w3.org/1999/02/22-rdf-syntax-ns#">
   <cc:Work>
    <dc:type rdf:resource="http://purl.org/dc/dcmitype/StillImage"/>
    <dc:date>2022-07-28T12:39:30.617815</dc:date>
    <dc:format>image/svg+xml</dc:format>
    <dc:creator>
     <cc:Agent>
      <dc:title>Matplotlib v3.5.2, https://matplotlib.org/</dc:title>
     </cc:Agent>
    </dc:creator>
   </cc:Work>
  </rdf:RDF>
 </metadata>
 <defs>
  <style type="text/css">*{stroke-linejoin: round; stroke-linecap: butt}</style>
 </defs>
 <g id="figure_1">
  <g id="patch_1">
   <path d="M 0 288 
L 432 288 
L 432 0 
L 0 0 
L 0 288 
z
" style="fill: none"/>
  </g>
  <g id="axes_1">
   <g id="patch_2">
    <path d="M 54 252 
L 388.8 252 
L 388.8 34.56 
L 54 34.56 
z
" style="fill: #ffffff"/>
   </g>
   <g id="matplotlib.axis_1">
    <g id="xtick_1">
     <g id="line2d_1">
      <defs>
       <path id="m44de814407" d="M 0 0 
L 0 3.5 
" style="stroke: #000000; stroke-width: 0.8"/>
      </defs>
      <g>
       <use xlink:href="#m44de814407" x="69.218182" y="252" style="stroke: #000000; stroke-width: 0.8"/>
      </g>
     </g>
     <g id="text_1">
      <!-- 0 -->
      <g transform="translate(66.036932 266.598437)scale(0.1 -0.1)">
       <defs>
        <path id="DejaVuSans-30" d="M 2034 4250 
Q 1547 4250 1301 3770 
Q 1056 3291 1056 2328 
Q 1056 1369 1301 889 
Q 1547 409 2034 409 
Q 2525 409 2770 889 
Q 3016 1369 3016 2328 
Q 3016 3291 2770 3770 
Q 2525 4250 2034 4250 
z
M 2034 4750 
Q 2819 4750 3233 4129 
Q 3647 3509 3647 2328 
Q 3647 1150 3233 529 
Q 2819 -91 2034 -91 
Q 1250 -91 836 529 
Q 422 1150 422 2328 
Q 422 3509 836 4129 
Q 1250 4750 2034 4750 
z
" transform="scale(0.015625)"/>
       </defs>
       <use xlink:href="#DejaVuSans-30"/>
      </g>
     </g>
    </g>
    <g id="xtick_2">
     <g id="line2d_2">
      <g>
       <use xlink:href="#m44de814407" x="110.072361" y="252" style="stroke: #000000; stroke-width: 0.8"/>
      </g>
     </g>
     <g id="text_2">
      <!-- 20 -->
      <g transform="translate(103.709861 266.598437)scale(0.1 -0.1)">
       <defs>
        <path id="DejaVuSans-32" d="M 1228 531 
L 3431 531 
L 3431 0 
L 469 0 
L 469 531 
Q 828 903 1448 1529 
Q 2069 2156 2228 2338 
Q 2531 2678 2651 2914 
Q 2772 3150 2772 3378 
Q 2772 3750 2511 3984 
Q 2250 4219 1831 4219 
Q 1534 4219 1204 4116 
Q 875 4013 500 3803 
L 500 4441 
Q 881 4594 1212 4672 
Q 1544 4750 1819 4750 
Q 2544 4750 2975 4387 
Q 3406 4025 3406 3419 
Q 3406 3131 3298 2873 
Q 3191 2616 2906 2266 
Q 2828 2175 2409 1742 
Q 1991 1309 1228 531 
z
" transform="scale(0.015625)"/>
       </defs>
       <use xlink:href="#DejaVuSans-32"/>
       <use xlink:href="#DejaVuSans-30" x="63.623047"/>
      </g>
     </g>
    </g>
    <g id="xtick_3">
     <g id="line2d_3">
      <g>
       <use xlink:href="#m44de814407" x="150.926541" y="252" style="stroke: #000000; stroke-width: 0.8"/>
      </g>
     </g>
     <g id="text_3">
      <!-- 40 -->
      <g transform="translate(144.564041 266.598437)scale(0.1 -0.1)">
       <defs>
        <path id="DejaVuSans-34" d="M 2419 4116 
L 825 1625 
L 2419 1625 
L 2419 4116 
z
M 2253 4666 
L 3047 4666 
L 3047 1625 
L 3713 1625 
L 3713 1100 
L 3047 1100 
L 3047 0 
L 2419 0 
L 2419 1100 
L 313 1100 
L 313 1709 
L 2253 4666 
z
" transform="scale(0.015625)"/>
       </defs>
       <use xlink:href="#DejaVuSans-34"/>
       <use xlink:href="#DejaVuSans-30" x="63.623047"/>
      </g>
     </g>
    </g>
    <g id="xtick_4">
     <g id="line2d_4">
      <g>
       <use xlink:href="#m44de814407" x="191.78072" y="252" style="stroke: #000000; stroke-width: 0.8"/>
      </g>
     </g>
     <g id="text_4">
      <!-- 60 -->
      <g transform="translate(185.41822 266.598437)scale(0.1 -0.1)">
       <defs>
        <path id="DejaVuSans-36" d="M 2113 2584 
Q 1688 2584 1439 2293 
Q 1191 2003 1191 1497 
Q 1191 994 1439 701 
Q 1688 409 2113 409 
Q 2538 409 2786 701 
Q 3034 994 3034 1497 
Q 3034 2003 2786 2293 
Q 2538 2584 2113 2584 
z
M 3366 4563 
L 3366 3988 
Q 3128 4100 2886 4159 
Q 2644 4219 2406 4219 
Q 1781 4219 1451 3797 
Q 1122 3375 1075 2522 
Q 1259 2794 1537 2939 
Q 1816 3084 2150 3084 
Q 2853 3084 3261 2657 
Q 3669 2231 3669 1497 
Q 3669 778 3244 343 
Q 2819 -91 2113 -91 
Q 1303 -91 875 529 
Q 447 1150 447 2328 
Q 447 3434 972 4092 
Q 1497 4750 2381 4750 
Q 2619 4750 2861 4703 
Q 3103 4656 3366 4563 
z
" transform="scale(0.015625)"/>
       </defs>
       <use xlink:href="#DejaVuSans-36"/>
       <use xlink:href="#DejaVuSans-30" x="63.623047"/>
      </g>
     </g>
    </g>
    <g id="xtick_5">
     <g id="line2d_5">
      <g>
       <use xlink:href="#m44de814407" x="232.634899" y="252" style="stroke: #000000; stroke-width: 0.8"/>
      </g>
     </g>
     <g id="text_5">
      <!-- 80 -->
      <g transform="translate(226.272399 266.598437)scale(0.1 -0.1)">
       <defs>
        <path id="DejaVuSans-38" d="M 2034 2216 
Q 1584 2216 1326 1975 
Q 1069 1734 1069 1313 
Q 1069 891 1326 650 
Q 1584 409 2034 409 
Q 2484 409 2743 651 
Q 3003 894 3003 1313 
Q 3003 1734 2745 1975 
Q 2488 2216 2034 2216 
z
M 1403 2484 
Q 997 2584 770 2862 
Q 544 3141 544 3541 
Q 544 4100 942 4425 
Q 1341 4750 2034 4750 
Q 2731 4750 3128 4425 
Q 3525 4100 3525 3541 
Q 3525 3141 3298 2862 
Q 3072 2584 2669 2484 
Q 3125 2378 3379 2068 
Q 3634 1759 3634 1313 
Q 3634 634 3220 271 
Q 2806 -91 2034 -91 
Q 1263 -91 848 271 
Q 434 634 434 1313 
Q 434 1759 690 2068 
Q 947 2378 1403 2484 
z
M 1172 3481 
Q 1172 3119 1398 2916 
Q 1625 2713 2034 2713 
Q 2441 2713 2670 2916 
Q 2900 3119 2900 3481 
Q 2900 3844 2670 4047 
Q 2441 4250 2034 4250 
Q 1625 4250 1398 4047 
Q 1172 3844 1172 3481 
z
" transform="scale(0.015625)"/>
       </defs>
       <use xlink:href="#DejaVuSans-38"/>
       <use xlink:href="#DejaVuSans-30" x="63.623047"/>
      </g>
     </g>
    </g>
    <g id="xtick_6">
     <g id="line2d_6">
      <g>
       <use xlink:href="#m44de814407" x="273.489079" y="252" style="stroke: #000000; stroke-width: 0.8"/>
      </g>
     </g>
     <g id="text_6">
      <!-- 100 -->
      <g transform="translate(263.945329 266.598437)scale(0.1 -0.1)">
       <defs>
        <path id="DejaVuSans-31" d="M 794 531 
L 1825 531 
L 1825 4091 
L 703 3866 
L 703 4441 
L 1819 4666 
L 2450 4666 
L 2450 531 
L 3481 531 
L 3481 0 
L 794 0 
L 794 531 
z
" transform="scale(0.015625)"/>
       </defs>
       <use xlink:href="#DejaVuSans-31"/>
       <use xlink:href="#DejaVuSans-30" x="63.623047"/>
       <use xlink:href="#DejaVuSans-30" x="127.246094"/>
      </g>
     </g>
    </g>
    <g id="xtick_7">
     <g id="line2d_7">
      <g>
       <use xlink:href="#m44de814407" x="314.343258" y="252" style="stroke: #000000; stroke-width: 0.8"/>
      </g>
     </g>
     <g id="text_7">
      <!-- 120 -->
      <g transform="translate(304.799508 266.598437)scale(0.1 -0.1)">
       <use xlink:href="#DejaVuSans-31"/>
       <use xlink:href="#DejaVuSans-32" x="63.623047"/>
       <use xlink:href="#DejaVuSans-30" x="127.246094"/>
      </g>
     </g>
    </g>
    <g id="xtick_8">
     <g id="line2d_8">
      <g>
       <use xlink:href="#m44de814407" x="355.197437" y="252" style="stroke: #000000; stroke-width: 0.8"/>
      </g>
     </g>
     <g id="text_8">
      <!-- 140 -->
      <g transform="translate(345.653687 266.598437)scale(0.1 -0.1)">
       <use xlink:href="#DejaVuSans-31"/>
       <use xlink:href="#DejaVuSans-34" x="63.623047"/>
       <use xlink:href="#DejaVuSans-30" x="127.246094"/>
      </g>
     </g>
    </g>
   </g>
   <g id="matplotlib.axis_2">
    <g id="ytick_1">
     <g id="line2d_9">
      <defs>
       <path id="m1b4124b23b" d="M 0 0 
L -3.5 0 
" style="stroke: #000000; stroke-width: 0.8"/>
      </defs>
      <g>
       <use xlink:href="#m1b4124b23b" x="54" y="242.744299" style="stroke: #000000; stroke-width: 0.8"/>
      </g>
     </g>
     <g id="text_9">
      <!-- 0.0 -->
      <g transform="translate(31.096875 246.543517)scale(0.1 -0.1)">
       <defs>
        <path id="DejaVuSans-2e" d="M 684 794 
L 1344 794 
L 1344 0 
L 684 0 
L 684 794 
z
" transform="scale(0.015625)"/>
       </defs>
       <use xlink:href="#DejaVuSans-30"/>
       <use xlink:href="#DejaVuSans-2e" x="63.623047"/>
       <use xlink:href="#DejaVuSans-30" x="95.410156"/>
      </g>
     </g>
    </g>
    <g id="ytick_2">
     <g id="line2d_10">
      <g>
       <use xlink:href="#m1b4124b23b" x="54" y="216.330591" style="stroke: #000000; stroke-width: 0.8"/>
      </g>
     </g>
     <g id="text_10">
      <!-- 0.1 -->
      <g transform="translate(31.096875 220.129809)scale(0.1 -0.1)">
       <use xlink:href="#DejaVuSans-30"/>
       <use xlink:href="#DejaVuSans-2e" x="63.623047"/>
       <use xlink:href="#DejaVuSans-31" x="95.410156"/>
      </g>
     </g>
    </g>
    <g id="ytick_3">
     <g id="line2d_11">
      <g>
       <use xlink:href="#m1b4124b23b" x="54" y="189.916883" style="stroke: #000000; stroke-width: 0.8"/>
      </g>
     </g>
     <g id="text_11">
      <!-- 0.2 -->
      <g transform="translate(31.096875 193.716101)scale(0.1 -0.1)">
       <use xlink:href="#DejaVuSans-30"/>
       <use xlink:href="#DejaVuSans-2e" x="63.623047"/>
       <use xlink:href="#DejaVuSans-32" x="95.410156"/>
      </g>
     </g>
    </g>
    <g id="ytick_4">
     <g id="line2d_12">
      <g>
       <use xlink:href="#m1b4124b23b" x="54" y="163.503175" style="stroke: #000000; stroke-width: 0.8"/>
      </g>
     </g>
     <g id="text_12">
      <!-- 0.3 -->
      <g transform="translate(31.096875 167.302393)scale(0.1 -0.1)">
       <defs>
        <path id="DejaVuSans-33" d="M 2597 2516 
Q 3050 2419 3304 2112 
Q 3559 1806 3559 1356 
Q 3559 666 3084 287 
Q 2609 -91 1734 -91 
Q 1441 -91 1130 -33 
Q 819 25 488 141 
L 488 750 
Q 750 597 1062 519 
Q 1375 441 1716 441 
Q 2309 441 2620 675 
Q 2931 909 2931 1356 
Q 2931 1769 2642 2001 
Q 2353 2234 1838 2234 
L 1294 2234 
L 1294 2753 
L 1863 2753 
Q 2328 2753 2575 2939 
Q 2822 3125 2822 3475 
Q 2822 3834 2567 4026 
Q 2313 4219 1838 4219 
Q 1578 4219 1281 4162 
Q 984 4106 628 3988 
L 628 4550 
Q 988 4650 1302 4700 
Q 1616 4750 1894 4750 
Q 2613 4750 3031 4423 
Q 3450 4097 3450 3541 
Q 3450 3153 3228 2886 
Q 3006 2619 2597 2516 
z
" transform="scale(0.015625)"/>
       </defs>
       <use xlink:href="#DejaVuSans-30"/>
       <use xlink:href="#DejaVuSans-2e" x="63.623047"/>
       <use xlink:href="#DejaVuSans-33" x="95.410156"/>
      </g>
     </g>
    </g>
    <g id="ytick_5">
     <g id="line2d_13">
      <g>
       <use xlink:href="#m1b4124b23b" x="54" y="137.089467" style="stroke: #000000; stroke-width: 0.8"/>
      </g>
     </g>
     <g id="text_13">
      <!-- 0.4 -->
      <g transform="translate(31.096875 140.888685)scale(0.1 -0.1)">
       <use xlink:href="#DejaVuSans-30"/>
       <use xlink:href="#DejaVuSans-2e" x="63.623047"/>
       <use xlink:href="#DejaVuSans-34" x="95.410156"/>
      </g>
     </g>
    </g>
    <g id="ytick_6">
     <g id="line2d_14">
      <g>
       <use xlink:href="#m1b4124b23b" x="54" y="110.675759" style="stroke: #000000; stroke-width: 0.8"/>
      </g>
     </g>
     <g id="text_14">
      <!-- 0.5 -->
      <g transform="translate(31.096875 114.474977)scale(0.1 -0.1)">
       <defs>
        <path id="DejaVuSans-35" d="M 691 4666 
L 3169 4666 
L 3169 4134 
L 1269 4134 
L 1269 2991 
Q 1406 3038 1543 3061 
Q 1681 3084 1819 3084 
Q 2600 3084 3056 2656 
Q 3513 2228 3513 1497 
Q 3513 744 3044 326 
Q 2575 -91 1722 -91 
Q 1428 -91 1123 -41 
Q 819 9 494 109 
L 494 744 
Q 775 591 1075 516 
Q 1375 441 1709 441 
Q 2250 441 2565 725 
Q 2881 1009 2881 1497 
Q 2881 1984 2565 2268 
Q 2250 2553 1709 2553 
Q 1456 2553 1204 2497 
Q 953 2441 691 2322 
L 691 4666 
z
" transform="scale(0.015625)"/>
       </defs>
       <use xlink:href="#DejaVuSans-30"/>
       <use xlink:href="#DejaVuSans-2e" x="63.623047"/>
       <use xlink:href="#DejaVuSans-35" x="95.410156"/>
      </g>
     </g>
    </g>
    <g id="ytick_7">
     <g id="line2d_15">
      <g>
       <use xlink:href="#m1b4124b23b" x="54" y="84.262051" style="stroke: #000000; stroke-width: 0.8"/>
      </g>
     </g>
     <g id="text_15">
      <!-- 0.6 -->
      <g transform="translate(31.096875 88.061269)scale(0.1 -0.1)">
       <use xlink:href="#DejaVuSans-30"/>
       <use xlink:href="#DejaVuSans-2e" x="63.623047"/>
       <use xlink:href="#DejaVuSans-36" x="95.410156"/>
      </g>
     </g>
    </g>
    <g id="ytick_8">
     <g id="line2d_16">
      <g>
       <use xlink:href="#m1b4124b23b" x="54" y="57.848343" style="stroke: #000000; stroke-width: 0.8"/>
      </g>
     </g>
     <g id="text_16">
      <!-- 0.7 -->
      <g transform="translate(31.096875 61.647561)scale(0.1 -0.1)">
       <defs>
        <path id="DejaVuSans-37" d="M 525 4666 
L 3525 4666 
L 3525 4397 
L 1831 0 
L 1172 0 
L 2766 4134 
L 525 4134 
L 525 4666 
z
" transform="scale(0.015625)"/>
       </defs>
       <use xlink:href="#DejaVuSans-30"/>
       <use xlink:href="#DejaVuSans-2e" x="63.623047"/>
       <use xlink:href="#DejaVuSans-37" x="95.410156"/>
      </g>
     </g>
    </g>
   </g>
   <g id="line2d_17">
    <defs>
     <path id="m586789651c" d="M 0 3 
C 0.795609 3 1.55874 2.683901 2.12132 2.12132 
C 2.683901 1.55874 3 0.795609 3 0 
C 3 -0.795609 2.683901 -1.55874 2.12132 -2.12132 
C 1.55874 -2.683901 0.795609 -3 0 -3 
C -0.795609 -3 -1.55874 -2.683901 -2.12132 -2.12132 
C -2.683901 -1.55874 -3 -0.795609 -3 0 
C -3 0.795609 -2.683901 1.55874 -2.12132 2.12132 
C -1.55874 2.683901 -0.795609 3 0 3 
z
" style="stroke: #0000ff"/>
    </defs>
    <g clip-path="url(#peeab24dcf7)">
     <use xlink:href="#m586789651c" x="69.218182" y="44.443636" style="fill: #0000ff; stroke: #0000ff"/>
     <use xlink:href="#m586789651c" x="71.260891" y="209.12041" style="fill: #0000ff; stroke: #0000ff"/>
     <use xlink:href="#m586789651c" x="73.3036" y="219.804211" style="fill: #0000ff; stroke: #0000ff"/>
     <use xlink:href="#m586789651c" x="75.346309" y="222.295185" style="fill: #0000ff; stroke: #0000ff"/>
     <use xlink:href="#m586789651c" x="77.389018" y="222.749677" style="fill: #0000ff; stroke: #0000ff"/>
     <use xlink:href="#m586789651c" x="79.431727" y="232.714482" style="fill: #0000ff; stroke: #0000ff"/>
     <use xlink:href="#m586789651c" x="81.474436" y="224.371516" style="fill: #0000ff; stroke: #0000ff"/>
     <use xlink:href="#m586789651c" x="83.517145" y="226.59942" style="fill: #0000ff; stroke: #0000ff"/>
     <use xlink:href="#m586789651c" x="85.559854" y="227.701001" style="fill: #0000ff; stroke: #0000ff"/>
     <use xlink:href="#m586789651c" x="87.602563" y="230.125496" style="fill: #0000ff; stroke: #0000ff"/>
     <use xlink:href="#m586789651c" x="89.645272" y="229.887734" style="fill: #0000ff; stroke: #0000ff"/>
     <use xlink:href="#m586789651c" x="91.68798" y="229.988418" style="fill: #0000ff; stroke: #0000ff"/>
     <use xlink:href="#m586789651c" x="93.730689" y="228.870405" style="fill: #0000ff; stroke: #0000ff"/>
     <use xlink:href="#m586789651c" x="95.773398" y="232.95846" style="fill: #0000ff; stroke: #0000ff"/>
     <use xlink:href="#m586789651c" x="97.816107" y="229.830647" style="fill: #0000ff; stroke: #0000ff"/>
     <use xlink:href="#m586789651c" x="99.858816" y="233.104846" style="fill: #0000ff; stroke: #0000ff"/>
     <use xlink:href="#m586789651c" x="101.901525" y="233.091498" style="fill: #0000ff; stroke: #0000ff"/>
     <use xlink:href="#m586789651c" x="103.944234" y="235.396961" style="fill: #0000ff; stroke: #0000ff"/>
     <use xlink:href="#m586789651c" x="105.986943" y="236.873484" style="fill: #0000ff; stroke: #0000ff"/>
     <use xlink:href="#m586789651c" x="108.029652" y="235.521438" style="fill: #0000ff; stroke: #0000ff"/>
     <use xlink:href="#m586789651c" x="110.072361" y="234.047084" style="fill: #0000ff; stroke: #0000ff"/>
     <use xlink:href="#m586789651c" x="112.11507" y="232.38935" style="fill: #0000ff; stroke: #0000ff"/>
     <use xlink:href="#m586789651c" x="114.157779" y="230.603722" style="fill: #0000ff; stroke: #0000ff"/>
     <use xlink:href="#m586789651c" x="116.200488" y="232.815146" style="fill: #0000ff; stroke: #0000ff"/>
     <use xlink:href="#m586789651c" x="118.243197" y="234.765875" style="fill: #0000ff; stroke: #0000ff"/>
     <use xlink:href="#m586789651c" x="120.285906" y="234.004144" style="fill: #0000ff; stroke: #0000ff"/>
     <use xlink:href="#m586789651c" x="122.328615" y="238.231958" style="fill: #0000ff; stroke: #0000ff"/>
     <use xlink:href="#m586789651c" x="124.371324" y="240.10444" style="fill: #0000ff; stroke: #0000ff"/>
     <use xlink:href="#m586789651c" x="126.414033" y="236.270683" style="fill: #0000ff; stroke: #0000ff"/>
     <use xlink:href="#m586789651c" x="128.456742" y="236.337326" style="fill: #0000ff; stroke: #0000ff"/>
     <use xlink:href="#m586789651c" x="130.499451" y="235.470677" style="fill: #0000ff; stroke: #0000ff"/>
     <use xlink:href="#m586789651c" x="132.54216" y="236.076991" style="fill: #0000ff; stroke: #0000ff"/>
     <use xlink:href="#m586789651c" x="134.584869" y="238.483747" style="fill: #0000ff; stroke: #0000ff"/>
     <use xlink:href="#m586789651c" x="136.627578" y="237.569157" style="fill: #0000ff; stroke: #0000ff"/>
     <use xlink:href="#m586789651c" x="138.670287" y="237.727624" style="fill: #0000ff; stroke: #0000ff"/>
     <use xlink:href="#m586789651c" x="140.712996" y="231.337983" style="fill: #0000ff; stroke: #0000ff"/>
     <use xlink:href="#m586789651c" x="142.755705" y="235.294627" style="fill: #0000ff; stroke: #0000ff"/>
     <use xlink:href="#m586789651c" x="144.798414" y="237.680907" style="fill: #0000ff; stroke: #0000ff"/>
     <use xlink:href="#m586789651c" x="146.841123" y="239.720259" style="fill: #0000ff; stroke: #0000ff"/>
     <use xlink:href="#m586789651c" x="148.883832" y="239.617968" style="fill: #0000ff; stroke: #0000ff"/>
     <use xlink:href="#m586789651c" x="150.926541" y="240.909565" style="fill: #0000ff; stroke: #0000ff"/>
     <use xlink:href="#m586789651c" x="152.96925" y="237.474368" style="fill: #0000ff; stroke: #0000ff"/>
     <use xlink:href="#m586789651c" x="155.011959" y="232.508352" style="fill: #0000ff; stroke: #0000ff"/>
     <use xlink:href="#m586789651c" x="157.054667" y="237.953155" style="fill: #0000ff; stroke: #0000ff"/>
     <use xlink:href="#m586789651c" x="159.097376" y="240.122948" style="fill: #0000ff; stroke: #0000ff"/>
     <use xlink:href="#m586789651c" x="161.140085" y="237.014301" style="fill: #0000ff; stroke: #0000ff"/>
     <use xlink:href="#m586789651c" x="163.182794" y="237.623614" style="fill: #0000ff; stroke: #0000ff"/>
     <use xlink:href="#m586789651c" x="165.225503" y="236.003606" style="fill: #0000ff; stroke: #0000ff"/>
     <use xlink:href="#m586789651c" x="167.268212" y="236.940523" style="fill: #0000ff; stroke: #0000ff"/>
     <use xlink:href="#m586789651c" x="169.310921" y="239.414391" style="fill: #0000ff; stroke: #0000ff"/>
     <use xlink:href="#m586789651c" x="171.35363" y="237.831811" style="fill: #0000ff; stroke: #0000ff"/>
     <use xlink:href="#m586789651c" x="173.396339" y="239.560128" style="fill: #0000ff; stroke: #0000ff"/>
     <use xlink:href="#m586789651c" x="175.439048" y="240.981472" style="fill: #0000ff; stroke: #0000ff"/>
     <use xlink:href="#m586789651c" x="177.481757" y="240.403336" style="fill: #0000ff; stroke: #0000ff"/>
     <use xlink:href="#m586789651c" x="179.524466" y="240.656298" style="fill: #0000ff; stroke: #0000ff"/>
     <use xlink:href="#m586789651c" x="181.567175" y="232.441708" style="fill: #0000ff; stroke: #0000ff"/>
     <use xlink:href="#m586789651c" x="183.609884" y="238.606913" style="fill: #0000ff; stroke: #0000ff"/>
     <use xlink:href="#m586789651c" x="185.652593" y="240.226907" style="fill: #0000ff; stroke: #0000ff"/>
     <use xlink:href="#m586789651c" x="187.695302" y="239.470193" style="fill: #0000ff; stroke: #0000ff"/>
     <use xlink:href="#m586789651c" x="189.738011" y="237.617887" style="fill: #0000ff; stroke: #0000ff"/>
     <use xlink:href="#m586789651c" x="191.78072" y="238.937509" style="fill: #0000ff; stroke: #0000ff"/>
     <use xlink:href="#m586789651c" x="193.823429" y="237.601696" style="fill: #0000ff; stroke: #0000ff"/>
     <use xlink:href="#m586789651c" x="195.866138" y="239.475246" style="fill: #0000ff; stroke: #0000ff"/>
     <use xlink:href="#m586789651c" x="197.908847" y="238.383436" style="fill: #0000ff; stroke: #0000ff"/>
     <use xlink:href="#m586789651c" x="199.951556" y="237.564795" style="fill: #0000ff; stroke: #0000ff"/>
     <use xlink:href="#m586789651c" x="201.994265" y="240.458554" style="fill: #0000ff; stroke: #0000ff"/>
     <use xlink:href="#m586789651c" x="204.036974" y="239.812479" style="fill: #0000ff; stroke: #0000ff"/>
     <use xlink:href="#m586789651c" x="206.079683" y="240.655354" style="fill: #0000ff; stroke: #0000ff"/>
     <use xlink:href="#m586789651c" x="208.122392" y="240.249089" style="fill: #0000ff; stroke: #0000ff"/>
     <use xlink:href="#m586789651c" x="210.165101" y="239.662897" style="fill: #0000ff; stroke: #0000ff"/>
     <use xlink:href="#m586789651c" x="212.20781" y="240.637569" style="fill: #0000ff; stroke: #0000ff"/>
     <use xlink:href="#m586789651c" x="214.250519" y="231.143257" style="fill: #0000ff; stroke: #0000ff"/>
     <use xlink:href="#m586789651c" x="216.293228" y="239.746645" style="fill: #0000ff; stroke: #0000ff"/>
     <use xlink:href="#m586789651c" x="218.335937" y="238.970884" style="fill: #0000ff; stroke: #0000ff"/>
     <use xlink:href="#m586789651c" x="220.378646" y="236.417599" style="fill: #0000ff; stroke: #0000ff"/>
     <use xlink:href="#m586789651c" x="222.421354" y="240.105904" style="fill: #0000ff; stroke: #0000ff"/>
     <use xlink:href="#m586789651c" x="224.464063" y="240.51453" style="fill: #0000ff; stroke: #0000ff"/>
     <use xlink:href="#m586789651c" x="226.506772" y="239.068333" style="fill: #0000ff; stroke: #0000ff"/>
     <use xlink:href="#m586789651c" x="228.549481" y="236.878444" style="fill: #0000ff; stroke: #0000ff"/>
     <use xlink:href="#m586789651c" x="230.59219" y="240.864932" style="fill: #0000ff; stroke: #0000ff"/>
     <use xlink:href="#m586789651c" x="232.634899" y="240.481782" style="fill: #0000ff; stroke: #0000ff"/>
     <use xlink:href="#m586789651c" x="234.677608" y="241.442615" style="fill: #0000ff; stroke: #0000ff"/>
     <use xlink:href="#m586789651c" x="236.720317" y="240.295595" style="fill: #0000ff; stroke: #0000ff"/>
     <use xlink:href="#m586789651c" x="238.763026" y="240.231966" style="fill: #0000ff; stroke: #0000ff"/>
     <use xlink:href="#m586789651c" x="240.805735" y="241.782871" style="fill: #0000ff; stroke: #0000ff"/>
     <use xlink:href="#m586789651c" x="242.848444" y="235.921403" style="fill: #0000ff; stroke: #0000ff"/>
     <use xlink:href="#m586789651c" x="244.891153" y="239.768314" style="fill: #0000ff; stroke: #0000ff"/>
     <use xlink:href="#m586789651c" x="246.933862" y="241.199062" style="fill: #0000ff; stroke: #0000ff"/>
     <use xlink:href="#m586789651c" x="248.976571" y="238.031983" style="fill: #0000ff; stroke: #0000ff"/>
     <use xlink:href="#m586789651c" x="251.01928" y="239.978697" style="fill: #0000ff; stroke: #0000ff"/>
     <use xlink:href="#m586789651c" x="253.061989" y="238.349782" style="fill: #0000ff; stroke: #0000ff"/>
     <use xlink:href="#m586789651c" x="255.104698" y="240.718085" style="fill: #0000ff; stroke: #0000ff"/>
     <use xlink:href="#m586789651c" x="257.147407" y="239.520525" style="fill: #0000ff; stroke: #0000ff"/>
     <use xlink:href="#m586789651c" x="259.190116" y="241.4474" style="fill: #0000ff; stroke: #0000ff"/>
     <use xlink:href="#m586789651c" x="261.232825" y="240.442487" style="fill: #0000ff; stroke: #0000ff"/>
     <use xlink:href="#m586789651c" x="263.275534" y="240.19119" style="fill: #0000ff; stroke: #0000ff"/>
     <use xlink:href="#m586789651c" x="265.318243" y="239.65158" style="fill: #0000ff; stroke: #0000ff"/>
     <use xlink:href="#m586789651c" x="267.360952" y="239.854658" style="fill: #0000ff; stroke: #0000ff"/>
     <use xlink:href="#m586789651c" x="269.403661" y="238.287389" style="fill: #0000ff; stroke: #0000ff"/>
     <use xlink:href="#m586789651c" x="271.44637" y="240.985337" style="fill: #0000ff; stroke: #0000ff"/>
     <use xlink:href="#m586789651c" x="273.489079" y="241.452547" style="fill: #0000ff; stroke: #0000ff"/>
     <use xlink:href="#m586789651c" x="275.531788" y="242.08155" style="fill: #0000ff; stroke: #0000ff"/>
     <use xlink:href="#m586789651c" x="277.574497" y="239.575822" style="fill: #0000ff; stroke: #0000ff"/>
     <use xlink:href="#m586789651c" x="279.617206" y="238.270993" style="fill: #0000ff; stroke: #0000ff"/>
     <use xlink:href="#m586789651c" x="281.659915" y="240.750744" style="fill: #0000ff; stroke: #0000ff"/>
     <use xlink:href="#m586789651c" x="283.702624" y="239.489765" style="fill: #0000ff; stroke: #0000ff"/>
     <use xlink:href="#m586789651c" x="285.745333" y="238.306902" style="fill: #0000ff; stroke: #0000ff"/>
     <use xlink:href="#m586789651c" x="287.788041" y="239.612317" style="fill: #0000ff; stroke: #0000ff"/>
     <use xlink:href="#m586789651c" x="289.83075" y="239.841045" style="fill: #0000ff; stroke: #0000ff"/>
     <use xlink:href="#m586789651c" x="291.873459" y="241.149015" style="fill: #0000ff; stroke: #0000ff"/>
     <use xlink:href="#m586789651c" x="293.916168" y="241.579177" style="fill: #0000ff; stroke: #0000ff"/>
     <use xlink:href="#m586789651c" x="295.958877" y="240.321824" style="fill: #0000ff; stroke: #0000ff"/>
     <use xlink:href="#m586789651c" x="298.001586" y="241.230254" style="fill: #0000ff; stroke: #0000ff"/>
     <use xlink:href="#m586789651c" x="300.044295" y="238.830313" style="fill: #0000ff; stroke: #0000ff"/>
     <use xlink:href="#m586789651c" x="302.087004" y="238.638256" style="fill: #0000ff; stroke: #0000ff"/>
     <use xlink:href="#m586789651c" x="304.129713" y="237.888513" style="fill: #0000ff; stroke: #0000ff"/>
     <use xlink:href="#m586789651c" x="306.172422" y="240.319881" style="fill: #0000ff; stroke: #0000ff"/>
     <use xlink:href="#m586789651c" x="308.215131" y="239.372176" style="fill: #0000ff; stroke: #0000ff"/>
     <use xlink:href="#m586789651c" x="310.25784" y="239.678518" style="fill: #0000ff; stroke: #0000ff"/>
     <use xlink:href="#m586789651c" x="312.300549" y="240.641455" style="fill: #0000ff; stroke: #0000ff"/>
     <use xlink:href="#m586789651c" x="314.343258" y="240.432836" style="fill: #0000ff; stroke: #0000ff"/>
     <use xlink:href="#m586789651c" x="316.385967" y="240.645191" style="fill: #0000ff; stroke: #0000ff"/>
     <use xlink:href="#m586789651c" x="318.428676" y="238.81024" style="fill: #0000ff; stroke: #0000ff"/>
     <use xlink:href="#m586789651c" x="320.471385" y="237.885687" style="fill: #0000ff; stroke: #0000ff"/>
     <use xlink:href="#m586789651c" x="322.514094" y="241.726323" style="fill: #0000ff; stroke: #0000ff"/>
     <use xlink:href="#m586789651c" x="324.556803" y="241.436493" style="fill: #0000ff; stroke: #0000ff"/>
     <use xlink:href="#m586789651c" x="326.599512" y="241.141517" style="fill: #0000ff; stroke: #0000ff"/>
     <use xlink:href="#m586789651c" x="328.642221" y="240.592261" style="fill: #0000ff; stroke: #0000ff"/>
     <use xlink:href="#m586789651c" x="330.68493" y="241.05013" style="fill: #0000ff; stroke: #0000ff"/>
     <use xlink:href="#m586789651c" x="332.727639" y="236.636803" style="fill: #0000ff; stroke: #0000ff"/>
     <use xlink:href="#m586789651c" x="334.770348" y="241.383079" style="fill: #0000ff; stroke: #0000ff"/>
     <use xlink:href="#m586789651c" x="336.813057" y="241.636934" style="fill: #0000ff; stroke: #0000ff"/>
     <use xlink:href="#m586789651c" x="338.855766" y="241.375634" style="fill: #0000ff; stroke: #0000ff"/>
     <use xlink:href="#m586789651c" x="340.898475" y="240.144267" style="fill: #0000ff; stroke: #0000ff"/>
     <use xlink:href="#m586789651c" x="342.941184" y="238.676454" style="fill: #0000ff; stroke: #0000ff"/>
     <use xlink:href="#m586789651c" x="344.983893" y="239.211825" style="fill: #0000ff; stroke: #0000ff"/>
     <use xlink:href="#m586789651c" x="347.026602" y="240.540896" style="fill: #0000ff; stroke: #0000ff"/>
     <use xlink:href="#m586789651c" x="349.069311" y="240.975837" style="fill: #0000ff; stroke: #0000ff"/>
     <use xlink:href="#m586789651c" x="351.11202" y="239.878594" style="fill: #0000ff; stroke: #0000ff"/>
     <use xlink:href="#m586789651c" x="353.154728" y="237.446663" style="fill: #0000ff; stroke: #0000ff"/>
     <use xlink:href="#m586789651c" x="355.197437" y="240.577581" style="fill: #0000ff; stroke: #0000ff"/>
     <use xlink:href="#m586789651c" x="357.240146" y="241.046676" style="fill: #0000ff; stroke: #0000ff"/>
     <use xlink:href="#m586789651c" x="359.282855" y="240.696922" style="fill: #0000ff; stroke: #0000ff"/>
     <use xlink:href="#m586789651c" x="361.325564" y="241.247925" style="fill: #0000ff; stroke: #0000ff"/>
     <use xlink:href="#m586789651c" x="363.368273" y="241.581499" style="fill: #0000ff; stroke: #0000ff"/>
     <use xlink:href="#m586789651c" x="365.410982" y="239.341519" style="fill: #0000ff; stroke: #0000ff"/>
     <use xlink:href="#m586789651c" x="367.453691" y="242.116364" style="fill: #0000ff; stroke: #0000ff"/>
     <use xlink:href="#m586789651c" x="369.4964" y="241.980741" style="fill: #0000ff; stroke: #0000ff"/>
     <use xlink:href="#m586789651c" x="371.539109" y="241.614121" style="fill: #0000ff; stroke: #0000ff"/>
     <use xlink:href="#m586789651c" x="373.581818" y="239.130361" style="fill: #0000ff; stroke: #0000ff"/>
    </g>
   </g>
   <g id="line2d_18">
    <path d="M 69.218182 221.186394 
L 71.260891 209.269062 
L 73.3036 219.432207 
L 75.346309 233.885383 
L 77.389018 225.689274 
L 79.431727 231.586346 
L 81.474436 234.054002 
L 83.517145 233.816496 
L 85.559854 219.775634 
L 87.602563 236.391761 
L 89.645272 228.325843 
L 91.68798 219.723581 
L 93.730689 235.830196 
L 95.773398 226.474103 
L 97.816107 237.807238 
L 99.858816 230.536588 
L 101.901525 236.522247 
L 103.944234 237.603442 
L 105.986943 214.731713 
L 108.029652 237.79605 
L 110.072361 232.65293 
L 112.11507 230.429251 
L 114.157779 237.342756 
L 116.200488 231.245437 
L 118.243197 233.965794 
L 120.285906 228.966138 
L 122.328615 238.348106 
L 124.371324 206.045296 
L 126.414033 235.959334 
L 128.456742 236.175911 
L 130.499451 234.962971 
L 132.54216 214.0835 
L 134.584869 232.120956 
L 136.627578 237.192226 
L 138.670287 232.235706 
L 140.712996 237.028423 
L 142.755705 234.717163 
L 144.798414 235.138921 
L 146.841123 238.543709 
L 148.883832 236.920435 
L 150.926541 236.416575 
L 152.96925 237.748694 
L 155.011959 236.738081 
L 157.054667 237.779829 
L 159.097376 236.259266 
L 161.140085 237.001209 
L 163.182794 234.954286 
L 165.225503 237.386639 
L 167.268212 237.326009 
L 169.310921 235.370267 
L 171.35363 235.505765 
L 173.396339 235.876191 
L 175.439048 238.511926 
L 177.481757 236.511023 
L 179.524466 231.897875 
L 181.567175 236.329629 
L 183.609884 235.929245 
L 185.652593 235.158478 
L 187.695302 236.175441 
L 189.738011 233.101781 
L 191.78072 227.201996 
L 193.823429 235.629116 
L 195.866138 238.208499 
L 197.908847 234.890548 
L 199.951556 237.779421 
L 201.994265 234.713884 
L 204.036974 238.461066 
L 206.079683 233.479378 
L 208.122392 238.138578 
L 210.165101 239.240853 
L 212.20781 236.342765 
L 214.250519 235.94528 
L 216.293228 239.067518 
L 218.335937 233.228731 
L 220.378646 236.011114 
L 222.421354 237.360516 
L 224.464063 238.301592 
L 226.506772 237.502804 
L 228.549481 237.650148 
L 230.59219 233.519008 
L 232.634899 236.28747 
L 234.677608 234.042769 
L 236.720317 239.189378 
L 238.763026 234.982447 
L 240.805735 237.667805 
L 242.848444 208.296041 
L 244.891153 237.782743 
L 246.933862 239.254784 
L 248.976571 239.184592 
L 251.01928 238.83693 
L 253.061989 237.258856 
L 255.104698 237.363838 
L 257.147407 231.067796 
L 259.190116 235.484213 
L 261.232825 233.259404 
L 263.275534 237.151059 
L 265.318243 231.555322 
L 267.360952 235.754159 
L 269.403661 236.798009 
L 271.44637 236.677529 
L 273.489079 236.372073 
L 277.574497 235.986468 
L 279.617206 236.402619 
L 281.659915 233.183163 
L 283.702624 234.279874 
L 285.745333 234.564307 
L 287.788041 230.317586 
L 289.83075 237.303425 
L 291.873459 235.102752 
L 293.916168 235.655966 
L 295.958877 236.692387 
L 298.001586 239.126775 
L 300.044295 233.18592 
L 302.087004 232.111134 
L 304.129713 236.117072 
L 306.172422 236.042065 
L 308.215131 235.719713 
L 310.25784 237.118575 
L 312.300549 234.956927 
L 314.343258 238.471063 
L 316.385967 237.218696 
L 318.428676 162.238441 
L 320.471385 237.117545 
L 322.514094 238.267866 
L 324.556803 234.708975 
L 326.599512 236.845211 
L 328.642221 234.96623 
L 330.68493 193.268642 
L 332.727639 238.031552 
L 334.770348 238.616172 
L 336.813057 236.839055 
L 338.855766 236.838376 
L 340.898475 236.361069 
L 342.941184 228.49389 
L 344.983893 234.769357 
L 347.026602 203.398909 
L 349.069311 237.979432 
L 351.11202 225.349198 
L 353.154728 238.017032 
L 355.197437 237.34147 
L 357.240146 231.798214 
L 359.282855 236.512969 
L 361.325564 238.666682 
L 363.368273 231.890806 
L 365.410982 239.125844 
L 367.453691 237.255551 
L 369.4964 237.787769 
L 371.539109 237.566757 
L 373.581818 235.880071 
L 373.581818 235.880071 
" clip-path="url(#peeab24dcf7)" style="fill: none; stroke: #0000ff; stroke-width: 1.5; stroke-linecap: square"/>
   </g>
   <g id="patch_3">
    <path d="M 54 252 
L 54 34.56 
" style="fill: none; stroke: #000000; stroke-width: 0.8; stroke-linejoin: miter; stroke-linecap: square"/>
   </g>
   <g id="patch_4">
    <path d="M 388.8 252 
L 388.8 34.56 
" style="fill: none; stroke: #000000; stroke-width: 0.8; stroke-linejoin: miter; stroke-linecap: square"/>
   </g>
   <g id="patch_5">
    <path d="M 54 252 
L 388.8 252 
" style="fill: none; stroke: #000000; stroke-width: 0.8; stroke-linejoin: miter; stroke-linecap: square"/>
   </g>
   <g id="patch_6">
    <path d="M 54 34.56 
L 388.8 34.56 
" style="fill: none; stroke: #000000; stroke-width: 0.8; stroke-linejoin: miter; stroke-linecap: square"/>
   </g>
   <g id="text_17">
    <!-- Training and validation loss -->
    <g transform="translate(139.59 28.56)scale(0.12 -0.12)">
     <defs>
      <path id="DejaVuSans-54" d="M -19 4666 
L 3928 4666 
L 3928 4134 
L 2272 4134 
L 2272 0 
L 1638 0 
L 1638 4134 
L -19 4134 
L -19 4666 
z
" transform="scale(0.015625)"/>
      <path id="DejaVuSans-72" d="M 2631 2963 
Q 2534 3019 2420 3045 
Q 2306 3072 2169 3072 
Q 1681 3072 1420 2755 
Q 1159 2438 1159 1844 
L 1159 0 
L 581 0 
L 581 3500 
L 1159 3500 
L 1159 2956 
Q 1341 3275 1631 3429 
Q 1922 3584 2338 3584 
Q 2397 3584 2469 3576 
Q 2541 3569 2628 3553 
L 2631 2963 
z
" transform="scale(0.015625)"/>
      <path id="DejaVuSans-61" d="M 2194 1759 
Q 1497 1759 1228 1600 
Q 959 1441 959 1056 
Q 959 750 1161 570 
Q 1363 391 1709 391 
Q 2188 391 2477 730 
Q 2766 1069 2766 1631 
L 2766 1759 
L 2194 1759 
z
M 3341 1997 
L 3341 0 
L 2766 0 
L 2766 531 
Q 2569 213 2275 61 
Q 1981 -91 1556 -91 
Q 1019 -91 701 211 
Q 384 513 384 1019 
Q 384 1609 779 1909 
Q 1175 2209 1959 2209 
L 2766 2209 
L 2766 2266 
Q 2766 2663 2505 2880 
Q 2244 3097 1772 3097 
Q 1472 3097 1187 3025 
Q 903 2953 641 2809 
L 641 3341 
Q 956 3463 1253 3523 
Q 1550 3584 1831 3584 
Q 2591 3584 2966 3190 
Q 3341 2797 3341 1997 
z
" transform="scale(0.015625)"/>
      <path id="DejaVuSans-69" d="M 603 3500 
L 1178 3500 
L 1178 0 
L 603 0 
L 603 3500 
z
M 603 4863 
L 1178 4863 
L 1178 4134 
L 603 4134 
L 603 4863 
z
" transform="scale(0.015625)"/>
      <path id="DejaVuSans-6e" d="M 3513 2113 
L 3513 0 
L 2938 0 
L 2938 2094 
Q 2938 2591 2744 2837 
Q 2550 3084 2163 3084 
Q 1697 3084 1428 2787 
Q 1159 2491 1159 1978 
L 1159 0 
L 581 0 
L 581 3500 
L 1159 3500 
L 1159 2956 
Q 1366 3272 1645 3428 
Q 1925 3584 2291 3584 
Q 2894 3584 3203 3211 
Q 3513 2838 3513 2113 
z
" transform="scale(0.015625)"/>
      <path id="DejaVuSans-67" d="M 2906 1791 
Q 2906 2416 2648 2759 
Q 2391 3103 1925 3103 
Q 1463 3103 1205 2759 
Q 947 2416 947 1791 
Q 947 1169 1205 825 
Q 1463 481 1925 481 
Q 2391 481 2648 825 
Q 2906 1169 2906 1791 
z
M 3481 434 
Q 3481 -459 3084 -895 
Q 2688 -1331 1869 -1331 
Q 1566 -1331 1297 -1286 
Q 1028 -1241 775 -1147 
L 775 -588 
Q 1028 -725 1275 -790 
Q 1522 -856 1778 -856 
Q 2344 -856 2625 -561 
Q 2906 -266 2906 331 
L 2906 616 
Q 2728 306 2450 153 
Q 2172 0 1784 0 
Q 1141 0 747 490 
Q 353 981 353 1791 
Q 353 2603 747 3093 
Q 1141 3584 1784 3584 
Q 2172 3584 2450 3431 
Q 2728 3278 2906 2969 
L 2906 3500 
L 3481 3500 
L 3481 434 
z
" transform="scale(0.015625)"/>
      <path id="DejaVuSans-20" transform="scale(0.015625)"/>
      <path id="DejaVuSans-64" d="M 2906 2969 
L 2906 4863 
L 3481 4863 
L 3481 0 
L 2906 0 
L 2906 525 
Q 2725 213 2448 61 
Q 2172 -91 1784 -91 
Q 1150 -91 751 415 
Q 353 922 353 1747 
Q 353 2572 751 3078 
Q 1150 3584 1784 3584 
Q 2172 3584 2448 3432 
Q 2725 3281 2906 2969 
z
M 947 1747 
Q 947 1113 1208 752 
Q 1469 391 1925 391 
Q 2381 391 2643 752 
Q 2906 1113 2906 1747 
Q 2906 2381 2643 2742 
Q 2381 3103 1925 3103 
Q 1469 3103 1208 2742 
Q 947 2381 947 1747 
z
" transform="scale(0.015625)"/>
      <path id="DejaVuSans-76" d="M 191 3500 
L 800 3500 
L 1894 563 
L 2988 3500 
L 3597 3500 
L 2284 0 
L 1503 0 
L 191 3500 
z
" transform="scale(0.015625)"/>
      <path id="DejaVuSans-6c" d="M 603 4863 
L 1178 4863 
L 1178 0 
L 603 0 
L 603 4863 
z
" transform="scale(0.015625)"/>
      <path id="DejaVuSans-74" d="M 1172 4494 
L 1172 3500 
L 2356 3500 
L 2356 3053 
L 1172 3053 
L 1172 1153 
Q 1172 725 1289 603 
Q 1406 481 1766 481 
L 2356 481 
L 2356 0 
L 1766 0 
Q 1100 0 847 248 
Q 594 497 594 1153 
L 594 3053 
L 172 3053 
L 172 3500 
L 594 3500 
L 594 4494 
L 1172 4494 
z
" transform="scale(0.015625)"/>
      <path id="DejaVuSans-6f" d="M 1959 3097 
Q 1497 3097 1228 2736 
Q 959 2375 959 1747 
Q 959 1119 1226 758 
Q 1494 397 1959 397 
Q 2419 397 2687 759 
Q 2956 1122 2956 1747 
Q 2956 2369 2687 2733 
Q 2419 3097 1959 3097 
z
M 1959 3584 
Q 2709 3584 3137 3096 
Q 3566 2609 3566 1747 
Q 3566 888 3137 398 
Q 2709 -91 1959 -91 
Q 1206 -91 779 398 
Q 353 888 353 1747 
Q 353 2609 779 3096 
Q 1206 3584 1959 3584 
z
" transform="scale(0.015625)"/>
      <path id="DejaVuSans-73" d="M 2834 3397 
L 2834 2853 
Q 2591 2978 2328 3040 
Q 2066 3103 1784 3103 
Q 1356 3103 1142 2972 
Q 928 2841 928 2578 
Q 928 2378 1081 2264 
Q 1234 2150 1697 2047 
L 1894 2003 
Q 2506 1872 2764 1633 
Q 3022 1394 3022 966 
Q 3022 478 2636 193 
Q 2250 -91 1575 -91 
Q 1294 -91 989 -36 
Q 684 19 347 128 
L 347 722 
Q 666 556 975 473 
Q 1284 391 1588 391 
Q 1994 391 2212 530 
Q 2431 669 2431 922 
Q 2431 1156 2273 1281 
Q 2116 1406 1581 1522 
L 1381 1569 
Q 847 1681 609 1914 
Q 372 2147 372 2553 
Q 372 3047 722 3315 
Q 1072 3584 1716 3584 
Q 2034 3584 2315 3537 
Q 2597 3491 2834 3397 
z
" transform="scale(0.015625)"/>
     </defs>
     <use xlink:href="#DejaVuSans-54"/>
     <use xlink:href="#DejaVuSans-72" x="46.333984"/>
     <use xlink:href="#DejaVuSans-61" x="87.447266"/>
     <use xlink:href="#DejaVuSans-69" x="148.726562"/>
     <use xlink:href="#DejaVuSans-6e" x="176.509766"/>
     <use xlink:href="#DejaVuSans-69" x="239.888672"/>
     <use xlink:href="#DejaVuSans-6e" x="267.671875"/>
     <use xlink:href="#DejaVuSans-67" x="331.050781"/>
     <use xlink:href="#DejaVuSans-20" x="394.527344"/>
     <use xlink:href="#DejaVuSans-61" x="426.314453"/>
     <use xlink:href="#DejaVuSans-6e" x="487.59375"/>
     <use xlink:href="#DejaVuSans-64" x="550.972656"/>
     <use xlink:href="#DejaVuSans-20" x="614.449219"/>
     <use xlink:href="#DejaVuSans-76" x="646.236328"/>
     <use xlink:href="#DejaVuSans-61" x="705.416016"/>
     <use xlink:href="#DejaVuSans-6c" x="766.695312"/>
     <use xlink:href="#DejaVuSans-69" x="794.478516"/>
     <use xlink:href="#DejaVuSans-64" x="822.261719"/>
     <use xlink:href="#DejaVuSans-61" x="885.738281"/>
     <use xlink:href="#DejaVuSans-74" x="947.017578"/>
     <use xlink:href="#DejaVuSans-69" x="986.226562"/>
     <use xlink:href="#DejaVuSans-6f" x="1014.009766"/>
     <use xlink:href="#DejaVuSans-6e" x="1075.191406"/>
     <use xlink:href="#DejaVuSans-20" x="1138.570312"/>
     <use xlink:href="#DejaVuSans-6c" x="1170.357422"/>
     <use xlink:href="#DejaVuSans-6f" x="1198.140625"/>
     <use xlink:href="#DejaVuSans-73" x="1259.322266"/>
     <use xlink:href="#DejaVuSans-73" x="1311.421875"/>
    </g>
   </g>
   <g id="legend_1">
    <g id="patch_7">
     <path d="M 275.30625 71.91625 
L 381.8 71.91625 
Q 383.8 71.91625 383.8 69.91625 
L 383.8 41.56 
Q 383.8 39.56 381.8 39.56 
L 275.30625 39.56 
Q 273.30625 39.56 273.30625 41.56 
L 273.30625 69.91625 
Q 273.30625 71.91625 275.30625 71.91625 
z
" style="fill: #ffffff; opacity: 0.8; stroke: #cccccc; stroke-linejoin: miter"/>
    </g>
    <g id="line2d_19">
     <g>
      <use xlink:href="#m586789651c" x="287.30625" y="47.658437" style="fill: #0000ff; stroke: #0000ff"/>
     </g>
    </g>
    <g id="text_18">
     <!-- Training Loss -->
     <g transform="translate(305.30625 51.158437)scale(0.1 -0.1)">
      <defs>
       <path id="DejaVuSans-4c" d="M 628 4666 
L 1259 4666 
L 1259 531 
L 3531 531 
L 3531 0 
L 628 0 
L 628 4666 
z
" transform="scale(0.015625)"/>
      </defs>
      <use xlink:href="#DejaVuSans-54"/>
      <use xlink:href="#DejaVuSans-72" x="46.333984"/>
      <use xlink:href="#DejaVuSans-61" x="87.447266"/>
      <use xlink:href="#DejaVuSans-69" x="148.726562"/>
      <use xlink:href="#DejaVuSans-6e" x="176.509766"/>
      <use xlink:href="#DejaVuSans-69" x="239.888672"/>
      <use xlink:href="#DejaVuSans-6e" x="267.671875"/>
      <use xlink:href="#DejaVuSans-67" x="331.050781"/>
      <use xlink:href="#DejaVuSans-20" x="394.527344"/>
      <use xlink:href="#DejaVuSans-4c" x="426.314453"/>
      <use xlink:href="#DejaVuSans-6f" x="480.277344"/>
      <use xlink:href="#DejaVuSans-73" x="541.458984"/>
      <use xlink:href="#DejaVuSans-73" x="593.558594"/>
     </g>
    </g>
    <g id="line2d_20">
     <path d="M 277.30625 62.336562 
L 287.30625 62.336562 
L 297.30625 62.336562 
" style="fill: none; stroke: #0000ff; stroke-width: 1.5; stroke-linecap: square"/>
    </g>
    <g id="text_19">
     <!-- Validation Loss -->
     <g transform="translate(305.30625 65.836562)scale(0.1 -0.1)">
      <defs>
       <path id="DejaVuSans-56" d="M 1831 0 
L 50 4666 
L 709 4666 
L 2188 738 
L 3669 4666 
L 4325 4666 
L 2547 0 
L 1831 0 
z
" transform="scale(0.015625)"/>
      </defs>
      <use xlink:href="#DejaVuSans-56"/>
      <use xlink:href="#DejaVuSans-61" x="60.658203"/>
      <use xlink:href="#DejaVuSans-6c" x="121.9375"/>
      <use xlink:href="#DejaVuSans-69" x="149.720703"/>
      <use xlink:href="#DejaVuSans-64" x="177.503906"/>
      <use xlink:href="#DejaVuSans-61" x="240.980469"/>
      <use xlink:href="#DejaVuSans-74" x="302.259766"/>
      <use xlink:href="#DejaVuSans-69" x="341.46875"/>
      <use xlink:href="#DejaVuSans-6f" x="369.251953"/>
      <use xlink:href="#DejaVuSans-6e" x="430.433594"/>
      <use xlink:href="#DejaVuSans-20" x="493.8125"/>
      <use xlink:href="#DejaVuSans-4c" x="525.599609"/>
      <use xlink:href="#DejaVuSans-6f" x="579.5625"/>
      <use xlink:href="#DejaVuSans-73" x="640.744141"/>
      <use xlink:href="#DejaVuSans-73" x="692.84375"/>
     </g>
    </g>
   </g>
  </g>
 </g>
 <defs>
  <clipPath id="peeab24dcf7">
   <rect x="54" y="34.56" width="334.8" height="217.44"/>
  </clipPath>
 </defs>
</svg>
